<mxfile host="65bd71144e">
    <diagram id="ZsYIS_buaYjhIuktv9Pf" name="第 1 页">
        <mxGraphModel dx="3960" dy="2268" grid="1" gridSize="10" guides="1" tooltips="1" connect="1" arrows="1" fold="1" page="1" pageScale="1" pageWidth="1169" pageHeight="827" math="0" shadow="0">
            <root>
                <mxCell id="0"/>
                <mxCell id="1" parent="0"/>
                <mxCell id="2" value="" style="strokeWidth=1;shadow=0;dashed=0;align=center;html=1;shape=mxgraph.mockup.containers.browserWindow;rSize=0;strokeColor=#666666;strokeColor2=#008cff;strokeColor3=#c4c4c4;mainText=,;recursiveResize=0;" parent="1" vertex="1">
                    <mxGeometry width="1470" height="898" as="geometry"/>
                </mxCell>
                <mxCell id="3" value="Page 1" style="strokeWidth=1;shadow=0;dashed=0;align=center;html=1;shape=mxgraph.mockup.containers.anchor;fontSize=17;fontColor=#666666;align=left;" parent="2" vertex="1">
                    <mxGeometry x="60" y="12" width="110" height="26" as="geometry"/>
                </mxCell>
                <mxCell id="4" value="https://www.draw.io" style="strokeWidth=1;shadow=0;dashed=0;align=center;html=1;shape=mxgraph.mockup.containers.anchor;rSize=0;fontSize=17;fontColor=#666666;align=left;" parent="2" vertex="1">
                    <mxGeometry x="130" y="60" width="250" height="26" as="geometry"/>
                </mxCell>
                <mxCell id="5" value="" style="rounded=0;whiteSpace=wrap;html=1;" parent="2" vertex="1">
                    <mxGeometry y="250" width="200" height="600" as="geometry"/>
                </mxCell>
                <mxCell id="6" value="" style="rounded=0;whiteSpace=wrap;html=1;" parent="2" vertex="1">
                    <mxGeometry x="200" y="190" width="1160" height="660" as="geometry"/>
                </mxCell>
                <mxCell id="7" value="首页" style="rounded=0;whiteSpace=wrap;html=1;fontSize=20;" parent="2" vertex="1">
                    <mxGeometry y="190" width="200" height="70" as="geometry"/>
                </mxCell>
                <mxCell id="8" value="社团成员" style="rounded=0;whiteSpace=wrap;html=1;fontSize=20;" parent="2" vertex="1">
                    <mxGeometry y="260" width="200" height="70" as="geometry"/>
                </mxCell>
                <mxCell id="9" value="社团活动" style="rounded=0;whiteSpace=wrap;html=1;fontSize=20;" parent="2" vertex="1">
                    <mxGeometry y="400" width="200" height="70" as="geometry"/>
                </mxCell>
                <mxCell id="10" value="审批提交" style="rounded=0;whiteSpace=wrap;html=1;fontSize=20;" parent="2" vertex="1">
                    <mxGeometry y="470" width="200" height="70" as="geometry"/>
                </mxCell>
                <mxCell id="11" value="论坛公告" style="rounded=0;whiteSpace=wrap;html=1;fontSize=20;" parent="2" vertex="1">
                    <mxGeometry y="540" width="200" height="70" as="geometry"/>
                </mxCell>
                <mxCell id="12" value="修改信息" style="rounded=0;whiteSpace=wrap;html=1;fontSize=20;" parent="2" vertex="1">
                    <mxGeometry y="610" width="200" height="70" as="geometry"/>
                </mxCell>
                <mxCell id="13" value="返回首页" style="rounded=0;whiteSpace=wrap;html=1;fontSize=20;" parent="2" vertex="1">
                    <mxGeometry y="680" width="200" height="70" as="geometry"/>
                </mxCell>
                <mxCell id="14" value="&lt;span style=&quot;background-color: rgb(0 , 204 , 102)&quot;&gt;成员管理&lt;/span&gt;&lt;br style=&quot;font-size: 18px&quot;&gt;审批管理" style="rounded=0;whiteSpace=wrap;html=1;fontSize=18;" parent="2" vertex="1">
                    <mxGeometry x="30" y="330" width="170" height="70" as="geometry"/>
                </mxCell>
                <mxCell id="15" value="Easy社团后台管理" style="text;html=1;strokeColor=none;fillColor=none;align=center;verticalAlign=middle;whiteSpace=wrap;rounded=0;fontSize=32;" parent="2" vertex="1">
                    <mxGeometry y="120" width="330" height="70" as="geometry"/>
                </mxCell>
                <mxCell id="16" value="" style="ellipse;whiteSpace=wrap;html=1;aspect=fixed;fontSize=32;" parent="2" vertex="1">
                    <mxGeometry x="1090" y="120" width="60" height="60" as="geometry"/>
                </mxCell>
                <mxCell id="34" value="" style="shape=image;verticalLabelPosition=bottom;labelBackgroundColor=#ffffff;verticalAlign=top;aspect=fixed;imageAspect=0;image=data:image/png,iVBORw0KGgoAAAANSUhEUgAABg0AAAK4CAYAAABHxr3QAAAgAElEQVR4Aey9a3MUR7rv6+9xvsN5eb7CeXHeHIIIIBbsE2I5ZINmGIWRx2PZs8WM0RiYZcRYbCyWtNkYE1xG2rIxtoRHeGRALLAGZEBcBAZhZFkCI4GQLKllWdZz4qmu6s669UV9UXX3ryMqursuWVm//GdWZj6ZT740Nzcv5jY/Py+JbW5e5u3Ndc5cTObnYjIXurnDTFw7mwzPCVe/E8f5DQs0gAbQABpAA2gADaABNIAG0AAaQANoAA2gATSABtAAGqhgDZh958nfMZmfz32LzcckscViEgvYXvJ22KczGOj5ajBwtmDDgWEImJ2Xudm5xOY8pPe+Rf1vxUnjxQYDNIAG0AAaQANoAA2gATSABtAAGkADaAANoAE0gAbQABpIoYFVNGA4/enu79yMBwmjgRoQgowGQdYJ86Lg4wsSm49v8/ML4t9iMj+r27xvCzYypJq1wDGYoQE0gAbQABpAA2gADaABNIAG0AAaQANoAA2gATSABtBA5WogNhcT/7YgsdjKtoXYgiS2hQVZMLaXfEYBvbk9RcF3zJ7+4BgM9NtvMFhIuDRyrB/mLIKwMDPab8xwcGY68J2c9QELWKABNIAG0AAaQANoAA2gATSABtAAGkADaAANoAE0gAYiqoE8uBfSfnSn/z7xnWfDgdtoYHfK683SdeI7hgOX0WBODQZOgsTXLzANBvo7Xbiu44mwnDBz+8YSV7mWONKetEcDaAANoAE0gAbQABpAA2gADaABNIAG0AAaQANoIBcNJPu+c+unToSTQT+8q7/cOD9hMEgYEfI34yBpNDA76I2bh0fK457IvN5aINlY18Dw+RQWXmK/J5wEwBT7c0lorqWgQANoAA2gATSABtAAGkADaAANoAE0gAbQABpAA2gADaCBfGkgkz5t3zkZ9Mkn+tCNc33GgxXMOki4KVKXRQsLEjcaGB3yDpigCJj7EjMNXLMLTGFlYTQw7u+DZRxz4laY7+D4emdK8B9OaAANoAE0gAbQABpAA2gADaABNIAG0AAaQANoAA2ggXLVgNnHnd/fqfq+XccMo4DZJ5/qt9t4kP2sA9Nw8JIZGbMzPlUE9JhlNJhbsBZfcMIwrw/LNK5wDYOAE4b57Q4vkwQqV6HyXGF6Yj/aQANoAA2gATSABtAAGkADaAANoAE0gAbQABpAA2ggGhrIpA87eY7ZFx74O0vjQb4MBwmjgbeD3tW5HxA5c6VmfSDv9fH/frEGPrzHeBAclvce/rBDhTE7L3NsMEADaAANoAE0gAbQABpAA2gADaABNIAG0AAaQANoAA2ggVw1YLjjD+2TTpzj7df2/8+kzzxdf71z3G04iEkshbsidUW0sPCza/t54Wd5SWcMuBYztv+nCkxvPDU1K4+fvpDvx5/Ld2PPQrZJ+W7MvT0afyZsMEADaAANoAE0gAbQABpAA2gADaABNIAG0AAaQANoAA2gATSQfw18//i5PJ54IVMvZsVyO+QxDHgNBd7/oUYDNSQEGQ5mfpqTH36ckicT0zI3/7MsLS3L8rKEbHrMvwkfCEAAAhCAAAQgAAEIQAACEIAABCAAAQhAAAIQgAAE8k5g6ddlmYv9LD9OzsjY0xfy0+y8azaB10jg/f9S0CwDZ5/XaKAGg5HxZzI9G7OMAbIsohtGg7ynKwFCAAIQgAAEIAABCEAAAhCAAAQgAAEIQAACEIAABHIiMDO3IDrzIBvDwUu6foBjJPB+u4wG8zFrhoFjMNAZBI7RINxw4J9lYF2X02NyMQQgAAEIQAACEIAABCAAAQhAAAIQgAAEIAABCEAAApkQUMOBzjjI1FVRZkaD+Zg8n/rJcklkuhvCaJBJknAOBCAAAQhAAAIQgAAEIAABCEAAAhCAAAQgAAEIQGD1CKirokzXOEhvNNC1DeZjMv50SmbnF1xrFKQ3GqjrImYbrJ4UuDMEIAABCEAAAhCAAAQgAAEIQAACEIAABCAAAQhUOgFd40AXR7ZmG8R+TrnGQWqjgW0wUKOBrmXwy9KvLiMARoNKlxrPDwEIQAACEIAABCAAAQhAAAIQgAAEIAABCEAAAlEnoIsj69oGcaPBgiykMBykMRrErFkGajT4bmzSZTBwZhA4hgMWQ466LIgfBCAAAQhAAAIQgAAEIAABCEAAAhCAAAQgAAEIVCqBR+PPDKPBQuhsg3CjwVzSYDCP0aBSdcRzQwACEIAABCAAAQhAAAIQgAAEIAABCEAAAhCAQBkQUKNBLKazDIxtwe+qyDIazM3FZH5+IbnNLci87rP26zFmGpSBJngECEAAAhCAAAQgAAEIQAACEIAABCAAAQhAAAIQqFACjtHAbTjI2GgQNxjEjQkYDSpUQzw2BCAAAQhAAAIQgAAEIAABCEAAAhCAAAQgAAEIlAkB02jgMhx4Zhv4Zxo4MwzmYpKN0UDXNghe12A5eC2EMgHNY0AAAhCAAAQgAAEIQAACEIAABCAAAQhAAAIQgAAEok4g1Gig7ooMw8FL6oIo4Z7IcEuk+zAaRD2ZiR8EIAABCEAAAhCAAAQgAAEIQAACEIAABCAAAQhAID0Br9HANdsglnRT5DEa2OsY2AYDjAbpQXMGBCAAAQhAAAIQgAAEIAABCEAAAhCAAAQgAAEIQCDqBFIbDZKzDZJGg4BZBhgNop7MxA8CEIAABCAAAQhAAAIQgAAEIAABCEAAAhCAAAQgkJ5AkNEgaLaBYTRILn7suCYqpNFgWRdA4AMBCEAAAhCAAAQgAAEIQAACEIAABCAAAQhAAAIQgEDBCYQZDVyGg4WfBaNBwZOCG0AAAhCAAAQgAAEIQAACEIAABCAAAQhAAAIQgAAEVpdAdkaDWf9aBs5sg/n5mOj23dik6OwA7yY6YcDedPKAf/Nf44Sxuoi4OwQgAAEIQAACEIAABCAAAQhAAAIQgAAEIAABCECgMghkZDSIOTMNZudl3lj82DEYON96DKNBZQiHp4QABCAAAQhAAAIQgAAEIAABCEAAAhCAAAQgAIHyI2AZDeYXRN0RBW0LsQXR7aX52ZjMYTQoPwXwRBCAAAQgAAEIQAACEIAABCAAAQhAAAIQgAAEIAABm0AWRoN5y2gwOzsvzswC7zczDdAVBCAAAQhAAAIQgAAEIAABCEAAAhCAAAQgAAEIQKB0CaQzGjgLIr80r8aC2XkJNRrY6x2s3D2RrnMQvK5B6eIl5hCAAAQgAAEIQAACEIAABCAAAQhAAAIQgAAEIACB0iGQMBqkcVGE0aB00pSYQgACEIAABCAAAQhAAAIQgAAEIAABCEAAAhCAAARWRCAro4HOMgicaWCtdxCzFklmpsGK0oGLIAABCEAAAhCAAAQgAAEIQAACEIAABCAAAQhAAAKrTsBlNEgx28CaaYDRYNXTiwhAAAIQgAAEIAABCEAAAhCAAAQgAAEIQAACEIAABApGAKNBwdASMAQgAAEIQAACEIAABCAAAQhAAAIQgAAEIAABCECgtAhkbDTQRZADF0K2XRPNsRByaaV8itj+NLcgPz6bke+fPBcVCNvKGShDZalM+UAAAhCAAAQgAAEIQAACEIAABCAAAQgUlgD9Wivvx6IPMBrsotCf6DMahLgoeikTo8HcXExY06CwBV8hQ/95cUkeT0xbndxzsZ9l6dflQt6uIsJWhspSDQfKVhnzgQAEIAABCEAAAhCAAAQgAAEIQAACEMgvAfq18suT0FaPQBT6E9VoMK+GAnOLLUjMs+VsNFheXhbRPmj9Ct2WRc/zbquXRJVzZy1Y1Yo1w4j4giW6slXGGA4KhpiAIQABCEAAAhCAAAQgAAEIQAACEKhAAvRrVWCiV8gjr1Z/Ym5GA8M1kbonSjXTAKNBtJWso+AxGBQ+jZSxsuYDAQhAAAIQgAAEIAABCEAAAhCAAAQgkB8C9GvlhyOhRJPAavQnBhoNAlwUBc80MIwGsxgNoqmqDGLl+HrL4FROyQMB1jjIA0SCgAAEIAABCEAAAhCAAAQgAAEIQAACItY6ktrXwgcC5Uyg2P2JjtEgnYsijAZlrDoVnfrd51McAs4aB8W5G3eBAAQgAAEIQAACEIAABCAAAQhAAALlS4B+rfJNW54sSaDY/YkYDZLsK/aX+tln0ePiJb+yVuZ8IAABCEAAAhCAAAQgAAEIQAACEIAABHIjQL9Wbvy4ujQIFLs/ceVGA8M1ka5ngHui0hBYUCxVBHyKSwDmxeXN3SAAAQhAAAIQgAAEIAABCEAAAhAoTwL0sZRnuvJUfgLF1LreS10T+dwTedY18LsnMowGajDAaOBPyFLZU0zBlQqTQscT5oUmTPgQgAAEIAABCEAAAhCAAAQgAAEIVAIB+lgqIZV5RiVQTK3rvRyjgc9wEFuQmL1hNChjbRZTcGWMMatHg3lWuDgZAhCAAAQgAAEIQAACEIAABCAAAQgEEqCPJRALO8uQQDG1rvfKo9FgXr4bm5Tl5eXATZZFdFsO3UKuK8NEjtIjFVNwUXru1YwLzFeTPveGAAQgAAEIQAACEIAABCAAAQhAoFwI0MdSLinJc6QjUEyt673m52MJw0FM3RI5W/YzDTAapEvcKB4vpuCi+PyrESeYrwZ17gkBCEAAAhCAAAQgAAEIQAACEIBAuRGgj6XcUrS0nmdubk6mpqbk2bNn1vf8/HzBHqCYWtd7YTQoWFKWRsDFFFxpECl8LGFeeMbcAQIQgAAEIAABCEAAAhCAAAQgAIHyJ0AfS/mncdSecGlpSR4/fixDQ0Ny8+ZN33b37l358ccfLU88+Yx7MbWu98reaBCwCHJ8IWRmGuRTCMUKq5iCK9YzRf0+MI96ChE/CEAAAhCAAAQgAAEIQAACEIAABEqBAH0spZBK5RPHFy9euIwFajj47rvv5Pvvv5eHDx/KnTt3EkaEe/fuyU8//ZS3hy+m1vVeptEgbDFk90LIUTIa/Dotj24NysA1z3brkbxYzFua5CWgB10dsvvYNXmRl9DyF0gxBZe/WJd2SDAv7fQj9hCAAAQgAAEIQAACEIAABCAAAQhEg0D++1h+kclvL8rHJzrkwxMd0n72tjz+ORrPGhaLyd4PpO1m2FH254vA8+fPEwaB4eFhmZ6eDgxaDQv3799PnBt2XuDFKXbmX+vhN9N7lbbRYPCs7G46Gbz97ZScvjsb/vRFPnKj86Ts/p+X5YnnvrN3L0v39UnP3uL9zavg5sfk5pXrctW3PZJnS8V7pqjfKa/Mo/6wxA8CEIAABCAAAQhAAAIQgAAEIAABCBSIQH77WGJy/egeeav1C7ky8lymJ7+XK2dPSOOfPpAvHhfoAfIQ7OOzzRgN8sAxVRC6doHjimhsbCzVqYljo6Oj1jW3b9+WhYWFxP6V/siv1lPHQu9VFkaDo/3P5cV0cnty76K0/O2k7N7/ldz+NTWEYh0NMxqE7S9WvPIquCCjwYXj8rv1x+UeRoNEkuaVeSJUfkAAAhCAAAQgAAEIQAACEIAABCAAgcoikNc+lslzsvs/zonPPvB8XEYLt75tzgmG0SBnhGkDUNdDajRQN0TZfNR1kV43MjKSzWWB5+ZV64F3SO7Ue+XJaDAvc3OrsKaBPdPgxGDyoZxfP/zzlOxu6pCP7zl7nO8leXH/X3L6xGeyr7VbTpwdlCeBroy8512TR9Oenu/J29JzcVjc8xli8ui/Lsr5RzHnhta3zzgwOyo3rg3K6Y9Oyu6Wf8h5dbF03zvjIIM4uO7i/FmSyesXM5rBUGjBPev+k7ze/dSJGN8iUmjmQIYABCAAAQhAAAIQgAAEIAABCEAAApVAIK99LD+ek8b3L0qw0xkPzV+ey5WPW6WxcY+89R+t0j7wXAK7F5/fkPYDzfJW4x5pPPC5XJn8RR4PnJPrpv/yH2/IF7d/Enl+Q469r+F9IQ/N282PyyXnXo3NsvfERXloGDEco8H06IB8fOgD2X3oc/nng/z50jejUom/dV0C7fi/deuW/PLLL1khiMVi1rV6/fy8kWhZhRI/Oa9aT3N/vVfcaBATXc8ghzUNSsVoMCu3P++MuzPa3yn7Wjrivw/8Q/on3QaByf5u69i+j/4hHaf+IS3NJ2X33z6T88+SVJ/0qmHilPS6+vpvywl1mdR5O3miiPiMBncCXCsdOC8PjKsyiYNxuvHzvnToTIsAd0jGSdbPggpu6b58+N8+kKsR9/3mZeL9ryue//xz6oeYnZ21Vkb3Xhv0v6DMg27IPghAAAIQgAAEIAABCEAAAhCAAAQgUIYE8tvH8lS+2Pdn2f3xbZlM1Tf867C0NzbLhwNPZfFXkUXt1D+8R3af9QyaffG17H3nsHzx7U9xg8LMsHzRelh2/8d/d7sTunlCGk99IR8eGfDfd/62tL3TlLiX/PqLTA6ckg+/ThoF1GjQfPRzaTs7LJMzP8n05LB8vG+PHPu2DBN8FR5J3RFpp3+mbom8UdTZCXq99i/m8smv1lPHRO9VnkaDxWE5/Z8nZfd/XpRHpnuie1/JvqaT0vLPUUnk/enbcuLASdn90YAk+/6fSO//8nS6L47Kpa7LctuYVuAYDXpcCxVkaDSw08ZnTEikWWZxSJzu+rEkk3euySXfzAXXSdafQgru5ysfyMYj9/03LbE9OgVJVzxXw0DQR/dr5tdzMvkUknkm9+ccCEAAAhCAAAQgAAEIQAACEIAABCBQDgTy3seiMwjaP5Df//HPsuNAh3xx0z+DYPrCB7L7QrLT3uL46/fS/u5RuWKMOb3V3iRtNxM9kHHcv96TYw1+o8Fv93whD80+TDtxbrX/RVr+5fZm4k03NRr8vt3TJ3XzhPz+fw97T+X/Cgg8ePDA6vdb6YLGz549s65XV0W5fPKu9RSR0XuVhdFgtzVrQGcO2JvOCgiYPXD7lO7/Sm4Y6x/oWgj3zujsA3PGQEz6/64zC07Jx7fGZSEg0yrXwhoNMotDivTN6FDhBPdCena8IZ0/ZBSNSJ+kswzUIBBkOMjWYKAPWjjmkcZI5CAAAQhAAAIQgAAEIAABCEAAAhCAQF4JFKyPRUf0jwxI+/498tr75+Sx0Td45chfZPfhDvnwhHvb+26zfJEYTP5UPttzQq4Y1zkPfv2o32gQ3MEfHoYTln5b7omumXtERF0tHXV7QfGcwd8MCQwNDVmd/upqaCUfx73R/fu5DawumNYDHkrvlT+jwezqrWmw/+hX0nHK2f4hh3WWQVOHnBg0R4Y/kZ7/qfvDtk45bRp8Zu/LaeP89z78Si79YIZXaKOBiGQQh4B0zWpXwQT3Q5e8uuOceOyuWcUtSicHGQ5WYjDQZyoY8ygBIy4QgAAEIAABCEAAAhCAAAQgAAEIQKDABArfxxITNRLsvej0cP0k5w80yccPfpJpdQXk2mLGugbDcqzhhFwPeP4go0Gj17WRdV14GGawzpoG5j6MBi4aOf2pWKPBnK5nkI81DVbRaOBbCPnXR9KthoP/9S/D5dBzOa+LDv/nebnnmWmgsw1e/BRkLVqShWePZKD3K2lrUWPDKTFdERV2poGj59RxcM5a6XdhCtdFudnyhuwfDFwCZqVRXfXrTMOB+iHLxiWRGfnCMDfvwG8IQAACEIAABCAAAQhAAAIQgAAEIFD+BPLax/LLL0anf5Ld/NeHxezUv/e//yItAx63Q8nT7V+/yKVDTfLxmPfAU/kiaE2DQKOBhrFH2s1Bzt7gnJkGNz0HmGngAbLyv457ohcvzNWrMw/PcU/06NGjzC8KODOvWg8I39yl95pfqdFgdjYmyW1e5qJkNHAWHt7/lZgeveKd/N4ZCCKyOCuzC8ZCyL9Oyr1r9+WJ2ef9a3ytgpbe5AIGL/7rM9nd1CndZpo/+5e0NZ2Uff8wdwYshGynROiaBhnGwUzQlfwuiOBenJO3tnbJ+EoiFPFrHMPBSg0G+ngFYR5xbkQPAhCAAAQgAAEIQAACEIAABCAAAQjkm0A++1h0xP5bhz2LEf8yLp95FxX+8ZzsfueEXJkxnmb+e/m49XNXP6R8e0re2veljBr2hcdnP5DX/uB3T2QaJYxQJR7GF/Jw3tg7c0+ufJsMNKOZBj8/lVt3nyaNIun+G7er9J/j4+PWwOEffliZD3Y1Fmg/4tOnnoWyswSbT62nu7Xey2s0mJ9fkJizxRYkFluQl9QgoNus9R2TOZfBQI0H0TMaPPpHfJ2C08OGS6GFu9Khix7/rVMOn70mA9cGZeDieWnTfceuSeLM6Wty+G8nZXfrWbn03RPRmQg/9P9D9jV1yMd3DePCswFp0/NauqW7f1AGrg1IR6vOSOiU7u/d+MOMA9Z+XTuhf0B6BpIGCck0Du7b2P9G4zMtPjRnWgSeWJAO7PFTb8hbX67M+hYcy2jtVcNBLiueFzOTR4scsYEABCAAAQhAAAIQgAAEIAABCEAAAvkjkN8+ll9kcuCUNP7xz/L7xj3yVuMeee2PzXLs2nNfhBfHLkpL41/k9//RKi0HmuT3jYfln2PJjnzngsl/nZC3/vQX2X3oqOx+p0maz34vl078RY5965whIrc7ZHev/x7OGdO3P7fi9Nb7R6Xl/T3y1rtH5fxj56jIZO8H8qF3+YLJc7L7hDGUWv//6XN56FyW7r9zHt/iuCfXjn/tE8zmMz8/bxkM9NqFhYVsLvWdm1+t+4J37cjeaPCTGgciZDQYPi/7/tYhp4MWA5+9LR3qUqjztriy7PSw9PxdDQrJtQ32//2y3Js2jAG6nMDwZTlqrY1gn6eGhouj7rCs8y5Kmy687IT3t1PScX3SBVr/POjqsAwTvq708X8lrt9/xr0gRqZx8N1MRqVHjRerYjR4JCde/kCuZpeH/I9QxnuKmcnLGCOPBgEIQAACEIAABCAAAQhAAAIQgECFEyhUH8vi7E8yPevqUQwkvTifyXm/yPxMTBYDFkUODDRkpxWn+fRxCrmc3TkQcGYLZONiaHl5WXTxYzUYjI6O5nD3+KWF0npQxNIaDXTGgWumQdSMBkFPlem+X2MyO/1cZk0XREHXLs7Ki+lZn7HAe+ovs8/lRdrAvFdl+D/DOGQYmuu0YgrOdeMK/gPzCk58Hh0CEIAABCAAAQhAAAIQgAAEIACBvBGgjyVvKAkoBYFYLCa3bt1KGADUIJDqs7S0JM4Cyrdv35bFxXQd0KlCix8rptb1XindE5W10SB9WlTEGcUUXEUAzeAhYZ4BJE6BAAQgAAEIQAACEIAABCAAAQhAAAJpCNDHkgYQh/NGYHp6OuFq6N69e/L8+XP59Vf39BE1FkxOTsrdu3cT5+ZjPQN9iGJqXe+F0SBv0inNgIopuNIklP9Ywzz/TAkRAhCAAAQgAAEIQAACEIAABCAAgcojQB9L5aX5aj7xTz/9JN9++63LIKAuiB4+fJhwRaRGAt0ePHggY2NjiXPLaiFkZhqspgyLc28K1+JwNu8Cc5MGvyEAAQhAAAIQgAAEIAABCEAAAhCAwMoI0MeyMm5clRuBiYkJn/HANBbobAPno8YC51guhoNial3vlYeZBvMyO6sLJM/Ld2OToj6dgjZRV0/LIuryKXgLuc4hzHdBCBRTcAV5gBIMFOYlmGhEGQIQgAAEIAABCEAAAhCAAAQgAIHIEaCPJXJJUlER+vnnn2VmZkZevHghOgshbO2CfBgOiql1vVfSaBCT+fkFa4vpDANnS78QMkaDUs4NxRRcKXPKZ9xhnk+ahAUBCEAAAhCAAAQgAAEIQAACEIBApRKgj6VSU770nts0HKwk9sXUut4Lo8FKUqmMrimm4MoIW06PAvOc8HExBCAAAQhAAAIQgAAEIAABCEAAAhCwCNDHghBKicCzZ8+sGQkriXMxta73wmiwklQqo2uKKbgywpbTo8A8J3xcDAEIQAACEIAABCAAAQhAAAIQgAAELAL0sSCESiFQTK3rvTAaVIqyQp6zmIILiULF7YZ5xSU5DwwBCEAAAhCAAAQgAAEIQAACEIBAAQjQx1IAqAQZSQLF1LreC6NBJGVQvEh9/+S5LP2qq1TzKQYBZa3M+UAAAhCAAAQgAAEIQAACEIAABCAAAQjkRoB+rdz4cXVpECh2fyJGg9LQRUFj+eOzGZmL/VzQexB4koCyVuZ8IAABCEAAAhCAAAQgAAEIQAACEIAABHIjQL9Wbvy4ujQIFLs/EaNBaeiioLH8aW6BTuyCEnYHri8zZc4HAhCAAAQgAAEIQAACEIAABCAAAQhAIDcC9Gvlxo+rS4NAsfsTMRqUhi4KHsvHE9MyQ0d2wTkrY2XNBwIQgAAEIAABCEAAAhCAAAQgAAEIQCA/BOjXyg9HQokmgdXoT8RoEE0tFD1WPy8uWX72MRwUDr2yVT97ypoPBCAAAQhAAAIQgAAEIAABCEAAAhCAQH4I0K+VH46EEj0Cq9WfiNEgelpYtRhpAauWWccXHIsj554UytDxOaZsMRjkzpQQIAABCEAAAhCAAAQgAAEIQAACEICAlwD9Wl4i/C9VAlHoT8RoUKrqKWC8HV9wOipeBcK2cgbKsNg+xwooDYKGAAQgAAEIQAACEIAABCAAAQhAAAKRJkC/1sr7segDjAa7KPQnYjSIdDFH5CAAAQhAAAIQgAAEIAABCEAAAhCAAAQgAAEIQAACxSOA0aB4rLkTBCAAAQhAAAIQgAAEIAABCEAAAhCAAAQgAAEIQCDSBDAaRDp5iBwEIAABCEAAAhCAAAQgAAEIQAACEIAABCAAAQhAoHgEMBoUjzV3ggAEIAABCEAAAhCAAAQgAAEIQAACEIAABCAAAQhEmgBGg0gnD5GDAAQgAAEIQAACEIAABCAAAQhAAAIQgAAEIAABCBSPAEaD4rHmThCAAAQgAAEIQAACEIAABCAAAQhAAAIQgAAEIACBSBPAaBDp5CFyEIAABCAAAQhAAAIQgAAEIAABCEAAAhCAAAQgAIHiEcBoUDzW3AkCEIAABCAAAQhAAAIQgAAEIAABCEAAAhCAAAQgEDLzmGUAACAASURBVGkCGA0inTxEDgIQgAAEIAABCEAAAhCAAAQgAAEIQAACEIAABCBQPAIYDYrHmjtBAAIQgAAEIAABCEAAAhCAAAQgAAEIQAACEIAABCJNAKNBpJOHyEEAAhCAAAQgAAEIQAACEIAABCAAAQhAAAIQgAAEikcAo0HxWHMnCEAAAhCAAAQgAAEIQAACEIAABCAAAQhAAAIQgECkCWA0iHTyEDkIQAACEIAABCAAAQhAAAIQgAAEIAABCEAAAhCAQPEIYDQoHmvuBAEIQAACEIAABCAAAQhAAAIQgAAEIAABCEAAAhCINAGMBpFOHiIHAQhAAAIQgAAEIAABCEAAAhCAAAQgAAEIQAACECgeAYwGxWPNnSAAAQhAAAIQgAAEIAABCEAAAhCAAAQgAAEIQAACkSaA0SDSyUPkIAABCEAAAhCAAAQgAAEIQAACEIAABCAAAQhAAALFI4DRoHisuRMEIAABCEAAAhCAAAQgAAEIQAACEIAABCAAAQhAINIEMBpEOnmIHAQgAAEIQAACEIAABCAAAQhAAAIQgAAEIAABCECgeAQwGhSPNXeCAAQgAAEIQAACEIAABCAAAQhAAAIQgAAEIAABCESaAEaDSCcPkYMABCAAAQhAAAIQgAAEIAABCEAAAhCAAAQgAAEIFI8ARoPiseZOEIAABCAAAQhAAAIQgAAEIAABCEAAAhCAAAQgAIFIE8BoEOnkIXIQgAAEIAABCEAAAhCAAAQgAAEIQAACEIAABCAAgeIRwGhQPNbcCQIQgAAEIAABCEAAAhCAAAQgAAEIQAACEIAABCAQaQIYDSKdPEQOAhCAAAQgAAEIQAACEIAABCAAAQhAAAIQgAAEIFA8AgUxGjyfXZagbWpWRLfnoVvIdXMiU2wwQANoAA2gATSABtAAGkADaAANoAE0gAbQABpAA2gADaABNFBQDWA0QGAFFRjGHgxeaAANoAE0gAbQABpAA2gADaABNIAG0AAaQANoAA2ggdLRAEYDjAYYDdAAGkADaAANoAE0gAbQABpAA2gADaABNIAG0AAaQANoAA1YGsBogBAoDNAAGkADaAANoAE0gAbQABpAA2gADaABNIAG0AAaQANoAA1YGsBogBAoDNAAGkADaAANoAE0gAbQABpAA2gADaABNIAG0AAaQANoAA1YGsBogBAoDNAAGkADaAANoAE0gAbQABpAA2gADaABNIAG0AAaQANoAA1YGsBogBAoDNAAGkADaAANoAE0gAbQABpAA2gADaABNIAG0AAaQANoAA1YGsBogBAoDNAAGkADaAANoAE0gAbQABpAA2gADaABNIAG0AAaQANoAA1YGsBogBAoDNAAGkADaAANoAE0gAbQABpAA2gADaABNIAG0AAaQANoAA1YGsBogBAoDNAAGkADaAANoAE0gAbQABpAA2gADaABNIAG0AAaQANoAA1YGsBogBAoDNAAGkADaAANoAE0gAbQABpAA2gADaABNIAG0AAaQANoAA1YGsBogBAoDNAAGkADaAANoAE0gAbQABpAA2gADaABNIAG0AAaQANoAA1YGsBogBAoDNAAGkADaAANoAE0gAbQABpAA2gADaABNIAG0AAaQANoAA1YGsBogBAoDNAAGkADaAANoAE0gAbQABpAA2gADaABNIAG0AAaQANoAA1YGsBogBAoDNAAGkADaAANoAE0gAbQABpAA2gADaABNIAG0AAaQANoAA1YGsBogBAoDNAAGkADaAANoAE0gAbQABpAA2gADaABNIAG0AAaQANoAA1YGsBogBAoDNAAGkADaAANoAE0gAbQABpAA2gADaABNIAG0AAaQANoAA1YGsBogBAoDNBAqAZ6+gbl//q//13+8v6x0HOm4AcbNIAG0EAkNfDtyDM59sk5+a+B+5GMH+8PIV0iWnaQd9CmWT6hB/Rg6oHfuemB/JQbP/RXfH5otvjM0Xl0mGM0iGhjhUwSnUxSqWmhBoP/4//8f+T/rXoTwwHlBB1baAANlJgGtIHTeuyMfPKPfgwHJZZ2lVrviMpzk3eog5taRA/owdQDv3PTA/kpN37or/j80GzxmaPzaDHHaEBDko4gNODTgGMw+E39PuuYzjRgxkG0Cm9epqQHGkADYRpwGjhalus5OtOAGQfoJUwv7E9qg7yTZIEuRNADeiAf5E8D5Kf8sUSXxWGJZovDGT1Hm3NZGA2eTszJ05kUoF+kOU6nsa/TmIybQk9lrhevwcDRQkkYDp5Ny9gTzzaxWER9L8pTvf+L7PTzdGJaxp4VM57Zxc/RAN9wQwPR14C3geOkWWkZDhbl6YMhOX+xX85fHJQbI3MZlONzcuNUs9T+e42s2VAjrx8fkqfe9/Vovxz8Y51s3FAt637bLGdG7PScmZOxJ9QVHa1U6nd55B2RqScjcmOEOkWuOi51PTwdH5ZLVhnaL1cfZFKGRv/9FpimM0Ny6NUaef30eAbviRJ9Ru+7rAT/l3p+Uu0VJE+N9MhbVXVy6AbaDMzfq6j1ctCsxXRmWu7cmShO+Uh9ujici5wvSt9oMNIlr6+tlqoPBmQsEN6EdNZXy5oPBsoyAaNWuBKf0n/hqzsiZ4aBNz3VcBB2zHtu8f8Pyv4N1bJmrX9b9/pxuTpRhLSxy6M19V3yyFMejT0YlKuBjfgB2a9x3tAmlzzXFJ9hERjxjLyL0EBBNaDuiJwZBt4yRA0HYce8567W/7FbXdL4akA5/upe6bwV3vH1qGeXrFtbLeteb5b97+2U2kODbqPBzJAcrNaytk527G+RHa/vktO20eD+qQbr3fH66SI1qsgDBc0DK9Vuqeed+HNPy+kdqvNm+fIZ7/SVakGvK1k9TAzKoddr/PXhjQ1y6Oq0P+9NjMilG8Ut+8LrxCvQrFP3zkdbfxVY5KLRUrq2ZPOTvq+zzVPZvOP7W+L1j1MYvaKm55LWrKHBR2d2WhrbcyFPgwlmJuTG1REZCxi0TX16Be8wI62ilgec+JSN0UA7Cl8PLGzHpfMPGA2cBOe7PDMy6arpane+7zhuj07VEar9cvpgfbwj6c+9vo78vHObmZDzJ9vkaL+3UTYkB6uqJciYMDU3JzfOHJdDPcPuDq4SeIHknR/P7G/MwwQmFaSBsf4WqbIMvzVSu79LzlijZPukc3+DVY6vWVsr+/uDDAfTcubPamhokfMBjRirrLpxRDaurZbazoCG+Wi/HD3YLpfGqSNQrpe4Bh60S409eOKtM966SIk/WwWVhSvPh+PxwXJra+Wtj3rk6oNpGXswJKc/2iU1G9WY1CLnPbNhrx6qlTVrd0rnaLH0kapOvII45NFoUHwWK3he8kGR64XZ56ms8i9GgyKnZ6XluRE5WWsPxNnRk5e+kLGeXZYRYv/VAJbUp8tSz2VlNNDG5EHf1K40RoOZOblzI965ePWhbX0LmdarbpCcl8DThzptfkjuuFyfONPph+ROOlcjz0bkqtUYHpL7nsqbcw++AwoiKkoJDaIPrz5so4FvpNGcfPmeviwbpNNxRWHqyCgDLt2ZSO3qbG5RHt0ZtIwRoec+mw4Iw47bH7rkvnlv5/eLuRQujZxypV/OXx2WR6HlxaI8dcqjmUW57y3XnHvxTR5CA2ggihqY6JM9Oltsw045+cA/GmrsVru8bh1vli99M8fsut7alvAZWykb5upaLlnH871fE3W2fgkt+5XpjPmOoMPWxzGKuiuzOF1t0w7gWtmoAxVq2+VOuud7MZ5ojyTaLiNDITMjRaZe6AhD223YuD+fkubeummR/4/GZ+BvbIuvZ+NKjyfBMwoufZCijuzox6grZ95edsrDIXnkMuamqRM79wz7TpTHdhs6ndEgi7hnxsJ5Ln0fUM67NBaWZqW8fwV5ymKSqe5S1k1Eprx6nxMZuzcs9115SsuZgHagjgY32asb36B2ZNh+81p+l2bb4Vp8wMzGKq0b1MvJB2neSYl3fL+cvzES0Kch4swm2N8fFFaa+rQRfkq3eaZ7ecfVnvaD+HTvxMEsl9P15zjX8J1p+V02RoOmzq54Y7K6RS65GpPhRoOxa8elVkddGO5Mqt5tl4PWtF6Pq5Bbx63Rbzs6++XkDveUT2uGQ8C0tcCZDzPTcukjZ8Scc+8aeatj2F2oUzCXZsFMuq1iuoUZDcJfbo++apFXPC6N1lXtkpNBLjAmBuXgdifP2t861fua2dEUd5G07mCysXbpoOcanysi24VagEujqdE+afK66dhQIzsCyouxL/fKOjWcfum/5pWDYe7beFlm+rLkPLSCBgqrgTsd9Wmn6Aedc+MjbQj5y9nGL+3OnCe90ugp563zq4/LDeedfbXNmsngGzUVWGerljXVe5PrIThhPOjxuVVa92qLfFm00buFTR/0XwJ8n/Vbhrd1Tf1y1cpPtXLwWli85+RGx057Bo+Tf2qk9qMeOaQztH2DHBblzpm9vjrTK+/3pWjEh92b/QXLT3YH+jrfAJoA5na55y0/veXgitrLZwal02gvv9UVd3+Uvk4cEE+njNWZuV7NbqiTxkMtUqvvgIBnzjjuGbKYopxfxXZeKm0U8Fg2ecrWasa60/NDjQZzctXXZ1QrjSePyFvqitFoa2p5kmgHXh6Q/Ym2Y43xDgib4WO79/1zL31RibKmgHoq6j0W5csm213hjfgsxECDshWn4Hf8mg31cuiGPUDANqB53xku155h9emg8lt1/NugevKwHFJ3on/+RM57y/yNO6XzoSd9Muqj8VxT1HQo/XuXjdFALV0Jf7b1XYb1NcRoMN4rO7QRubFBDl4csRZPvdPfLo0qUKvx6RmtZhfoeqz2YHy6Z/L8eqndXiO1bX1yY2Ra7vQfjxsw1vr9id45Hm8U1x6Mnzv2YEBOvhtv8LKAU+lnqII1AijYMqikhhkN7BemZ6aB4wZj3at75WS/lgETcuPLI3FD4gb/Cyk+ZblBTt6LvzifPuyX/WpEcE3188dh7EGfHD24K+4uoGqnNB1sk6NfmiM/7DLK20CfGJD9tv/txo4BufNkWu7f6ZODtp9ar1HSsfrrCMPk+T2yxyrTQmZZoKsMdEW5RLmGBgqvAdt4ms5FhjOi1GjcPr3XK4cONsvrOrJ6bb3sONgm+w+2y/lEZ/20XDrZJvsb4/WvjfXNsv9gmxw6YwzWsOt43lFT8XJf10k4ImfuTBjviVo5dMvQhTNLotp8n7RJrdYzq9vkEr7lKWuL8L6N+y22DQXjPfGOpab+QNeHiTbT9jZD27ZmtR3kqZOMfdVsGRh0cNUldXkzMixnbPePVQc964cU4VkLXyYZ+buknsdxRWG3S1PNBpkYkTMn22THb7XsrJXX32+T/Sf75I45+G6F7eV19mL0959My50bQ4l2efo6cTj3hGZfPyLnVYM6c6Jjr+3SLsBokE3cM2FBOV+h5XgWeUrLimx0p+eHGA2y1bvTDly3oU72aDtT27U3TL/zYTN8wvaH50XK3xJhY9cD4oaC1OsdJfSW6BfRPs12aXy1RhKDcGYm5NKp49JUH++7rGlsk/0fdsmlRH07qWdvffr+qfgghWR9Ol5+W4M3fYO+bU2qUSFRRxmRSx/aYXgMxJn10ZRImkW0vlFWRgP1DX7pA7sDPrG+QbDRIC6uAHdGDz+xFlZWv7iuRUntAn3de30uK6xTQHutdvc7441T12iNJ72yY221bPxgwFOBtzNx1RG5GjrlBqHzgkIDqTVgv2A8axqcsRsU61xrGtgVwKoWOW82jrSgvhe3xOtIvadGwR2fsuzxlz2z6Jm2Z8fB8zJLrLfgaYTHnyfYaBAfUVsrTZfNmQzq/mJYjqpvQs8ih05ZVHN82FWpf/pVs2UI3fMVbgRS64f8BR80sHoaGJeT1kwuT93LKIPjcQtr3NrlqLfuZl4f0jC3wg0yGth1tjV/+CTR4RXGx2mw+Fzg2dPC8S1P3grTTv722/WahEsiZ8DETjntW6vDHnEaYNAau9xirf3hNhrY5wfUYeLukILuQZrnL22zZPmw1z3raUONaOfO6RvBrnRSueRZaXvZPaDGG/+wctx7nvnf0ay/rXy/M76QvXemQdZxnxNJzyJgEA7lvKvdsWq6N9/3+f6dRZ7KWneBdZPs9e60A719Usn0CMt3YfvN/MfvJMfSYRHvS0i6JHp6IW7899dJbb0F9YsE5CVHa17DgMUoqD5tz4IMqk87AxJqOkaMcsTWpPZ1uPpphuVoTbWsqXG7Xsysj6Z00i2KWiszo4F2qCUXq4kvlhdkNLD3bf8kwL94cjG9IKOBd3SvYx1uuuwRYlCGsfe98mcdBefe4qM86uToPU84ARk1ikIiTqTb6mvAfsEEuKlY92qb222ZPVp146Eh4wXlpKFdPmxwuyhLWuB3ycFT/XIjcPSWHYecjQZ2HNSQGFAGJF7WxgJEiX1e/4KBlVHnWflefd2SBqQBGpias8u8VJ3+VlkY1rjN4PpUZWGKOtuOnuCOtqRu7Xv/twbZ46nb7X9/Z7wD9r0+lxE6eS1pD4s8aSCo49Le526Mi0zZdaBXPIMM4mlhN8pNA4FTZ3o9PkvHbMM4Iw4ZmJCndAyo860oj1jrq/RL54ctsqO2JuGGKshdZXhHuV225aO97HqusHI8BUNbg4EL2TsGXlfdewVxT2k0oJxfkQ5d6Z4ifUvhvIzy1Ap0F1Q3yVrv4a54k+kWlu/C9pd4epWCpgoZx5lBOagzcE2PCM6+xOACO42dd3xgv4hfB6F9Dvo82danZwZkv87KdblpDtOknb88bYXM+mj8z5HMGxxLx6L8jAYq1of2+gYbdsmZcVtcroqEPRrHrBAbmdaxVmVjNPBZ2gIyjFr31L3Run+vk1dqgrZmOeMbDYSI04mY42gkrgH7BeOZaRC4aOWD+GwCnxHQLgcCy4C5Rbl/8bjs+G1yTZN1v22WMy6/enYcXOWNpk/Yy0+P2WWUqzxKXUYFvZBDX+BBlVGjvCP/kH/QABpYfQ0s2gvWpxk8ca9dXlHDsK8TPrgh4XquVGVhijqbr37nKz9H5Ki699hQE1K3q5Pa40EGanTnSh8fV/hkzseZVWC7mEkYrxzXiJ7R2SnrQAF1EmcGZlVQ20X3NcjRG6RX5um1CqxG+kLdVYYbDVLXRQPryqnK2UQeT1UnDmGTUrNBde8VxD2l0YByPtL6TmgrRD+FOB6Yp1agu6A8k7XeMRqgT7f2nVkFjktOx9jvuKNzrXeUUm/ucJVzaJ+D5rOs69MBdY7QfpOwun4mfTT+50AzmTMpT6OBLgbT32L5OFxX3yJNOuXd1Yln+84NdAcUIsagAj0kY1gCDMgwU/bCIP4pQZknGOKGFRoI00BQoyHkXHshn+CF4uxRdiGj/C3+z3T9A9v3r8taHxaHVA2koJelXUZtaJFLAS7L7hyvs/zPHjQa6aEv8LCyqxAVaMIMmLkSokFYwQoNuDQw1rPLGljhd+Ho5KE5Of9+3AXlngted2shdTeTcaqyMEWdLcy4nHwXp6pTOnHnO8kLFnlnYfst9i5OaP535Rm7DhToxsIZiWgOZEh1vpnH+O0q0/KezjnyDasnhhsNUpVtIWVuqnI2Ef9UdeKQ8sHRYNBIWHuUbM5t/ZRGg1QsQuKceF6ORy0v5Cs+/jyVSidZ5BlH722D/jIlUO9pOnItLYblu7D96DZfOil+OLbr8wDvC069wOWG2dZbcL+IXwd+3RvnZFufftYnezSexlpl4YMtQ/KQWdaG9tEYcTTP57e/jAlgUrZGA82czqLDVuZwGQ1E4j6+qsXbGEz48vRMe3GsZt7znf2+kWhBGcbx5+Vb7EOnCg/JpQce3+UBCVb8QocMBvNS0YBd6fHk9eD0cxYD8i94PHYx7s+3ymyYzIzLlx8elzMP3B1V8XLE9MEdFodUFTL7BWg20OdE4gsa+suoqSf90qTTDavdIwdDX+AZNeBKJY2JZ7Ce4QKXMtDAzJActBZur5G3Tpm+TfXZFuVOZ3wBtDVqqPUZUzNoSKQqC1PV2QJ8vD6dmHOtZxNWp5yamZY7V4fkkS++ZZBe1FEzamgVo2zy+i123dNpe5guCubs0bAb/HUgZ7FC95oG4edP6WK0tyYiw8L17BWo0adXj8grVTvl5C2vWzXH6OqfzRVuNMhje9mVFqnqxGFlY5gGk+sZuo0GK4h7SqNBeHiU82FpVh77s81TYfWB7PqYwvXuDJ7w6j20HZjIe8agOLNOYruxc5f55ZF2Ffs+sGcO+FwTWlpwZiaaaxHZelvbICddHhREpp5Nu+q7yjSl1oLq085gBF8f6KLc6YivSeN2BRr2jgio62fcR4Omc8kPZW00SK5v4J1poBlgUPbbjdPa99rl9MU+6dzfkPD5GLYQck5GA81kXXajd2OD7DnZI+cv9sjR9+L3Xfe+e+HVXBKWaykYKk8DYR32IVpIuDGrkx1tXXLGyItrvC81p7zYUCeNHf1yY2Ra7vS3S2N1tbgXWA6Lg/2S21Avjeo24PSQ4d862Ghgll+6Dkrnl/1y+mSz1G6stmYZxNdsST5b6As8VUdZoiKZDKfydMOzk+ZoIDIaeNglb1llnLpy3GmvEdAsb/277Raueq/HJZyTdgENCW/5lqosDGrkaJ3tdHidrfFLY6DHs0E5+KqWzdXilNdnTrXJDmtfvb8R5o0b/+l0XqkGnMa4yyjg5Iv4d3yx4uRiiFZ+v3HEmpG9ZkOd7Pgo3h459Oc6WbehVqp0YIJnIIPVcaZ+h/V8q87UJ51tu+QV3Rfo894dh8iUMSvlXCrX3WmXWk2TtdWSdEvRknCtqaNLxzzP4tQfa/foentdcvWZkXZO/XdtjeTUXnbdM1Wd2Li36xqRp1fb4pp12tBfdknT60mXod5O1Kzb+kZnWBgLyvnw9CnbPJ5tnspTnslW704+9g1kNfJRfJHmaln3eovdrtybKC+8ZX7ZpqfBo1yfMf7ON40CnnwbsN5RQm8B7/iqj4bddbT+FqvPtOqPLbL/4HH5csQIP6Q+7XiBWWOU3we1zqGu2+u75L5pyMrGPZGT39L20RhxrAAN5FvbpW80eNIrjRtq5dCtECFMDFjGAZ/YVSwTw9K5Jy5WazbCxjrZc2ZIzh+slXXbP5E7pqB0KtiGGmm66B5pPHXruFStDbh/2H4dQXz5iLyuFXJnytCGGnm9rd+TWUKex4wTv90FGDwqnMewHKqultpO7wjVFHlppF8O1icXiFuztkZq3uuSG08Crhntl4N/rDUMi9ogOy5XJ8xz43EIKm/Grh23832N1BwaNIwG03Lm3WpZ926vryE3NTMh59saZKPdANQyQ9dR6PSNILMbUxs8nQKaJx58IrUbamX/VU/ZRX6p8Pxi6pbf+a5cEV4OmnoyJKf3u8s9XS/g9f09csNV3pr3WJRLQXU3s5wLq8fpOVnW2Wre6/HPdtA65XtGnTJFeY0+zLTjd056sNwKpHnHW9qvFpeLInXleqtLGm1jl1W/eHWvdN4als4/+I0GGkc9f4+xrlPKOpOZ9/hd3PrGaL8canSXRVYZ2tYfPOtpYlAO2XXhdb89IpdMo4GmXT7ayx4NhNeJU5cHPs3q2mK34m39wPp/NnG3njUDFpTzxdWzRzs5lZcrDSvrPJVFH1OKdlqQ3k/f6rf6trx6tzp9g9qB5jPPjMsZT99X01c90qR9Uq6FaFPnw1VJA/M5+J0iD8ZdZFUdNPsavOk5Lp311eJyURTyjq/643G55O0XUR3Z5eC6ql1y2jQapKhP++oQoX2gdvx8A6oX5fz7NXEjg6mBjPpovAz4n00+Ln2jgSmYlf5+MSdjT4wRYysNJ9vrnk1b933qsqwh4GwEzLn510tP36D818D9wJeR7j/2ybnAYyWdFlYZ4J9+F/hMM4sy9mRaxl7kn33g/bRcce75jI7/UEbZlr+cX375mDS10rR8yvBFeapl7WrUzwK09HQiw7hQXpds2VI+eSfL+om2Rybs+sVEnzRqB5JvsXEjzGzqTAF5qVTe46WvhzyXoavVXg7QkFUeZ1MnznfcKeezLudLPz9pGZhlnsqT7rLWe0CecZW7dh+Utc92ZbPuYMD6CenCKfPj5aFZ492daXoVuo+yUOE75XIx+2gyZVri52E0KPEEdL0AeJasKzDw879Irg39IK3HzvgMB/ri1P3fjjyDM3kNDaABNBBRDVCG+99rvOthkokGKirvzAzLyT/ulKZTcZeL1mCIB/2yf7vjApFBChWlh4i+zzLJt5xTGuU7+Wn10+npjS7Z/2GXXHqggyCmZcwo8w/eWP34RS0vo1k0ETVNrlZ8MBpQSaLjBw34NOB9SWIw4KW5Wi8p7ov20ED2GqAMz54ZOoOZaqBi8o4aDUx/8AmXqXXSeCYLN49lXoeuGD2UeTpSvkejfCc/rW463Omsd7nZtVxlqy/4nnFfXwB5Jp5WaHZ1NYsOo8EfowGVJF4SaCBQA85L8pN/9DPDAI0EaoQXeTRe5KQD6RCkAcpwdBGkC/al10Ul5Z2n48Ny6WKfnPmyX85fHZZHTOv31XcqSQ+UD+nLBxjlxoj8lBu/XPX39OGQnL/YL2e+7JPzF4fkPmW+r8z3Mkazq6tZb3rwv/jpgdGAzsC0BSUZs/gZMyrM9SWpaxjgkqhyNRAVLRIPNIgGstcAZXj2zNAZzFQD5B10YJYF6AE9mHrgd256ID/lxg/9FZ8fmi0+c3QeHeYYDTAaYDRAA2gADaABNIAG0AAaQANoAA2gATSABtAAGkADaAANoAE0YGkAowFCoDBAA2gADaABNIAG0AAaQANoAA2gATSABtAAGkADaAANoAE0YGkAowFCoDBAA2gADaABNIAG0AAaQANoAA2gATSABtAAGkADaAANoAE0YGkAowFCoDBAA2gADaABNIAG0AAaQANoAA2gATSABtAAGkADaAANoAE0YGkAowFCoDBAA2gAkIIN5QAAIABJREFUDaABNIAG0AAaQANoAA2gATSABtAAGkADaAANoAE0YGkAowFCoDBAA2gADaABNIAG0AAaQANoAA2gATSABtAAGkADaAANoAE0YGkAowFCoDBAA2gADaABNIAG0AAaQANoAA2gATSABtAAGkADaAANoAE0YGkAowFCoDBAA2gADaABNIAG0AAaQANoAA2gATSABtAAGkADaAANoAE0YGkAowFCoDBAA2gADaABNIAG0AAaQANoAA2gATSABtAAGkADaAANoAE0YGkAowFCoDBAA2gADaABNIAG0AAaQANoAA2gATSABtAAGkADaAANoAE0YGkAowFCoDBAA2gADaABNIAG0AAaQANoAA2gATSABtAAGkADaAANoAE0YGkAowFCoDBAA2gADaABNIAG0AAaQANoAA2gATSABtAAGkADaAANoAE0YGkAowFCoDBAA2gADaABNIAG0AAaQANoAA2gATSABtAAGkADaAANoAE0YGmgIEaD5eVlCdpkWUS35dAt5DrhAwEIQAACEIAABCAAAQhAAAIQgAAEIAABCEAAAhCAQKEJYDQoNGHChwAEIAABCEAAAhCAAAQgAAEIQAACEIAABCAAAQiUCAGMBiWSUEQTAhCAAAQgAAEIQAACEIAABCAAAQhAAAIQgAAEIFBoAhgNCk2Y8CEAAQhAAAIQgAAEIAABCEAAAhCAAAQgAAEIQAACJUIAo0GJJBTRhAAEIAABCEAAAhCAAAQgAAEIQAACEIAABCAAAQgUmgBGg0ITJnwIQAACEIAABCAAAQhAAAIQgAAEIAABCEAAAhCAQIkQwGhQIglFNCEAAQhAAAIQgAAEIAABCEAAAhCAAAQgAAEIQAAChSaA0aDQhAkfAhCAAAQgAAEIQAACEIAABCAAAQhAAAIQgAAEIFAiBDAalEhCEU0IQAACEIAABCAAAQhAAAIQgAAEIAABCEAAAhCAQKEJYDQoNGHChwAEIAABCEAAAhCAAAQgAAEIQAACEIAABCAAAQiUCAGMBiWSUEQTAhCAAAQgAAEIQAACEIAABCAAAQhAAAIQgAAEIFBoAhgNCk2Y8CEAAQhAAAIQgAAEIAABCEAAAhCAAAQgAAEIQAACJUIAo0GJJBTRhAAEIAABCEAAAhCAAAQgAAEIQAACEIAABCAAAQgUmgBGg0ITJnwIQAACEIAABCAAAQhAAAIQgAAEIAABCEAAAhCAQIkQwGhQIglFNCEAAQhAAAIQgAAEIAABCEAAAhCAAAQgAAEI5Erg/v3v5PyFr+Xzrn9am/7WfXwg4BDAaOCQ4BsCEIAABCAAAQhAAAIQgAAEIAABCEAAAhCAQBkS+ObaLdm7r1U2/NtvZc3a6sBNj+k5ei6fyiaA0aCy05+nhwAEIAABCEAAAhCAAAQgAAEIQAACEIAABMqUgM4g+NM7+xJGAjUMNL7bLB8d7ZRPT/dYm/7WfaZBQa9h9kGZiiKDx8JokAEkToEABCAAAQhAAAIQgAAEIAABCEAAAhCAAAQgUEoE1P2QM6vgjT/8Rc6d/1qWl5dDH0GP6Tl6rnOdhsGn8ghgNKi8NOeJIQABCEAAAhCAAAQgAAEIQAACEIAABCAAgTImcPLvpxMd/zqjINuPXuMYDjQsPpVFAKNBZaU3TwsBCEAAAhCAAAQgAAEIQAACEIAABCAAAQiUMQFnhoG6G7p+/faKn1SvdVwWMeNgxRhL8kKMBiWZbEQaAhCAAAQgAAEIQAACEIAABCAAAQhAAAIQgICbgK5D4MwQyMVg4ISqYTjhscaBQ6X8vzEalH8a84QQgAAEIAABCEAAAhCAAAQgAIGIEJiWC4275OxUoaJT6PALFW/CjS6BEene94mMRjeCxAwCLgLOoscrcUnkCsj447gq0rD5VAaB8jIaLE3Lw5v9crazTTp6+2Xwu2kjFSek++1dcmHG2FXEn1Nf7JTW6znecGlCHj6YSBvI7A8jMrWU9rT8nDDZJW829spsPkLTsN7ukkTd8WabrD80mI+QCaMiCCzKk3v9MnDFs90bkcVi5YdV4jx4qEZab6a4+dK0jN70cLmiZeRE2bNJQYVDEIBA5AgsytR3g3Kh+7i0dvbIwL3x4pZRMyMy6H2HWP8HZTQvFZ3IASdC5UAgNi2zMwFbbDH46ZYmZLC7RQ6cHQ8+zt7SJ7A0IXf7uuTYsS65EFqOar25T7qPHZfuviF5ElZXdoUV1g5dlMUfhmTgyqA8nArRnZfq0BHZ3NibbPfp8ZkRufvDnPdMkYzi4Lksm/DtS2dH+uTYvnYZjHnC4i8EFsfl7pXj0rC2QQ73pdf57A/DRp5alMWgMlr3zXryi9ZDetutOtDgiNmXlSYJUpbr+czraeLB4cgQ+ObaLWtWgC5knO+Psziy3oNP+RMoE6PBooz27pUtVXXS2NIuZ7WB19suB3bVyaate+XCj5qQ49Jd3yDd1u/iJ+yT7obcjQY/dsmba+ulYyRF/Kd6pXFDEZ9T41TfJU9SRCnjQ96wrrfImtaBjC/nxEonMCCta+ul8VCbtJrbvgbZVLVTuh8Xhs/ilRbZ9E6Pu9FTmFuFhjrYWp26fNG8VbVTDphcDrVJ045aWb+xQY4NmQ20Efm0rkYOD4XeLs8HxuXyuSHxVJnzfA+CgwAEIk9gaVy636mRTW+3SHdfvwz0dclhpx5XoPLby0Trapvebna/Q6xy87hcLlIcvHEK/B/rlwNVO+XsZOBRdlYYgSdfH/dotlm2/3/VsqVj2E9isk8ObK2R7Yf6ZHSVBlL5I8WefBKYHToi26sa5EB3nwxc6ZFjjXWy/u0uowNTROzydvOONunu65Puwztl88aAuvLjLmnYWCsNh7vkgpbJWm98xxPW7LB8+k6tbNvVYumw6Y0a2f7RYJoBZdNy9p1aOXzPefJFeXLliGzfWO1v+2USByeYxHcW4VvXzMnDUztl/St75dPrYYaRROD8qDACs9fb4v1MJ1qkYe0uae1sljeramT7iRCdP+6SNzeYbbMRueBpg1lt1cY6WWMMvrTus7Fe9uigid522VNXI1sODaTJSyKSqlzPZ16vsHQv9cfdu6/VMhqcO/914KPcvHVX9v+Pw4HHdKcueKznBH00THVTpPfgU/4EysJo8KR7p2z5a4+MBo2Q+HHYHh1WJkaDDdWy/rX24GcVnYZZI+sxGpR/zuUJAwio0aBFguamzF5vkc2abwKuynnX1LAMZDADKOf7pAggI6NBmHHvh0/kTVdDcVGe3CzmqNoBaQ2LW4pn5hAEIFBeBGbP7ZJNB/p9jePZm+3ScSWL0XY5YFGjwZvdpTD6eloeXhkq3qzSHJhyafEJWO2i1oCOptkBaX2lVpou0Sla/FQp0h1nemXP1hYZdM2MmpPL+6ql8VyyHLUMpJ7ydvabFtnkqo9p27lWDnxjDiyZk4EDta5y8uGJWnnzM6PcXJqQs4010vR1iuEg5iyApXG58F6dbHrjuAye8w4YyywOProZhx+/UvPM+rfb5aGLmy9UdlQkgSE5XNUgn1oDB4y25tKInD3c429baif92/Wy7TXTaBAEblEuNxv5JDYgrYn72Ocvjcun9bXSej1FXkpTruczrwc9BfuiS0AXLdZteXk5MJJqFNCO/1e3vuk7/t8b3rOOhRkVNEwnfN/F7Cg7AqVvNPihXba9ckTuBhkMXMllGA1sN0YDoW5L4m5OLvT1ycDN4XijbGlOXLPHYnPxKfNWWH1y4cpIsqFruwKxrr8Xr5hrge1zT7Rk3Cd06qjxENZI/E/kcke9bAsYPfTki52y5VCXdATNqHDFyZ7uv2g/g95iaVFm7WnMi4+HZKCvTwaNEWyzI4PWvgtXhuSJ+d4yZwdMDVvT+gOnlVr3iLtIiXMJiIMZlp7PTAMj8fmZnoBRkfOdrMd2SrehaesU1Wyf5t8U00yt6ah9cqHPcHlm5p3YuMcVWvzmTj4KC3tx1m6EGeHf/dHMXMZD/BjPk8mwFmXRKJByMhqIyOylZlnf3J8Y7a/uQZ44U7PTlA2SCUO7zLXyvlmGWC4V+qSprl0eBk3RNdi43c3ZbBLlsu3SpK8fFyKGbPgJgVIioOXYgW8yjHGaMlF8ZYPW50ZkNk1dMSOjQar6nxj1ukzrj/puCXNBYJSBifqohUiNu8PuGW7qvuOK513lwhkvJ7V+d+FKv9x9HPC+Me4XWOa6wuNPFAlo5+cm70hwK6LacVzj6uyNYvyJU64EFmUxwC3V4qVmYwT/sHT8pl4+/cF7rxH59LW65Iz2kXbZEjTgRtvev3EG4hjtayM4q6Pyo7Apq95ZANPy0G4v+9p+GcXBuLH1M4vw9fwR7UvwGlq8YfK/Yglo/0TdJ7ZXhVRtTSU0J4OtdVY5O5BuFvhUjzQY+UvzqNkWc3gvft0s6/f1Jdpozv74d7pyPZ953X1n/kWbgLMAcuO7zaER/fHHSXGMA6bhwNmn36k+GrYaHVgQORWl8jhW8kaDux/VSkNvcuREeLLEKzXHeo9Lwxu74m469jXIem8lwZpiWSNbGo9bbo4udLfI9t81y+WzLa6KttVJd2lADu9olk/7+uVs70C88eZMD2vpshplZ0/skm2NXTLwmcdooFZhnR5sndcjHepCZWubZ2SI52mcTvWlYel4zeOmSI/p9bGAyltQnN5plwsnjDjp9W93yeAXu6ThcI8M9PXI5RFtUC7K4OE62fZeu/U8A8pva70cu2c3Nq04HZezJ3bKdmNa6mbvCKdM42COcMFo4BEAf1MTSFGRW+qXAxtaZNDoMFIj26atu+RYb79c6G6Txq010vCFMVJKO9Ot6agN0qTTRK/0SXdLg2z7a698esAYPeLVqT1iarPjYqP3uDT+rtYzhdUuj7qPSMMunRqucWiR7Rt1NIl7RJdOl3biqe46DrxRJ02XeuSAkVdyNRpIrE+a1rbIgMXHU4aElg0iGTEcOi7b1XXcCWVoP2dVvLE6ek5dSe2SbY7rpGP9CVdnT87tlW0vG9Prd9XJ5jeOy11zFNj1Fll/qE8GD++UplN9MtDbI4OJRVFSq4WjEIBAtAjoTAOfCw1fFOMuJNKVidrxtP7AJ9K9a6ddfoe46PCEn4nRILT+l0X98cBnXdK4o9laf0vrVfr+8c5w0DJwS8LFSL9ofXJLVYsMWAZdz/vuxx5peLlBDvfq2jV90n2gXrb8tTdRnsrsoBx7I1m3jb9LamT7Z0l/lxmVuR5e/I0WgfisyuNy1zH6m9HTjl6r3mD71g7oWDZP53d5ERjtiHdkWk+la8hVHZEgpxParn7zi/iAN12Pb1Ngx7+OvHYG4uho6VqfS0u9nzmzwUXTnAXgOuAfMJZZHDyBZBG+tnM1/tZI7sU5mZ0xBtR5guVvpRJQvTvtM8+714NEB2FttmfwpGub3T3s7sMaPOSeDZQIekZdT7cFzqSXdOV6XvN6Ikb8KAEC5y/E3Qd9dLQzZWy9hoNMDQYaqIatRgO9F5/yJlDiRgPt3Kq3p4ulSyg9t1q8ndlPPmswKkSLMtjqnnJphTrZI3s2VrsadPoi2FR3xNPJr+6B6jydfiLy4Lhsd/m1Cz5PK/tbvAtCmY9lddDb6wfoqIiEmyKdBlcnrTe1I9/T4Wf9d150ycAsf5dmnDTsqlrZ45uWPyCtidEk9vWzIzLqjNjW69Z6wren0iX9VGqcPOdoh6z63PTGwegI9Y02SUafXxAIIBBWkZuThycaZLPZ8Ll3RLYE+Xd9uy7pX1XXB9naIgMen79Wo3xtuNHAanCdGE7OPNKY6lTtXTVGAypeHr15KtlhYz3Q0BHZZPi2XFS3Sr54TsjZv9bIeiOvpKuYill2BJBzlxueMiSsbMiUocv1kX1zc6aGBLgnundENtcf900Tn+rdJevNMlINNlX1cthlaAl8QHZCAAJRJ2AbXNdbHeUDMhrQqZlpmWjVH7SD3VV+e0ef+oGo0WBLS9zAqUZOZzNngQXX/7KsP2qngmHEFh1xaHbiaRnoHdSi0Y05RmX3+07j3XTJPXNgasSZARt3Xek1SugM00XnkkzLXD8y9kSGwLB8Wl8nW35TJ5s3VsuW93pdPuytQVaH2mXPa/FztrxcI1veC3HtGplnIiJ5ITDbLwde2SUXnEEVOnrfqEOa9zBnCLgMDeZJdtsy0c5T/+1b90r3vQlrQe7RK22y/Y12eWiWcYnr423CxLWJ/fYPz0CcjOOQCCe78EU7ZF9plmOHG2TL1nje2FTVIMduZjIgMXFTfpQ5gVkdALWxRrbt2inbEoOsPA9t5YPkjJWUbbNYvzRtbJbLCQPvouVCzOeVwrqFvu93yQVXfSZ+77Tler7zuueR+RtdAp93/dPq0P/0dE/aSJqGAzUCpJth4ASoYev5ei8+5U2gDIwGmS76q5WIAAPD409k+9td8VkCOtpWG20BlRxvpUVfBL4ZDmrtDVwQ1fMi0AI88Lxx+bQu+KVgydDT8TdquymKuyUatKeteTr8Qu/liZPVMRj07ENy+JWd8ukPTsvSkyH0usSUveSxJ5/VJ0aq6LTP4OcNiINZifVUHJOh8wsCQQS0UlUjm39jN4id76pqebPD7MRX3flHRVkhqj9X27igDSdfHrdO8ujW1OnSgLRudM9oSMQ0MRpE93jyaeIksyMoRTw9lcCUFVMN21N2JG6X+GHGx/xtX+srF1PEzcPQ11GVuKfzw280GGyt8btzs07XqfNGma/sA8tSJ2y+IQCBUiOw+HhAult0Uc5qa1Hksw+cjvIU5Y6nTAwbdKDleqoyyeowC1gI+djXyVlogfW/LOuP/o4Bd7kbXgY6qWm+K0R0lsbmVo8hwjk1bfkvEn4/T5nrhMl3tAksTctAa61sPuS0DdRFRbVsauwy1kRblNHP1K2pc060H4nYrZSAfw0Cq3w021tG0FoGrmkdsPZoWRdcXmp5ZQyeWRqR7sZaWf9ygzTu2ilbqmql8TOz3p28gWX4NQd/JA/Ff5l1atGyKcM42OFkG77ltmltvRw2jQQz/dK6dad0/+iNHP8rmoC6Wu1rkW1rq2XNRp1B3Z9cVyg2KK2vOOsexCmlaptN9e6UTYfNVfg8ecoFWt/3RtsncSyDcl3zUz7zeuLe/Ig6gWyMBvosf6jfZRkA1AhguipK9ZwYDVLRKa9jJW400NFTtcmRwSnTxt0gS5xqNqbM34kT7B/XA9wTXfec5KnomEe1EpZoJOq0+SpPx6bTwfmbZrkcYEm2wvLGb0k79KtlveWWyLmb5zkzjZM3bCc4nRHwoEv2bK2RTW83y7HugfA1DYxrXA3zlcYhxXXGrfgJAZuAVqqa5YL6xje3H/qltc6ZiaOnah4JMC7YeXB757AVXqrKnhrFzPzsNLBSd86bnTyefJpIw0zO0ZPdHe2p4moFnSJ/x2+tFU+nQuqJW+C1uTNMPLLnWcINKvErXM9KGZHEyC8IlBsBXfdJR6xucNwxesom1/O6y8RcjAbBnWTJm7nKIGd3YDlpH8yk/ugyJKd6TueG5rsiPptt4HCDrNeOjJZ2ufCdMUo2bTmZ+n6Bz+tEg+/oElC3jIkRsaqXnXLWGWnuxHppUA5XpRis5JzHd4kSUP/qtb5Z9qnqqtp+224vauxqy7kIaJnhDMSzfaobrs7EMlrVyZsel5/x+p1TnrsCTP7xlFeZxcG5PB6vDs8kXueo9R0QvrvzNn621alrzlB2BcKfyiUQf/cOTA1J919rrbUGZq11DGpl0652uWzMUOx4p1oaOvpl4Oa4Zz0CNcb71xQJf9fa9/QNas2gXE9RN8k+r1duqpfik2fqnkifzXFJpIYD53cmhgPcE5WiMlYW5xI3GoiMnqqXLSfinXypEYQ0iszC1PztDeybHI0Gnk7G9YdM67L3ZiH/g+L3uE8uOOsLWJd5ntNTOTJDdnV8BoVtnqyrG0wNy4D6Xa+qk8OWK6TwEcyuSt5K45DiOk/U+AuBeEf62pZgn4/q9iexiJTmEccXazi48MqbiM48ytpoYK2r4Pik9OTTRDTiFcN46RB2jnYQ9ed3TQOXawzPfQPLhtwZJh45S6PBgK4ncdO+mjIiiZFfEChTAtp5E68zecom83k9ZWKkjAaZ1B9zNRo4LJbmZPRefP2GTe/0xNc0SFtOpuCqb1azzHXuw3cJENDZy85gALNuYUY9ddqbZ/K79AjootiB68S41rFyP5fmd8fVmTUK/0C/+wT9ZxmkbNcqGlaQv3VzJr8dgjULYF+f232nN3RPeZVRHHII39VeNePiiYd5iN+VTMAoSy2jq7Yn52T0ZtKdoePWMGk0cFwFxrlZCxs393sMCfG2pWOwcxHWvOR1FW2dYMTFdYFRruczr7vuwZ+oE8hkIWR9BsdI4LgkMl0VpTMcsBBy1FWQv/iVvNFALD+NO6X7cTooRgFqnurqEIsv7OQbiWMtkuSeHhnYoah+EX1uPPRmalE2pnGGnmdGLOC3K64Bx61dnucMvZcnThmFbd/zwXHZYk9dDRut4qqErTQOVNjCEpn9gQTCKk9+45blAzLNAurq7iFo9JFYC5Eb+dmlU81XAaP51Oim6xMkKomefJp4HvczhMXTqnAa000Dy6NEmP7nNw/pb73PtsT6Cp64hZQNYXEzww5laJ7kMxrEjcGBrqFiA9L6iuED1MXeFSh/IACBkiIwJ6Mj8cU3fdH+piXhLiOs3PGWiUU3GkiO9UeX0SBeJgeWgQk47ndFYnfix5xc+KvdYRxaB0ucbA3ACbyft8xNXsKvqBNwDQYIqZsw0yDqqbji+KnrWl177+5sUBA6U79amr72uJ5VP+sbjJknWnZsMOpcdlBWeeusv2UZDQLccvqMBlq3TDPLQMP31usyiYMVr5WFr8+y2eUmJv6QzDSwE5svkckRGU3kI/Pdaxpm/aCC22b22kpD/vPl3hHZpOtVeg7pAFnHda77UCbleh7zuvvm/CsBAhv+7bei2/LycmBs9/+Pw5ZLIsdg4JxkGg5O/v20s9v1rWE64bsO8KcsCZS+0cByn9Mub26sl9Yr47JoTt1aHJeBEy1y1pqm6OkIc5LT0yE2dW6XrH/7E8Pnp8jUpWZpeK3e5dcx+EUQb+i5/crOycOOvdKgCxUb7oy04bu5uc+1SJn88Im8+bt2eejEzfvtiav3cPy//zmte7l83Wqcdsr214w4hYQ9e2mvbPHEc/abFtnmTNkMuc5lNLA7Jf1c0sTBW3EMfmD2QsAmYFbkPFC8nSa6yPHGndLxwHDhYE+n3nPJ9p+9FF9gvKnP6MiyzmmQza+EGQ1ErAXN326Xh6absR/7pEn9oyaMm/58Go+x5xnseLrWFJnsk6Z36mVbPowGi+MyeGynrN96RAYTi3F54haSxyUjhupCrVZcDGVRRvva5XLCV+yAtHqNrbMDlj9Zd/pMyIXmOlc57GtcepKdvxCAQIkQUGNsXY1sP9zvrhfNDEmH1p+c2Y0ZlolhZYO3buKlk+64nh9W/8ut/ugpd0PK18HuLrlrldXmu2JYOn7nfZ+Ny6f1yc6/4Dpnr3Q4azVkWuZ6gfE/EgQW73VJt+mTfWlEPn27xuUeRvXprs/H2wKsaRCJJMxrJLQeGriQunkXe7H1xGLxSxNyublWNjvtO/tcXxtS66CvmK6BF2XwUJ177TB7jYPGc8k6dkazDPSeAW2/9HGwB+akm8UQFL66+t3qKT/1GVnTwFRLRf+e+rpZtuhC31ab0Xn3LsqTvmbZ8nZXfEZfAKHAuoKubxdgGIhfrh38NfKm4epr9oH2cRmLmHvuk1G5nre87rk5fyNPYO++VssocO7814FxvXnrroQZBdRwoMf0nKCPhqnrH+g9+JQ/gbIwGljJNDMk3fvqZP2GGtmivsm31sj6qnprkZonliFhQrrf2etfeX6yS950FkK2AlqU0d69smWjHc7LtbL9xKDMXm+Thi+SnYdaQTr2IEAgS9MyeKJBNlXV2vGol6Zz46IjPhIuNazL5uRhd7Nsq3LiWyub3z4ug2ZHozd4X1y9J+j/abnwV4/rFTtO6zfacXq5Tvb0jrjjNNklDX/tDZgyasdTOexqkaYddbLl7ePJkSsh1019sTO5ELJGK8M4uNLiZpvtkiDoOdkHAS+BQWnd6Lj/8R5blMHDddJ4NpmHZbJfDr9dI5tejq8vsvnlOmnq9ThCnR2W7vfqjHMa5PA3EzLQahgNdOaNx93Y1DdH5M0qe90EXQ/kd83SnVjMU+MWUh5JwDP80BNfU2SrxrNWNr+h5cSAtL5jL+CunViHajzli+f5tezQhbs8m66t0uDtpPOWISF53LpDFgwT67i8XCvb9vUaHYNzVoNzfVWt7OkNT59NVXXS1O1ZWO9mW4bu6Tw8+AsBCESPwNKEqF/+TRuSZef6qniZ64psBmWihJQNvrqJK2CRdMf19ND6nxpEV1x/nJDutz11Ny1f36iR9fY7asvLtfKm1ketOA/LMV3Pyom/VRbXyuatO6WpZZds2xqvezqHRbQuZ9Rt9V3yu2a5kDBki3jfiYFlbjJAfkWJgEcrVtp56zNeDVTVyLaWvuRCnlF6HuKSA4FBObzRX9+z6n86QMMIeepSi2zTBee31lnlbqAe1JjQYrevtW29sU4OXDLqahqeU3bbbV+//nREdAazDDSsoLZf2jjkGL4r/9TKpqpd8qmrzm5A42dFEtD1HZt+p31LNbJ+reaDGtm2r0seJmYg+LEEtc0enqgT05jmu2p2WD5t1PBrZcvLej+PFh8cl81rq2VPn2OQ87zbQ8r1vOV1X4TZEWUC31y7ZbX93/jDX/IeTQ1T3yt6Dz7lT6B8jAaJtFqURV0ENeaZcpk4numPeDiumQuZXqrnLS3K7Iw9YjnldXZ8c41uynvYB+04rfSZFmenZTbXeOYYh0wek3MgkBWBxbn0eVXPSYhfR4T6F7AKuqeVZ3Iui+yQY/ko14JOOM/JAAAgAElEQVRimYd9mTBcinPOuvzJJOw8PAJBQAACUSGQYT0usmVijvVHbzJkUwba5aw3iOT/DOqc2dwvGTC/okBA0y5RVwmLUJ71GXYb9pcIgQz1kLZsiT/u4qK/oWi5M8pkFkA6YiFxyFv4GeWfdJHkeFkTWOyTpsQC8wV80lRa1HWSjIGs8Vhkko8zOUf7sDJoFxfw0Qk6vwT+9M4+q3P/09M9eQtYw1KDgYbNpzIIlKHRoDISjqeEAASKQGBqwjcK70nvLtnc2CtTRbg9t4AABCAAAQhAAAIQgEBpEtBZVBnOMljRAxY6/BVFiovKloDjnmh1HnDx+hHZtqvLmK29OvHgrqVDwFkQWTv5r1+/nXPENQxr5traatGw+VQGAYwGlZHOPCUEILACAov32mW7uhDb0Syth5ql4eUa2fJe6umoK7gNl0AAAhCAAAQgAAEIQAACEIBAZAkMyuHfHQ9ffzKy8SZilUzg865/Wh39unBxLoYDvVbDUKOBhsmncghgNKictOZJIQCBFRGIT+ecVbdn/lnXKwqRiyAAAQhAAAIQgAAEIAABCEAAAhCAQCEJ6KLGzgyBlbgqclwSaRhhiycXMv6EvboEMBqsLn/uDgEIQAACEIAABCAAAQhAAAIQgAAEIAABCEAg7wScGQfa8a8LGZ87/7UsLy+H3keP6TnOosfMMAhFVfYHMBqUfRLzgBCAAAQgAAEIQAACEIAABCAAAQhAAAIQgEAlEtB1CJzFkdUIoO6GGt9tlo+OdorOJtBNf+s+xxWRnqfXsIZBJSom/swYDSo37XlyCEAAAhCAAAQgAAEIQAACEIAABCAAAQhAoAIIfHPtluzd1+oyDKhxwNzUaKDn6Ll8KpsARoPKTn+eHgIQgAAEIAABCEAAAhCAAAQgAAEIQAACEKggAjqD4PyFr63FjdWFkf5mVkEFCSCDR8VokAEkToEABCAAAQhAAAIQgAAEIAABCEAAAhCAAAQgAAEIVAIBjAaVkMo8IwQgAAEIQAACEIAABCAAAQhAAAIQgAAEIAABCEAgAwIYDTKAxCkQgAAEIAABCEAAAhCAAAQgAAEIQAACEIAABCAAgUoggNGgElKZZ4QABCAAAQhAAAIQgAAEIAABCEAAAhCAAAQgAAEIZEAAo0EGkDgFAhCAAAQgAAEIQAACEIAABCAAAQhAAAIQgAAEIFAJBDAaVEIq84wQgAAEIAABCEAAAhCAAAQgAAEIQAACEIAABCAAgQwIYDTIABKnQAACEIAABCAAAQhAAAIQgAAEIAABCEAAAhCAAAQqgQBGg0pIZZ4RAhCAAAQgAAEIQAACEIAABCAAAQhAAAIQgAAEIJABAYwGGUDiFAhAAAIQgAAEIAABCEAAAhCAAAQgAAEIQAACEIBAJRDAaFAJqcwzQgACEIAABCAAAQhAAAIQgAAEIAABCEAAAhCAAAQyIIDRIANInAIBCEAAAhCAAAQgAAEIQAACEIAABCAAAQhAAAIQqAQCGA0qIZV5RghAAAIQgAAEIAABCEAAAhCAAAQgAAEIQAACEIBABgQwGmQAiVMgAAEIQAACEIAABCAAAQhAAAIQgAAEIAABCEAAApVAoCBGg+/GJiVoezT2THT7LnQLuW78mWhE2WCABtAAGkADaAANoAE0gAbQABpAA2gADaABNIAG0AAaQANooLAamJ+Lyfy8sy3I/PyCxMwttiAvzc3Oi26zP+l3zNpmZ2MS3+Zl1j4eZCxw9mE0KGxCklHgiwbQABpAA2gADaABNIAG0AAaQANoAA2gATSABtAAGkADuWog70aD5eVlCdpkWUS35dAt5LpKmPPBM0IAAhCAAAQgAAEIQAACEIAABCAAAQhAAAIQgAAEVpmAGhwwGqxyInB7CEAAAhCAAAQgAAEIQAACEIAABCAAAQhAAAIQgEAUCGA0iEIqEAcIQAACEIAABCAAAQhAAAIQgAAEIAABCEAAAhCAQAQIYDSIQCIQBQhAAAIQgAAEIAABCEAAAhCAAAQgAAEIQAACEIBAFAhgNIhCKhAHCEAAAhCAAAQgAAEIQAACEIAABCAAAQhAAAIQgEAECGA0iEAiEAUIQAACEIAABCAAAQhAAAIQgAAEIAABCEAAAhCAQBQIYDSIQioQBwhAAAIQgAAEIAABCEAAAhCAAAQgAAEIQAACEIBABAhgNIhAIhAFCEAAAhCAAAQgAAEIQAACEIAABCAAAQhAAAIQgEAUCGA0iEIqEAcIQAACEIAABCAAAQhAAAIQgAAEIAABCEAAAhCAQAQIYDSIQCIQBQhAAAIQgAAEIAABCEAAAhCAAAQgAAEIQAACEIBAFAhgNIhCKhAHCEAAAhCAAAQgAAEIQAACEIAABCAAAQhAAAIQgEAECGA0iEAiEAUIQAACEIAABCAAAQhAAAIQgAAEIAABCEAAAhCAQBQIYDSIQioQBwhAAAIQgAAEIAABCEAAAhCAAAQgAAEIQAACEIBABAhgNIhAIhAFCEAAAhCAAAQgAAEIQAACEIAABCAAAQhAAALFIHD//ndy/sLX8nnXP61Nf+s+PhBwCGA0cEjwDQEIQAACEIAABCAAAQhAAAIQgAAEIAABCECgDAl8c+2W7N3XKhv+7beyZm114KbH9Bw9l09lE8BoUNnpz9NDAAIQgAAEIAABCEAAAhCAAAQgAAEIQAACZUpAZxD86Z19CSOBGgYa322Wj452yqene6xNf+s+06Cg1zD7oExFkcFjYTTIABKnQAACEIAABCAAAQhAAAIQgAAEIAABCEAAAhAoJQLqfsiZVfDGH/4i585/LcvLy6GPoMf0HD3XuU7D4FN5BDAaVF6a88QQgAAEIAABCEAAAhCAAAQgAAEIQAACEIBAGRM4+ffTiY5/nVGQ7UevcQwHGhafyiKA0aCy0punhQAEIAABCEAAAhCAAAQgAAEIQAACEIAABMqYgDPDQN0NXb9+e8VPqtc6LouYcbBijCV5IUaDkkw2Ig0BCEAAAhCAAAQgAAEIQAACEIAABCAAAQhAwE1A1yFwZgjkYjBwQtUwnPBY48ChUv7fGA3KP415QghAAAIQgAAEIAABCEAAAhCAQGQITJ3bJY1nJ4oTn3tHZNvhweLci7uUKYER6d73iYyW6dPxWOVHwFn0eCUuicJoOK6KNGw+lUGgvIwGS9Py8Ga/nO1sk47efhn8bnoFqTgh3W/vlO5J+9LJLnnz/2fv/V/iyNZ9//svDvnBcJSLMpirzjEyNsxWwnUO0bMlw0TBc0ToECSz0Zyjn2HGmW0z6GdLxoYkEjo7dOZg8jmTzJXkmITkIMltJ5vGnfeHp7qqe1V1VXdF80W7Xw1NV1etWl9e9ayn1lrPWs86t6q9Q8T0Xm45eKlHOw0aVy+29TDI+3vJAJFC4GQRKD3e0d7Bycrzx89tWU/vb6lwK/K9v6PyR2ZZvDyg7N2PT4gcQAAC74NAWXu/FbWZW1T22zUV7u9+WJ3zakfFqN7z/hf1qPQ+ykucEHgHBF6/VOlVzPd1ORy59SFurWrh8qJy+W09/cjv83Dm+PdOCRw81738qhYWVrWZqEetrZdXbqGJPITiSuiDHka2DoqaPzOpzVAnO12eSjtbyi1c0kIur3vPInIeC/Kl1s8Paf6+e9HS2g73EQ7K8XUpTRJu1By3HoHyru7dWtTYqTHN54t6uBcjFKG6ktR+SSHjsTp9P5lp2vDWxtlY8tpXxZ3kcbLSTtEfTyvq0avkZLlyvAnc/usv3qoA28j4XX+CzZEtDT6tT6BFjAZlPdq4qL7ujCbmlrRuHbyNJc1OZtTVf1Gbz97mQe4qNzqmXHDPs1WNjK7q6dtE8T7DNsnP09yYRnK77zMHTty7unFtWzGvTCcMhxD4mATMCNir7J2PmYf3k/ajH0fVdYgZU+X7G7oR6LfErBWUPTWqicuXlHW+s5Oj6urM6MK1D6Vj6jNYzLbm86wvKWcg0GYEDnaVOz+grnNzyuW3VMivaj5oxz35MCysDdV1biak9yo6cFE3PlAeUpX09ZZmu8e1ziSRVLhaPdDTm4sRmZ3R8P/sVd/yg1rRSwVl+zMau7rmTQhYvzqpvu5x5Y6TXNdyy9ERCJS2r2i4e0yzubwKt9a0MJFRx7nVsJHI17c9X15SLp9Xbn5cPZ0x8vBkVWOdQxqbX9Wm6eQvh9RxPhLXIWVrb2NcPd9s10qaKk/7Kl7OqO/LRb+/v6iJ/gGN/dSkXbp9RT0TG7VJgK+2lfs6o45TTp/fcnL/irrOTkbq0yUt3GwSf60UHLUggdKdS5VxpqtzGjs1qey3MxrpHtDw1aKC+QTvrt691ObEkEZmw32w7OVV3XsdBzddeK8MnaO6YBMyNpZ0ITOgvsuFav4rMVfqV0fmojcBd/3bixruzCh7p4HBIi5LnDsWBC5OZz2jwbWfb8bm5+4v9/Qv/zofe81O2obHFibuY3GamyJLg0/rE2gJo8HT3Lj6vlrTo7gZM88evOXsMIwG6cW+oOxxMqikzzgh24aA1efWHGQuPymq+PjtG3E2KNbciGJGgznFLuJ+taXsmaGP1oDEaNA2lZeCthmB0rVJdc1uRTqwUunukpZvJc+Ie5eYPuzEi6Pk/KUe3orMkD1KdNzbUgS8flHWHQwq68bMgKauR9oMO0saPL9WG0htKQptWphXG7rQP6diMJLpYdjXjeleTVyr6VHPQBrRt6Xbc+oK9eusDT2k2duu3OyrMDvkTFA7pGzFrDJIk6fyzRl1TOfD74mDB1r+fFzroRUL7vMPrzIobS9quDujCxtbWnEnCkqy99DwjxgIXHocb2u+e0wrnoHV6R8d7Gh9fq3iquid1jtLb06FuHGt2IeRIvzrgrLVMviRHOxqZdT6c7Xpn+U7pgO+CxsYn3ynke45FWMNFrEZ4uQxIWCbFtv3zZs3sTkyo4AN/P+v/pG66/977GvvWpJRweIM4q+7mRMtR+DkGw0eL2nwzBXdS61YK0vfC/m8Nm9t62lNT/oPN43RwF8+n8+rcPdBeFmjKyJ7D1T00olZwnawr5KXthvXjkrNyvG2Kw1e78cu7S+7S5br8rJVM7TYctO7W9q0srrLW71lcHlNZZb00JZEVwrjlp5jCBwDAglGgzi5Lgd1ZV+PrF7H5f7FtopPXKVhS0z9+hHogmp9qkVgyzyTdY4k37WaV8+ieimow14Y01s7lc6S6RcnL3s7/vmDfT0y10KWHzer/pLrh9+OaipfcWOQ7GrIaRTXilE7soGGz5fqfXom6byD53p4dzd2VVLpsenHWtQ6cJi6OscPEms0cPnF3KOD53oUGFhe7+jeLXNf9zxWN3rJJJXDLhpHX3+Wn2x7z7XIbF/nAXIIgcMRsLo9ezvlvc8qdW/zVtC+KqvstkOqevjt2lipjAZJOtnLuqO/kt4J0fvzW0p0E+C5Q8hr01ZeBPEF6dh/F5e5RbhVCRvvntNt/27pnvP+qEbjpBcfRzUkB8eUgBkMuqIzwVV5p9cPQlkbyXHJekzLRLbehkBZoT6ef2v5+ow+yRb8fw+0/NmoVh5H493RyucZLe/453eW1BfX1rO+92dBG/BwslW3ykDp8pT0nvB0908JrpMiqwys7VZxuRLp80t6tGyzqqNc+N/WBGzsJfOd73UiqX/0Duvd67ymQsa7JvRThLf63zGzVdcPC4xwle5i2TMuTt10O4+WthkGezV1PXq+Sb64/FEJBBsgT/xxJjEfz569UGAccA0HwTn7bfSxuM3owIbIjSi1xrUTbzS4982QxjZqMycaPpZSUQtfDGlwsrKkcTM3p5FPo642Ig2I6CC9v3Syb8LisOWc8ct7n/40rq7+SS1sbGkzd6l+6eSdOXXMfqfc5LimbJlY0vLRaIGi+Ylcj3Z4vQG2Ov/fkRee5eVyXsX5cU19n1dhY01F64m+Lmr+bEYX7NytLa1fHVdfZtFbGvfomi2Zm9Rg97hmzX3JwtbxceEUYcLfdiYQYzR4kdds/4CG51a16cn1pAbPL2nzajAD3xpHQ5p3VkxXCFbOV2dklB5o5fyAKrrA6vmchs/O6Mb6XGgGVnE+o8Gvl7y0ChuLGusf1cL9WsMrmPE04bsM8OLprnXmvDp8vaD5L2e0kt/S+kbBGygK1/WK3lrYWNRI/5imPJdCM5WZVIEroVdFrVy+pNlzpgMrS15zTj7CUhLREeGLUtC5c9waNNZ51hGNmwVm552l4d4S9+DZrGl5ekxd/ZdCM+Y8Hk6HzuP3aUYVfnnl5sbUc/aiNp28ydObi1q/Oqa+wPWIF3cknKTG5ZC8uM6tqvjTpMbm11TIr+nGTu151qHiBAQgkIqAzfCsc6FRd+e+Hn5fa1+ZC6PZLzKaur6mWbeTfcg2Vliv1iXunUjSyUr1TpDs/tkfVzXx5Yy3/N/eC+ZeI+pa8uk1c7sZuBixNpi1N+dU8Gb7RXT0szWNfTqm+Q3bhyav3Oyo+r7aqLXLvPZv7X1V4Tag4R+D0UHJ0hv8NEhvTQuTGfV8sah7oRnL8Uw4ezwIlO7MqefzSjs9nKOIvFQvRvo81fMctBoBGwyv6hjbr6/7iuKcTli/esQffN+zvqzrPqgKxWY2B8amQ8hWzCoDpcxTtA0YZClZd4dXGQThK79R+bdB01Et396u7KtzeUnrcRNRwpHwr+UJmLwHK6yT5D0ewmHqncxYN7Omh3fXtHzZ9u3Yit8/IUgyRfji5fBKo+BWvdrQxOlL/sryorKnJ7UZs4eB1z67HLv+vBoVB8eLwM+bFfdB3/zp24YZixoO0hoMLFKL24wGlhaf1iZwwo0G9rIf9ZeLNXtQFX9vU/nILITStuY/dzdGijQgIoP0975xGl1Bkk9WNdLvrHa4f0V9cb4jz2VqGzDdmdMn1vkLKeZGDRs/MctPMLs/ZtMzm0VcbRSq0jmtnzEReeF5eRnVfNRf3Z25sD9UW7YZ2lQW90SBCPB7XAlYfXbdE9n/oOFXy7Pnh/K0E85mJUVnZOytaaw646qsYtZdnu3H9WJNFzp7nTpYULY6G8sPU9rRo2Bm+t6GJuJ8yFZXPVTqcFfmSmjg3GIKd5Aq5ew4913YTVvpgRZGXf1Wua9eJ9RYVI4iOiJ6OapbUug8m1U2+H1tgMqLMsTZdHS930wbBOlz/NCGOozG78yMNgOefj7teYZWoJnePNWrEWeAzIKWfl3UiLtSLUU5PKNB95AufLC9Y2LgcwoCrUjgYFebX2fU4Q2UF/TIXRHpl9eWzvfUta+ea/2rAXVEjAaHaWOZXu2bq/h8dzeCdzfaNB1Ur5PTvhN8nW5uQdyVpfZ+cQfx7l9Rz5moixGbzBG4CQnraMt3dBZgdfWZTLfWGyVs1VQ5sHdaeqOLehgxEOxtTKrD0b+tKHatU6YHWhnNqO+zjHo6e9X39YbjYsLvX0QnQ3jvRsdw3zowKIlLoLSlWXfDYRtkdPWlE9Z0SWAoCA14OmGkSlu6sqnw28uWpRHay8DiTpkna0vW7+dVaQO7/d8gu947I1GH2X2u/Ffiqe6rE0zoy1zBeBoAbdNfb4JS54AGJ8c1eCql66BD1jvZuExnMBnKn5TWOZS8n1zT8JUVBPF9P2tL+IYCW7GQ5JrW0pjYCLsFa1NZOCnF/vPqX7wB/ZUf1ppm2TUcmBGg2QqDIEKL28JbWnxam0ALGA3cl32DhxUZ/HdDekuzqks2Iw0I9z5Tptapczt6fkTm37HSeDLFHDdLWZL5igxmbJjyraZZy401pOIaPdUQlp9gdr+zQWmwWanNInbvDw2wVSMJdza9l1OcT1PrREYHIatx2AFGgxAO/hxDApUOQLWhZJ2SOFm3pZfTjtFA9TPjH30/WlvV1EAXhDtZ25o/M66Vx8HITBhR0/ruD87HraYK32vldJaUu8mEBubfh9Egpc57vaUpd4DeW+7q6MrEZ7OrlUxt5our08IM3EJXfOxWn7vpzajxxg9+b35IlaW4Kcvh6eD494CbA44hAIHDESg/KSg3Z5ty9nqbIq//GgyUN6ij0QGnQ7axTKfEbYTsboJpOqhOJ6d+JyRN5gi3PYvZgSYuMsLtOJsF2JONGCIC/G47NjgX+U1OL7IaLHIff48pgYOXKmSH1HO5WHVHUb57ST1nLmrlzo5Kr17q0R3bCHNIXa6x6pgWh2wdhUB0DwLJ6/c1MBoE/VPTdW6fspaLcNv6rWTLfKu7BowgUtPZKfJkq+BtX60L3xf0yCbPPS5o5atRdXUH/fAgQvu1fMadD8KE9W5wNvr79McYI0c0EP9bn4C5Qs3PafBUrz+ov5XsolqHr3exIKMGiNhAzslQ+HB9dUJVxnKCzcCtrdDIaJBQP8Px8e+4EHgbo4Hl+Q+jk54BwIwArquiRuXBaNCITmtdO+FGg8rqgcpgfZMHk9CB9O4KdagiDQj3mh13DnmzeGwmT/g7puVfLTa7f0A9ddcr4Ye/fVDJaEJ+kgfB/PK5+fFPuT/R+90Btlq4cGfTazzGGDCkfT3MXVRf54BGpheVu7Mb8QGO0aDGlKPjSSDSUEqod5Z3qzvVQWZJIX+r3lLqGd0INoFqVA/vuO6JbDb7qi70D3gDUQu5Qmgflfj6GSaZFCZc162cCRsX22CW09CLljOcWvAvoiOC09Vf18iSUudJsgH66kZ8oZUblU5sR3dUrwb/Z3TDX5Xl8nCPq1nzD0J87HnF6jjJ/HxWOsUpy9Ho2UczwX8IQODwBGx/k1uXNHx61PexbXU0aaJIpD2SoOtDeiEmZ82u2y2xeqeRXoi8E2Lv99qOQdkalTPIdERHHzxXYX5MHTY7cW5Jm785bjsTWAQxVdqtQdq1s8FRfH6Dq/weWwIHW5qNzIgtPc5rYXJMfZ+Za9QtPcrPqGcelxPH9hkeOWP73qrYntCm2L6bRadd6CZjOjDYCDhZH5qOCq/0TytbFufgst8XdhNuoEPdPHm3lHa0eXVSw59lNDa9pMJOPjIppRKxt8ogummym2ZI74YuhP+YC5eEiSfhgPxrfQKVd29hb1u5r4bqN+X2AByt3iUxNNdh0RWFSWHtvBs++T3ul8ebEBtpV7iRWztidss9w/ExJ5DWPZEVI3BJZIaD4DiN4QD3RMdcCN5h9k640UCy2b99V2MaH1FIjTpNT77T8LlVf0O5SGfNbcTYcTVcNIHgv90f+HkMzsX8JuQnuYHmx+HmJyba6P3xL4nISyEhL9XoD2zzvC3PV3hX/xUVg4FTVhpUEXFwXAlYfXRWEDSQ9ac/joaMBrKZ8Z0VQ4GtRgp1rBvVw9tho0FAprz3QAXb96A7o/m7lZUH8fUzuKPymxQmXNetnI5Rw43COjtO59Duc40jbtDacURH1C5UjsyI0h3M/k+p8+xO2zzPd/EUWrlh17y9VZoPXrg83ONoFu15Bn55PZdC0/nqjEs3rM3QrRkNUujuRs/ejZhjCEDgnRAwA26H50vXdE3C4LYNkDp6LmkyRFhv1mev2XW7I1bvNNILkXdC7P2hwasG5axmOUFHH+zr0f01LUxk1HV+rbKnQYP3XiW6xukVZnuVrdsbq5oRDo4tAVull1BfLM8HthKywfVjWy4ylpaAbYodu0+MTSaJGJSCOK2+BwOT3ubJcQOFnkEqoc1pESXJlrfKYEY3Im7QvLRT5inIp/vr7cNQ5zLS9FpgcHZDu8eNdV81pJWXFTlVHO194Lx7vb5Qfb/hqPUuia/1a6oTr5ICOefd8LYKPjAGOkEkGwOrGsT8zcjdPeH8wBZXX5yxLxQZf44TgTQbIVt+AyNB4JLIdVXUzHDARsjH6Ym/37yceKOBvOVX48rFKLgQujrXGLWr1kms+dqONCBCHcHKxk/rtklwg481XuqWrkfDJ3TimnZYQ/mJRhr1c17p3M7ejoQLltEHpxPyElx2fx9eNZ/jwZnIzL7gNL8Q+BgEfttQbjtwYxFkwBpAToPOBtBjXYyZCwbHuODfbjPjxzYeaP18bWPiyqUkXWBucZKWc/uR/rqoPn/Wuw1Y1/tmDfJe+Y0fYIrWddNbvb6bnfD9peszId+xpmNqdTgctvbPaRTXTlaP9mzDUmfPh1Q6z7vb9317t6j5M5EOZ+KzqSbrHbg86ow51aCVzuLKY/+E6c3TkfS8S/sVd3L3K+FSlaOJDq5mgQMIQOAtCOzr0U5kz6ng7ts1d45JddRzM/kxjQZK/05wdVhQxOhs/6Ry1sI31tG2UnTzK39AOIVurTPiBgkFg3zVySLBBX6PPYHoPhluhn33RbEzvt1wHJ9YAk9tE+NEX/y2Uj+mzWh9ZXcjVNMdMW0nT98m+TdvIFtefztx4DFlniJPpHTbNv9eCu/nJan5KgOLKNLnj8Qd/PXictq8wXl+24TAix09qhq63HdvvWH2ndS7WKyRfk1sGPdkJPz9K+qq7stXC2fv/qrrbH91Qm1MLAhnfeRGbr6CcPweNwKn/+EfZd83b97EZu1f/nXec0kUGAyCQK7h4N/+/YfgdOjX4gziD13gT0sSOPlGA28zyyWNdI4qeyviPqe8q8LVOa37e2+a5bdvJu9sDGauQ5Y00u9uNhdpQEQGiLzBsnNLeui7yvCk4tWWsv0XazMn/M1Nl391lod7jaiMLlz3BzUTBurftdHAa9iF9iXY18OrEd+MsXnZ142vMwpvHG3++UZrmznbSoPYAdiWrCsU6rgT8DbFnVSuun9AWY9+HK/bxNEGY8K+n/f1cHlcw5+7BjG/sDYzvnNAHTH7IFR0QXjj4b3rMxr7vLYZeen6xXqdc3tOg8HeJt5srKFIPSvrUX5JN55V8hA/wBRvNOjon9HmM2f/hMffaaRzUpuOodN0TFOjptXtOL+W5s9zY0Y9neNa9/Pn5TKNzvORejqpcyC8csO/5j2biI6WleHskh76YUI8DnaVOxfRU5bH5XHPMFNt43tGg97Is4iRjzTliLwT/GzxA0ky2DsAACAASURBVAEIHIXAwQMtZwY0PL8VaqPp1baWz2WU9Vdnya+joX1iXuQ1dX5Ugx/VaCCleScYopAOqzKLtD0TdFExt6p73gC+q6MfaPnsuMJtzl2tjAarwSpuCnrqdOuGlm/uVnJQKijbH43juTZnMgk+zasZ5+AYECjfX1Xurtvn2NHKuQGN/OQ/XzePrypuNUwe9mL2aHODcnwyCZRsw/i4jdTd4vibrReC/uzBc92YGQpNMrHgdW1m07dnEgYQG8lWYICsNszczPjHKfPkhba2Xu6iemwCyotoXJUB02W//x+9Wvsf0bt6rvXsFRWeBO3osvbum4vRFJMTa5Fy1GIE9m7OqK//onLeuE7w7i3raX5GfedWKyv6bDzqHdW78vaSZnPbNf1s41mXR8P9GodxuvBmlBvQyI+1SuGNgUX6iPVtrEofuSNxM3EnIxweOwIXp7OeUeDazzdj83b3l3tKMgqY4cCuWZi4j8Vp+x9YGnxan0BLGA28x2QNlemMOk4PVPYa6B9QR/eoJq66HVDz0T+jwW4/zKfmZ/yKCqHGxnPlzjkzk1/UuyTau31FI93BvgVD6jk7o/XqQKUvNC+2NH9uQF2fVnxy93ya0dRGTVHr7qVYt0p7P43XXGrEyV9Mftxg9fdHytw9oMHpjXCnPCEvKj3wmPZ8OqaJuRmN9Wc0crWoWntvX8XLGXV0D+nCRsIMQTdzHEPgPROwBtBE94C6+jPqs3r+9aoe1gS2kvrBSxWvmu9nf3+STzO6sLEjmx1S74Kh0siqbJQbzXxZjzYqe354+5t8OqRhqx93Lmnsp6A++PXPrk3OaerLjPrOLeqemyerZ19bPfL99386FKqjVscWvP1SwumX8heddPyOz6+VuHqs/LaPQpxuerKqsc4BdX22qPhmgKVTVPZ0b3VDJGsUeN/OIQ1Pr4aNpkG2mum8IJxnKImu3AguRvRV/5B6zi2qGHRqLWeXB8LPyddTXT6/nu4BjcxHNifzB/of2v4SZ/3n7unCtbrZaWpWjherGvtqw9GDQd75hQAEjkTA98vfddpvX3ntuDHN3w70qR/747XKPjGm5z4bUs8XpiMKyp4P3ExKh21j1beh6kuUpJOlNO8E02FxOj3S9rRkTRd9MaAOvx3Z9+mQ0wZ7oIX+S6o6dPP01pB6+sc1NTepwf5RTV1zB4xNtzrvK+N2dkab7irdiO4znTqVe4CuqxeB43cmIives3P7HH6Oy9tX1NeZ0YXctkoYDI7fc3wnOSpqvjOm/WbtuIiLnb3rcxq0Def7MzK9OzgXY0gyY8Kc3782ndyZ0ez1iE62mf1NZMtmNKdZ2ZIqT+Wi5vv9Nr7TPgzweZNTGu5lEISs17u2D9nU5wPq8Nq9A+r58ooK7mSc4FZ+24qAJxdnbWzJZMPqgY2nuH3Md1jvvLbQuHr8emzjWVMhnf1AC2d61RH0RZqG9x9V6YFWJizvQ+r71MoyqZVfoyv0KxNqJ7p7vbaH5aFrYqm+L91WT//kFvb2X3/x+u9f/OGf33khLE4bG7A0+LQ+gdYxGlSfVVnlVy9Veh3MEqhecA78MI2COKGTDsulZulYK2pfpVf1Cjkpzvd6/vUh83FQ9spQpoPxXh8Pkb87Al7dbFa/35lcV/RJs/rRNE8HFV3RLJ54SpHZUgflyKbl8Xe9l7PvROcdQkc34hddHVBuJhzHTHe/lwdFpBA4rgTStOMkvU7RBvsoRUz3TkidtbfRqb4eTI47hW59m/SSE+LKxyBgz67U4P32MdsGH4MHaaYgkFJfNdMtjWQr2CPMnTDTMGfN81RObMeZK5Vmexk0TJyLEEgmUE7eDyT5prgrzWU87q7qOdtno+k+m9XQ4YNm7wk/dNN+azhW/h1TAv90ftob3F/5Ye2d5dDiMoOBxc2nPQi0oNGgPR4cpYQABCBQIxAxGtQucGQEokYDqEAAAhCAAAQgAAEIvHcCtoIrzSqDd5KRu5fUkWqVwTtJjUjajkDgnugjFrxc0Pznk8338/yIWSTp40Mg2BDZBvnv3PmPI2fM4vC8D5zqlcXNpz0IYDRoj+dMKSEAgZYmYEYDx61aS5f1EIUzo8FhZ+QcIjlugQAEIAABCEAAAhCAAARaiUBR82cXq/ustVLJKEvrEvjz6l+8gX7buPgohgO71+Iwo4HFyad9CGA0aJ9nTUkhAIFWJnBY92OtzKRatrLKDV3WVQNyAAEIQAACEIAABCAAAQhAAAIQaAkCtqlxsELgMK6KApdEFkfS5sktAYpCxBLAaBCLhZMQgAAEIAABCEAAAhCAAAQgAAEIQAACEIAABE4ugWDFgQ3820bG136+qTdv3iQWyK5ZmGDTY1YYJKJq+QsYDVr+EVNACEAAAhCAAAQgAAEIQAACEIAABCAAAQhAoB0J2D4EwebIZgQwd0MTf5zRN3/6VraawL52bOcCV0QWzu5hD4N2lJhKmTEatO+zp+QQgAAEIAABCEAAAhCAAAQgAAEIQAACEIBAGxC4/ddfdHE6GzIMmHHA/ZrRwMJYWD7tTQCjQXs/f0oPAQhAAAIQgAAEIAABCEAAAhCAAAQgAAEItBEBW0Hw8+ZNb3Njc2Fkx6wqaCMBSFFUjAYpIBEEAhCAAAQgAAEIQAACEIAABCAAAQhAAAIQgAAEINAOBDAatMNTpowQgAAEIAABCEAAAhCAAAQgAAEIQAACEIAABCAAgRQEMBqkgEQQCEAAAhCAAAQgAAEIQAACEIAABCAAAQhAAAIQgEA7EMBo0A5PmTJCAAIQgAAEIAABCEAAAhCAAAQgAAEIQAACEIAABFIQwGiQAhJBIAABCEAAAhCAAAQgAAEIQAACEIAABCAAAQhAAALtQACjQTs8ZcoIAQhAAAIQgAAEIAABCEAAAhCAAAQgAAEIQAACEEhBAKNBCkgEgQAEIAABCEAAAhCAAAQgAAEIQAACEIAABCAAAQi0AwGMBu3wlCkjBCAAAQhAAAIQgAAEIAABCEAAAhCAAAQgAAEIQCAFAYwGKSARBAIQgAAEIAABCEAAAhCAAAQgAAEIQAACEIAABCDQDgQwGrTDU6aMEIAABCAAAQhAAAIQgAAEIAABCEAAAhCAAAQgAIEUBDAapIBEEAhAAAIQgAAEIAABCEAAAhCAAAQgAAEIQAACEIBAOxDAaNAOT5kyQgACEIAABCAAAQhAAAIQgAAEIAABCEAAAhCAAARSEMBokAISQSAAAQhAAAIQgAAEIAABCEAAAhCAAAQgAAEIQAAC7UAAo0E7PGXKCAEIQAACEIAABCAAAQhAAAIQgAAEIAABCEAAAhBIQeC9GA1++68Xivv+n//6b9n3t8Rvwn27/y3LKF8YIAPIADKADCADyAAygAwgA8gAMoAMIAPIADKADCADyAAygAwgA+9XBn7ff63ffw++f9Pvv/9Nr93v67/pf+yXfpd9S//Xfl9731LptSrf31Xyr5ux4M2bN7FfvZHs+ybxm3BfCusHQSAAAQhAAAIQgAAEIAABCEAAAhCAAAQgAAEIQAACEDgaATPIYDQ4GkPuhgAEIAABCEAAAhCAAAQgAAEIQAACEIAABCAAAQi0BAGMBi3xGCkEBCAAAQhAAAIQgAAEIAABCEAAAhCAAAQgAAEIQODoBDAaHJ0hMUAAAhCAAAQgAAEIQAACEIAABCAAAQhAAAIQgAAEWoIARoOWeIwUAgIQgAAEIAABCEAAAhCAAAQgAAEIQAACEIAABCBwdAIYDY7OkBggAAEIQAACEIAABCAAAQhAAAIQgAAEIAABCEAAAi1BAKNBSzxGCgEBCEAAAhCAAAQgAAEIQAACEIAABCAAAQhAAAIQODoBjAZHZ0gMEIAABCAAAQhAAAIQgAAEIAABCEAAAhCAAAQgAIGWIIDRoCUeI4WAAAQgAAEIQAACEIAABCAAAQhAAAIQgAAEIAABCBydAEaDozMkBghAAAIQgAAEIAABCEAAAhCAAAQgAAEIQAACEIBASxDAaNASj5FCQAACEIAABCAAAQhAAAIQgAAEIAABCEAAAhCAAASOTgCjwdEZEgMEIAABCEAAAhCAAAQgAAEIQAACEIAABCAAAQhAoCUIYDRoicdIISAAAQhAAAIQgAAEIAABCEAAAhCAAAQgAAEIQAACRyeA0eDoDIkBAhCAAAQgAAEIQAACEIAABCAAAQhAAAIQgMCJIPCf//mbft68qT+v/sX72rGd4wOBgABGg4AEvxCAAAQgAAEIQAACEIAABCAAAQhAAAIQgAAEWpDA7b/+oovTWZ3+h3/UJ6d6Y792zcJYWD7tTQCjQXs/f0oPAQhAAAIQgAAEIAABCEAAAhCAAAQgAAEItCgBW0HwT+enq0YCMwxM/HFG3/zpW638sOZ97djOuQYFu4fVBy0qFCmKhdEgBSSCQAACEIAABCAAAQhAAAIQgAAEIAABCEAAAhA4SQTM/VCwquCLP/yzrv18U2/evEksgl2zMBY2uM/i4NN+BDAatN8zp8QQgAAEIAABCEAAAhCAAAQgAAEIQAACEIBACxP4t3//oTrwbysK3vZj9wSGA4uLT3sRwGjQXs+b0kIAAhCAAAQgAAEIQAACEIAABCAAAQhAAAItTCBYYWDuhu7c+Y9Dl9TuDVwWseLg0BhP5I0YDU7kYyPTEIAABCAAAQhAAAIQgAAEIAABCEAAAhCAAATCBGwfgmCFwFEMBkGsFkcQH3scBFRa/xejQes/Y0oIAQhAAAIQgAAEIAABCEAAAhD4eATuX9HgfPHDpH+wrfmzV3Tvw6RGKm1BYEe56e/0qC3KSiFbgUCw6fFhXBIllT9wVWRx82kPAiffaHDwUo/ubqlwK/wt/vZc5YP3+BCfbdelWbi1rUevy+8xUaKGAASSCZT19H5YDxRuFfVwjzpZvDyg7N1kcnq1o0cvGlz/QJf2fhpX9s4HSoxkIACB40UgoT1n7bvizssmeS0qe25VT5uEanS5eHlI8/cbhfiA1+5eUs832x8wQZI60QRev1TpVczX7ZMclOPD0EQ60Y8+MfMHz3Uvv6qFhVVt3t9N6BNbuzmv3MKicvltPU3qN7/a0b3H+/VJPdvWZm5RC7m87j1JI0gvtX6+Xs+Wdopa//aSljeKevSqPhnvzLNtL0z227UU74NKHHsb43V61E2rcf+grKd3VjU7t3ak90pCaTh9EgmUd3Xv1qLGTo1pPp/Qv0xT76ytc39HpYBBkm42ne7q8CB8rL6PqZ+hvDwP7q77detEYv2ru4sTJ4HA7b/+4q0KsI2M3/Un2BzZ0uDT+gROvtHg2apGusc1e/mSss536sshdXSOaWE7Rok2e66vtzTbPa71BoNoxWyvBifDaWYvz2ike0BjP+1WUyjfmlPX+TXtVc9wAAEIvB8CBWVPjWrC0QPZy3Oa6A/XyfeT9vGO1fRVo8H4p7kxjeRqeutjlcby0SifHytfpAsBCHwAAgntOa9t99O2Gg9JFZQdrRkNHv04qq63nM3aTE9+AAK1JO7M6ZNsofafIwg0IPD05mKoD2T9keH/2au+5Qe1u+5fUdfZyUi4S1q4+fHf/bVMcvQuCJS2r2i4e0yzubwKt9a0MJFRhxlVXaPAwa5y5wfU8+Ul5fJ55ebH1dM5rtwTNwdlPb11RcOdvRF9tK9734yq64s55fJbKmwsem3tpu3I7Svqmdhw+sT7Kl7OqCNzUcsbW1r/9qKGOzPK3gn33Z/+NK6ujJ9WflWzXwyo73KhNujqZjk4Pihq/sykNoMO+MGuNr/KqG9iUeu3trSZm9Nw51BdWt7tB891Y9bydUmbTQ3WQYL8tjKB0p1L6uvOaOLqnMZOTSr7bWXMZ/hqsSqHqerdsy3NfzGgT07Nqbre5lVRK6G+a2V8aeqLAXXVTR54qc2JIY3MRsegVnXvtfMEnqxqrHNIY/Or2syvat7Gxc5HdIDS1T8nVg5PGIGL01nPaHDt55uxOb/7yz39y7/Ox16zk7bhsYWJ+1ic5qbI0uDT+gRaw2jgdBRDj+zxdxqpawCFQiT8eamHt7a15zauIiETO5elgrJnRrXy2L9h74EKvyZbdyPR8hcCEDg0ATMaOI2wIJ6DB1r+3KmTwfk2+k3UVz4DjAZtJAwUFQLHlYAZDZLac03zHDYalJ8UVYybGdsgnmZ6ssGt7/4SRoN3z7SNYnyaG1dfNjyoWro2qeEfMRC0vBi82tCF/jkVq9OYrcT7ujHdq4lrtRVb1u7rmt2qDnhaqNLtOXUFOtgG2b/OqOuLRRWvhY2YpfzFOvlSKa+p05PaTFopoPpVBuU7lt53YWPGk+800j2nYjAA+nhJg58v6VGoT27lGdJ8g8VY0VUGD69m6ifH7CxpsDvqvmhfxeyQembyDccBWl6OKKBDYFvz3WNa8QxqTl/zYEfr82sVV0Up6t3TaxfV1z2mhbsbmo3rrzopSjtaie27Wl7mVAjVh9CNknaVGx3S7G3X+LavwuxQqA6kqn/RqPl/ogjYpsX2ffPmTWy+zShgA///q3+k7vr/Hvvau5ZkVLA4g/jrbuZEyxFobaOBNYCuz6hjZisyQ63ixmQzn1fh7oNKo+BgX6XqNLayntr5Bo+7UefSro385BsKXu+q+FutkRZEWX6yrUI+r80G7lNsuVglzLaeVvMWxMAvBCAQJuA05MIX9PTH0Vqd9K6VtfdbUSEd4N5T1QdBuC09CjpgvgsN796EJd9N6/fr/cpS8YOXeng3r818jPuNujyYvtpRKa6heODotJg8NdJXVuzURoMm6VQQOnmJ1a8+6BDHir5kpYErhBxDoM0IvI3RwFxE+m2oynL6sNFAew9UdNxllEt+59lzL1DRufeehRtWVT3p6uW49lsQV+jxlFV23QhEdfwtxxWB3Wf5u+XnI8hncI9dd4wG3vukQVsxlA3+tD0BMxh01c0olR4t2wzutsfTBgAiusgvcfn6jLNa4IGWP4ubTGMDlRkt79hNL/Xwvt+XdfSRF92B34YN0Sx7holEGatbZVAJP3UzrIelsm7M9GrqeuW8tQtjjV135tRxuTpXO5QTRVcZ2NVyXJ6Nw5hyz2q3e+MG0VUZtcsctSMBa5tkvvPdVCX1NZvXu73fAhdgSXE4cK2+1I1fSXqd11Rg2HOChw53ltRnhrbQSUlmgPssOJ+u/kWj4P/JIRBsgDzxx5nETD979kKBccA1HATn7LfRx+I2owMbIjei1BrXWt5o4CnXU45FtvRAK+cHwssTz87oxvqcY31trsyrncsYOSjMOq5A6hpalZkbPeecJZ1nh+Qub7MGU3E+o8Gvl7RpezVsLGqsf1QL96MNq5jEOQWBtiWQXG/vfTNUm2HlL8muLFG2JdmT6uuOLMn2OiN5FefHNfV9XoWNNRXNivi6qPmzGV2wc7e2tH51XH2ZxdqSUH9mVuP6LZn+mP1xVRNfznhLsmOXdlseZr9TbnJcU9+uJS8xt9VN/QManlvV5q01LU+Pqav/UmiWWSN9ZeKSymiQIh2l0q+SXuQ1W82zcZzU4MSqCj/inqhtqy8Fh0Aqo8G+Hn4/rq7+SS1sbKlgrirOjSp7Jx9yTxTWaTbrbkwLuSsamzRXHPGuKap6+fNa3PMTGfV9teHMhLW4xpWLuq+M5N3TudcLmv9yRiv5La1vFKoTUTxXG/2Tmndchwx/s6aFUWfwytqOs99pc3pMY9PmhqDiaq+p+w+kqK0JlO7Mqedzp01SpWEDRKNavl3xQZ+9vKT1mAkG1eActBwBMxpV9ccLc+0bnWFfKbK1l6sT3wIK0b5scD70Wz8AX7tcv8pAKiqbsDLBVsUEBoGwLq/F6BpWnbPeYXSVQfR69b8NwJ6eU7E6GceMJr4e9vzGuzO1q3dx0HYEbHZ/4Moqua8ZhyVU76oBmsXh15e4lTRmEJhZ08O7a1q+fEkLua26vftsf7h6t0aWuJUjaL+kq3/VLHNw4gj8vFlxH/TNn75tmPeo4SCtwcAitbjNaGBp8WltAq1vNPCWaAUdsbK35LDaaAqe7Ys1XejsrTWm1EyZVwb94mZTlH5d1MiZK7oXNEAiDS2vMXb1QWg5qA6ea31yoDaoaelXLcF+JkvHY6PSABm/EDh+BBLq7au8pjprfk3vfeN0nIJCPFnVSH+k3naPaj7iV9U6KSEfwbaa6fFOdQlzuvpd0R/esvBAT1g+9tY05nbiTHfYEtTQUu9ox8t8W9b7f7WBgz7Hb+zRjQZp0kmrX+Pj0q+LGj7tGFyDZ8MvBCDQHgRs4P2zOc/ftBllq19bYRUQuH9FfdFZoAcvtTkzoA5n9l14oMkG+ns18r03fTaISdq+oq6JjWrcpic/+XxRD129bD5/s+6S/ooBwp2Z6kUYYzToylwJGW+9cF7+v4u42jDD7bg6TgVtVX+lwemIMbtk+201cv9RKxpH7UjggVZGM+r7LKOezl71fR01dvWqK5iwFPi5z1zRvWrlakdmbVJm0x2uf38beHT0pUvBdGfdgGOkL+uGD47NtVF4v4LgimRuUOqu2YB9kosWSy/Qzaan6/YGrLQ3Y/d9eW1ugmtt/lou6o+e/jgW3ijZ9v348pKWvx716lHfZ0Pq6r+o9cdM2qun115nStuLGu4c0ODkuAbdyaiNMETrXTVsQn81uB645Ar+u79WNzptbwWbTFabAHHhWs31XLyhwiKx9ou/EXna+uemzfGJIvDn1b94A/orP6w1zbdrODAjQLMVBkGEFreFt7T4tDaB9jIamIK0QblQh7DygMMKtokyV2XQr+PTSuPcGujet39AHeeW9NBtgLsNrYOCsp3ujAZHuOwFUW3AbWv+zLhWaKQ4gDiEQDMCVm8H1BPUR/+3y/xHBhuiN9AB5utx/r6fhtXbuk6KpPtX1HOufsDHuyt1/U4yOkYGo1zd4RQ9NBhmHb+4fGpXK5na4NKRjQZp0mnANqRfTdfF5rnJ0naHAYcQgEALErCB9+5xzUY3BFzY8t0CmNuKBD/WkUGwkJ4MTR5xuYXbeqYnA5cYbijPoFudyBHR00HAGKPB2Ea9a0ozQMT74Y7M0jX9P7sVxF799Vay3q3+5QAC8QQOXqpgftkvFyPuWcPB6wZNw5f51xIE6n2Ze7P0q33OcCFNd9YNxie0R6t3eoOjESNn9aIzUFk9J8l0ZiOjQTV/u8qdG9Dw5bwePnup0rMH2rw8pp5ud7JdLWLLf0/d5rG169Uj2zvhTHjvB2urftI9qZzb/7b9EW31brDHQjUCDtqOgLkuzM9p8FSvP3C/VZ00Vs8ipt5VA4XbHtXT/sG9+SHFtR+i4ar/I8YJa8vUTZD1Altd9Cdnpa5/1VQ4OGEE3sZoYEX7w+ikZwAwI4DrqqhRsTEaNKLTWtfawGjgdMQinbrQo7zz9u6JpvIvVXrlfndUuDyqPreR7ja0GqUfWd1Q+nVVF/oH1HVuRgu5AnsahB4WfyAQR8AaYTPaDNXJiA9Tq4OdQ/4MoojR77MxLf/qx+vW21BS+3qYu6i+zgGNTC8qd2e3sjeBhXmL+h0/iB8ZjErIQ2gwzFwYdUfLEfyf0Q1/lUJ8erWCheKsna4dpUmnUfld/ZpQLkvM8hG3gquWEY4gAIGWJdBIh3iFjujIEIjwngZhnZZ0X7jjXsw6M/1DcVs7ck4V79kJcUXyHq9zE+710yrMOukn6Mn4eEOZ5Q8EKgQOtrzNNhtumPlqQxNVgxjgWo+Av6lvZFPsRu1V0511ewgk6COPl7muPBO4bqkn6K0ymM5XV3TVQoT1b+28v9LKNZoePFcxN6exzzIanryk9V+LWv58XOvRzQe9VQYzuuFO3gtF7P+x1cWd9UYO069xg7U2iOtuIh0XJefahUBFbgt728p9NaSOWNlOqHdVRA1k//WWpjpndOMtjVS20j2Y9BBu/1QT9VcajNZv6OwGsWOr7279i17n/4kgkNY9kRUmcElkhoPgOI3hAPdEJ0IU3kkmW99o4Lr8iHTqQgRvv73RIHZwyzZf6naUvdvQapS+Ne5PX/I7pbWclfceqJCb03B3RvN3WR5ZI8MRBKIEGjTCgqBWB8+tVn1LB6frft16W3dR0oFtkLyl3JztH3ClMgPpLep3/MBPZEApIQ+hxqC390LCRnBOvuPTqwUIxVk7XTtKk06j8rv6NaFclphtWB2rV2s54QgCEGhVAo10iFfmiI50OVgbqjozNbpPS9J94XdGMRtsAOpGbMfm+/d9Gw1spRVGgyh5/h+FgK04dGQqLiqrN65bxLgwnDuxBDy3Z1F3blYa3zVJnEHJVjMFg4/Vgie122yPsHMDCbOa7W7TvaP+xsrV2PwDM8YGA5jha9YWjLoCdUPsXZtUT7ZQt4rG2rKDyw/coPXHDYwcSW3lpm3k+lQ407IEnHaDN+YT7BFQK3BivasGceKonqscPPp+VINRV4qRMHF/rc4Ehi1v0/O4QX/PkByMUR2+/sWlz7njRyDNRsiW68BIELgkcl0VNTMcsBHy8Xvu7ytHLW80MMtrTflWNoCpm5kgW/LuLuVKVubBg0hqWFQaSE4jPdTQsg2WYmZGyPf3OLNV1wAK0jN/333ZQvUvBxCAQJRA83obbAJVrwMicYXqbeRa5O/Dq7angJ1MX7/j9UdkYCshD6HOi80STHC55mYzPr1aiFCctdO1o1TppNSviXEZP/Y0qEHnCAJtRqCp0UCyNl3cTNDyzZkmexo47bIq1vA7w/Rkrb1YDRTZ+6AyCLbyxLluh+YeKfDB7buwjDOAJuVfJduQ08ljgv5vpssjueJvOxNwJ00lcPBmgTfqeyTcx+njT8DbcD1xzwrbW6pXUzcjk9FslnPc5sRx+sgMBucHNPxNMWYVQYVP8iqDyvVwHz1gam1Bx11ocDr4NXdBNhM7upogzSoDMxj0Z+T6fw+itV8bsI17v7DSwKXUhscvdvSoKm9uu6HeMNu43gXs3DiCnHf6+gAAIABJREFUczYhzSaexo8TOaFiDv12yWP/kvWzTgfGgVpwr53ktFMOVf9q0XF0Agic/od/lH3fvHkTm9t/+dd5zyVRYDAIArmGg3/79x+C06FfizOIP3SBPy1JoHWNBuVdFRfG1RHMAvYfn81O6Ij4JN+7PqOxz0edmRIJytwRgeSOmzXEHJ+1kYaWt0Gp7Xvgbm76LK+p/toyydL1i+qbyeups/eCbTA1mMZHo5NHDiHQXgSa11vjUdEBkTr4akvZ/ou1Tkik3lY47uvG1xlN5Z87WM1n5Wh1L4Q09dtujtcfhzAaqDKI1hPRF7JO1dklPfRzGp9erRhNjQYp00mnX/08Z7dUquq4fT1cvqixc4EBppY3jiAAgTYhkMJooL0NTXRG9nx6kdfs1+MaOfJKg151dI5r+VdnLwJ7N5wJD2DZwFKPq78OnmtzOuy+IlHneoNWkTQOdrRyPqOebowGbSLp77yY5furyt115NZkymaA/xRsjvlc69krKjwJBonL2rtvblBrfY93niki/GgErC3aE/HXX5cZ26PrzJwKQX/04Lm3Z0zsfgB1beJm7lcstcpA5nJk//lQPur0ubUFx9UxsRGzIrisp7cuadjT0fuhaOyPtWMbrjJouirCOggbmuif0eazoJ5IpV+X2NOgjnZ7ndi7OaO+/ovKeW2DoK9Z1tP8jPpsJY+PI1W988IGcYQ5eoP6TYy45e0lzea2a3splHcrrrEjLsjMIBBqp7zIayrSlqlvTzWqf+G88u9kELg4nfWMAtd+vhmb4bu/3FOSUcAMB3bNwsR9LE7b/8DS4NP6BE6+0eCFbaTUW924w4TXvubne2x+KzTwXnmcZT3aqPgk9zYv/nRIw1eLKt25pLGfgsHAB1qwTY8aPP/i5QFlEzajK9+9or6JtUqDx1YIXA7HtHf7ika6/Q1bbd+CszPK/eo2gMxv+owGLW+Tc5r6MqO+c4u6V7VyN8gYlyDQtgSKynY2rrcBmlAd/GxIPWdntO5ufHb3kvquxixxLj1Qbjqjnk/HNDE3o7H+jEZMfwQRW5+jaf2WipczWgj2T6je+1y5c84y14Q87P00rpGqrrKbfX3RPeBvyD6knnOLKgYdQTNSNNBXFoPFGejO8G9Gy78FGWyejpRGv9psmpcqXh1TV7e/v0T/qKau7cpm6CTp1SAX/EIAAi1KIKE957XpvnZ8Yj9e09TZAXX1+/u3eO2jorLna67nSvmLTpvuuXLnL2rT0YkVguF3RvGyTfjY1eb0qPq8uIfU0TmmBXcw1m48eK7CfE1/2Yac0fdAvI73n9uLLc1/Uct/z1kbjHig3KhjNEjQ/810eYtKBsVqRsCXqY5PK3WiqzujqY3waK3tlTb1+YA6vH7SgHq+vKKCMzjaLAmunxQCRc131veLvbZdxBXV3vU5DXb2erq06/SABufytcFIt7h3L6nD7ctuX/HlqD6dLn+CmzcAGuvv3Y24Mig/0d0rk90ey8vEkh66jWov+HOtTwyo44sEmQ38wNfdV0trbz2pnduriY2g/2/58fcUtHeA10ef040XtXg4ak8Cnv48O6CObtOhA+roHNDg9Kojq+nrnefysK6/uq/Nr8ITFCqkX2rzq159cmaxMhHMa3+Me3XFaxt1j2oqt+1MwvKfjxkB5zLqOD3gyXFHZ0az12tyHjxFM4o1r39BaH5PGoHbf/3F699/8Yd/fudZtzhNBi0NPq1P4OQbDQ79jMoqv3pZ28T00PEc/sZy6aVKr2uzGeJi8sI0DhJ3G+cgAIEUBNLUwdhoDsoqvYpsshwJeOi4I/Gk/1vRaaX3ri/SpJNSv/oc05eRkBCAAAR8Aq9f6r3pu4N9lVJEXm7Shmv4rCz/wf0HBWUPsflhw/i52H4Eyunktv3AUOJkAinba8kRxFwxF0NJexnEBDc3vdYnbtR+LSdf9PzAN9vLID7Z5LOufk4OxZV2I1DOa+rUnOL2A3l/KHa1MppuUlxdHqwt88qdmFoXwjvRtP7F38bZE0Dgn85Pe4P7Kz+svbPcWlxmMLC4+bQHgTY2GrTHA6aUEIAABCAAAQhAAALHg0Bp73lkwsq+7s2PKtYtyPHIMrmAAAQgkJ6ArUxIscogfYSNQtqKsZg9DhrdwjUIHJpAvGuhQ0fX9MZdrU+Oaf5O84H/plERoC0JBBsi2yD/nTv/cWQGFofFZV+Lm097EMBo0B7PmVJCAAIQgAAEIAABCHxkAk/zF9XXXXE/mZ2b1GD3gIbnt+LdgnzkvJI8BCAAAQhAAAIBgaLmz/qugoJT/ELgmBP48+pfvEF+27j4KIYDu9fiMIOBxcmnfQhgNGifZ01JIQABCEAAAhCAAAQ+NgHPNdtLlT6ym8yPjYH0IQABCEAAAhCAAATeLwHb1DhYIXAYV0WBSyKLI2nz5PdbAmL/mAQwGnxM+qQNAQhAAAIQgAAEIAABCEAAAhCAAAQgAAEIQOA9EAhWHNjAv21kfO3nm3rz5k1iSnbNwgSbHrPCIBFVy1/AaNDyj5gCQgACEIAABCAAAQhAAAIQgAAEIAABCEAAAu1IwPYhCDZHNiOAuRua+OOMvvnTt7LVBPa1YzsXuCKycHYPexi0o8RUyozRoH2fPSWHAAQgAAEIQAACEIAABCAAAQhAAAIQgAAE2oDA7b/+oovT2ZBhwIwD7teMBhbGwvJpbwIYDdr7+VN6CEAAAhCAAAQgAAEIQAACEIAABCAAAQhAoI0I2AqCnzdvepsbmwsjO2ZVQRsJQIqiYjRIAYkgEIAABCAAAQhAAAIQgAAEIAABCEAAAhCAAAQgAIF2IIDRoB2eMmWEAAQgAAEIQAACEIAABCAAAQhAAAIQgAAEIAABCKQggNEgBSSCQAACEIAABCAAAQhAAAIQgAAEIAABCEAAAhCAAATagQBGg3Z4ypQRAhCAAAQgAAEIQAACEIAABCAAAQhAAAIQgAAEIJCCAEaDFJAIAgEIQAACEIAABCAAAQhAAAIQgAAEIAABCEAAAhBoBwIYDdrhKVNGCEAAAhCAAAQgAAEIQAACEIAABCAAAQhAAAIQgEAKAhgNUkAiCAQgAAEIQAACEIAABCAAAQhAAAIQgAAEIAABCECgHQhgNGiHp0wZIQABCEAAAhCAAAQgAAEIQAACEIAABCAAAQhAAAIpCGA0SAGJIBCAAAQgAAEIQAACEIAABCAAAQhAAAIQgAAEIACBdiCA0aAdnjJlhAAEIAABCEAAAhCAAAQgAAEIQAACEIAABCAAAQikIIDRIAUkgkAAAhCAAAQgAAEIQAACEIAABCAAAQhAAAIQgAAE2oEARoN2eMqUEQIQgAAEIAABCEAAAhCAAAQgAAEIQAACEIAABCCQggBGgxSQCAIBCEAAAhCAAAQgAAEIQAACEIAABCAAAQhAAAIQaAcCGA3a4SlTRghAAAIQgAAEIAABCEAAAhCAAAQgAAEIQAACEIBACgLvxWjw23+9UNz3//zXf8u+vyV+E+7b/W9ZRvnCABlABpABZAAZQAaQAWQAGUAGkAFkABlABpABZAAZQAaQAWQAGXi/MvD7/mv9/nvw/Zt+//1veu1+X/9N/2O/9LvsW/q/9vva+5ZKr1X5/q6Sf92MBW/evIn96o1k3zeJ34T7Ulg/CAIBCEAAAhCAAAQgAAEIQAACEIAABCAAAQhAAAIQgMDRCJhBBqPB0RhyNwQgAAEIQAACEIAABCAAAQhAAAIQgAAEIAABCECgJQhgNGiJx0ghIAABCEAAAhCAAAQgAAEIQAACEIAABCAAAQhAAAJHJ4DR4OgMiQECEIAABCAAAQhAAAIQgAAEIAABCEAAAhCAAAQg0BIEMBq0xGOkEBCAAAQgAAEIQAACEIAABCAAAQhAAAIQgAAEIACBoxPAaHB0hsQAAQhAAAIQgAAEIAABCEAAAhCAAAQgAAEIQAACEGgJAhgNWuIxUggIQAACEIAABCAAAQhAAAIQgAAEIAABCEAAAhCAwNEJYDQ4OkNigAAEIAABCEAAAhCAAAQgAAEIQAACEIAABCAAAQi0BAGMBi3xGCkEBCAAAQhAAAIQgAAEIAABCEAAAhCAAAQgAAEIQODoBDAaHJ0hMUAAAhCAAAQgAAEIQAACEIAABCAAAQhAAAIQgAAEWoIARoOWeIwUAgIQgAAEIAABCEAAAhCAAAQgAAEIQAACEIAABCBwdAIYDY7OkBggAAEIQAACEIAABCAAAQhAAAIQgAAEIAABCEAAAi1BAKNBSzxGCgEBCEAAAhCAAAQgAAEIQAACEIAABCAAAQhAAAIQODoBjAZHZ0gMEIAABCAAAQhAAAIQgAAEIAABCEAAAhCAAAQgAIGWIIDRoCUeI4WAAAQgAAEIQAACEIAABCAAAQhAAAIQgAAEINCcwH/+52/6efOm/rz6F+9rx3aODwQCAhgNAhL8QgACEIAABCAAAQhAAAIQgAAEIAABCEAAAhBoQQK3//qLLk5ndfof/lGfnOqN/do1C2Nh+bQ3AYwG7f38KT0EIAABCEAAAhCAAAQgAAEIQAACEIAABCDQogRsBcE/nZ+uGgnMMDDxxxl986dvtfLDmve1YzvnGhTsHlYftKhQpCgWRoMUkAgCAQhAAAIQgAAEIAABCEAAAhCAAAQgAAEIQOAkETD3Q8Gqgi/+8M+69vNNvXnzJrEIds3CWNjgPouDT/sRwGjQfs+cEkMAAhCAAAQgAAEIQAACEIAABCAAAQhAAAItTODf/v2H6sC/rSh424/dExgOLC4+7UUAo0F7PW9KCwEIQAACEIAABCAAAQhAAAIQgAAEIAABCLQwgWCFgbkbunPnPw5dUrs3cFnEioNDYzyRN2I0OJGPjUxDAAIQgAAEIAABCEAAAhCAAAQgAAEIQAACEAgTsH0IghUCRzEYBLFaHEF87HEQUGn9X4wGrf+MKSEEIAABCEAAAhCAAAQgAAEIQOCjEti7NqmJ9ecfJA8fMq0PUiAS+cgEdpSb/k6PPnIuSB4CaQkEmx4fxiVRUhqBqyKLm097EDj5RoODl3p0d0uFW+Fv8bfnKh8cr4dYerytR6W3zdO+Ht3fUf1tz5U7N67ci2bxWbg5FZsF4zoEWoRA+cm2ChtLyi6savPuA+0dRg+8WNXIuVXtfTAmZT21vH6w9EgIAhCAwHEkUNbeb0Vt5haV/XZNhfu7h2rL7f00ruyd41g+8gSB90jg2bZXdxZyed17Ug4n9PqlSq9ivq8j4cJ38e+kEjh4rnv5VS1YWzhRj5b19H5euYVF5fLbeprUXn61o3uP9+tJhNJIaQQ4KGr+zKQ23QZvynhKO1vKLVySJ9/PUsht07SS3i8pudQT4UwrEyjv6t6tRY2dGtN8vqiHezEyeFBpwxRubetpzGXF6uGYuhXDsbST18L0koqvYy6+2lHR+r7frqm48zImQOVUaaeo9W8vaXmjqEevEoNxoUUI3P7rL96qANvI+F1/gs2RLQ0+rU/g5BsNnq1qpHtcs5cvKet8p74cUkfnmBa20ynitI/60Y+j6po/3BD8o+WMBr/fSZtUJZxXviu6Jymc9q5yo2PKPWsWnYXDaNCMEtdbgcC+ipcz6jo7qYUNMyKuaXl6TF3dh9ADVu9GV/X0Q2HZW9PYqSHNb7/rBHe0khl4q3if3tzQvbgG6TvL2q5uXNtWXFv6nSVBRBCAwMkjcLCr3PkBdZ2bUy6/pUJ+VfOTGXX1X9Tmk0pxwu2g5CI+zY1hNEjGw5WWI7Cve9+MqusLv+5sLGqif0Ajud1qSZ/eXAz1k7KXZzT8P3vVt/ygGoaD1iBQ2r6i4e4xzebyXlt4YSKjjnOrYaOAr297vrykXD6v3Py4ejrHlfN1bYVEWU9vXdFwZ68+yRbCcJ6saqxzSGPzq9o0XW397vORNMJ3eP/2NsbV843T2E0VT6V93/flotZtkqAv32M/1eQ7JilF03p3XOJS41wrEyjduaS+7owmrs5p7NSkst/OaKR7QMNXi7WJnS/ymj07pJFpG5Oa00R/RheuuTL6UpsTQxqZDY9ZZS+vNul37evh9+PqOHNRK3fqjXNe3jpHdcEmWmws6UJmQH2XC7V8eQ+mUoc6Mhe1vLGl9W8vargzo+yddztO1soycBLLdnE66xkNrv18Mzb7d3+5p3/51/nYa3bSNjy2MHEfi9PcFFkafFqfQGsYDZIG9x5/p5G6BtDRHmr5SVHFuNkWaaJ9vKTBz5feakmbdXy7/MZVOG2MBmmQE6aNCNy/oq7R78KdIiv+4zXNrx/CWJekV94D0kffj2riq0l1zGy948F0W8FQfKsVTsVsGmPkUSAUlP2AbI+SU+6FAAQ+HIHStUl1zW5FOrpS6e6Slm9VZs6F20HJecNokMyGK61HoJS/qL5sZJColNfU6UltJswmfZobr7+n9dC0X4lebehC/5yKoSXq+7ox3auJa7UZyF7/MqJvS7fn1BW0zw52tfl1Rl1fLKp4bS5iNLA+6JBmb7sDjvsqzA6FDFV18Otm/qeLp3xzRh3T+fC74eCBlj8f17q7YsFNMJrWu+LipsFxmxDY1nz3mFY8g1pB2VP+ZMyDHa3Pr/njOi+1+VWkTngyOKqVxwEmi2dOhaQVPUGwyK/p6o5zS3oYqtN+oNcFZat5888d7GpldEjZO7XpWeU7VrcjfeQn32mkey5+5UIkD/w9mQRs02L7vnnzJrYAZhSwgf//1T9Sd/1/j33tXUsyKlicQfx1N3Oi5Qi0ttFAUun6TOxAnOfCJJ/X5q2E5WWv9ytL4g9e6uFdC+e7CNp7oKK75Nd3j7SZz6dYRr+jlc8zWq4bv7QXzZjzUgnkzBpTTvhQ2glGA1uediuvzfyW7nlLNy1czEoDiyup/AdllfzlygGnYlM3SEGe+YXAxyFgHaDhH90ZHQ3yEVdvy36dt9tiVxr4bjOsrie5PbIl1n79K/5W65w1yInkNSpndKNU1Hx3cgfIlpQWvDobs+Q1rjx+oubq46m7ciAp7MG+57pgc2ZUy7+aCwOHh8UVd5/LLEZvbNryXLdx7C3LzWsqs6SH5iahVGvQNmTERQhAoOUJFLO9mr3dpJihdpAfNqSbKrPwQkaDNLqpmmxjPV+nT737ktxIViPlAALvl8BB5H3tpVb2Borj3HTZIFRXilnh7zfTxP5+CJRVjnE5Vb4+4wz8P9DyZ+5gZpATt5/6Ug/v+7Oa70SMBjtL6oubBGeT4z5LnhwXnfmvlPEkvRtMz4/8VD/z2kpTl5beFZeAFb9tQ8D6hJnv/NXnjtEgBCD+vMlu1Vj3Oq+pwCgXurfBn50lDZ6JGgFr4a1ex004CwxtlV5W5V0wdTPa5yrrxkyvpq5Hz9fi5+jkEgg2QJ7440xiIZ49e6HAOOAaDoJz9tvoY3Gb0YENkRtRao1rLW80kCnoU45V15850RMsf7cljmeHwsvLJJmSz14vaP7LGa3kt7S+UfD8jXsNlGC57+ui5s9mdOF7W/65pfWr4+rLLDZcYmYziuuWAlsj61RvvdujSOMrlLbqjQZ71+fUF1qOOqqJn7a0EjEaPP1pXF39FRcum7lL3hLm0BJPezmeW1Xxp0mNza+pkF/TjR1eKK1R5Vu4FLbSoEHDqlpyWz7aP6DhuVVtevV2UoPnl7R51XFnETUa+Mu4+yZsabQt455UX3dkGfezNY19OqZ5zzVSXrnZUfV9tdHUxZE17Hp8l2emH+pdmJVVnM9o8OslL7+2LHusf1QL9/062VAPRfREo7A7G57rAtOHlaWzi7oRuD9LzWzRW+I+YcvVjdPcmDqcZ/Lomi3JndRg4FJuYaspn+pz4wACEGhpArbSoM6FRqTE4XaQpDjdNLGqwo9Rfd5YN3nJpNDzXtuwbq+E+MGCSNb5C4EPTMAGhutXDpbuzKnn88Z9lQ+cUZL7AATMRW7VXZXt29VdcX0bTfreN0P1A/ERo4HtGROsgg/fbzOpE/bbi878t4H9lPHE612p7n0QZCYmreBS9PdIXKKR8b9FCZhc28x9W1mT9L43g1t04pcN1g9p/r6PxYxkM2t6eHdNy5dtb46t+H0RqhRtUN9fMVC2iV31xuHiZccoUb1P0qsNTZy+5O9pWVQ2YdWZ1+66fDi3225yHB8/Aj9vVtwHffOnbxtmLmo4SGswsEgtbjMaWFp8WptA6xsNIoPrXmPo6oPIEsfnWp8cqFmCfaNBV+ZKZHlnpIFyZ67OAFB6vNN449WIIcDE6978kKaubWiqc0Y3nBnBUQNDuHEUGQzc29BE3XLUsh5eHVXHaWelwf0r6ovza3kuU3up2YBp95AuBMaR1q4DlK5lCOzr3tUxdXSaz8l8QkPM6k3Q8KsV3PNzerq35gM7YjS4943T2Qpue7Kqkf4ruufPpLf6GZ2tsbcTt4l5EIH9vtT6eWe2l+1tYB05d3a+NVCjM7dKO3oUrP5pqIcieqJh2Eq+6t0TvQWzU7ZiKmxgNP1WnWXjJYF7IlcCOIYABHwC/qSODm/yQ0GPYmbLhttB5h84xifvr4sajurzFLopjZ6PH7xKGkTgyULg4xEwVzM9ExvehKdaLh5oZTSjvs8y6unsVd/XG+HVgLWAHLUSgdKWZt3Nh23wMmHGs+nYOoNAxGgQGmgPcaq0F6uDpM41ize0l4Ht1ecaMpyw8vrutcFWWzVQv5+gpdVbM4Q498el5VyuHR6VSy0mjlqcQGl7UcOdAxqcHNegOxnVKbcZZPsyl1R4bKu1n+te7qKGp7dqOtjqkddHXfMmm27m5jTcORTZ98CJ0Ab+z8xoYX5Mff0Vve3t03c3WMmevJqsYtzw3dP5E2hjTQOWp4mN8LiYkwUOTy6BP6/+xRvQX/lhrWkhXMOBGQGarTAIIrS4Lbylxae1CbSX0eCgoGznnIqhATn/AdtgvtOAso7h2EaglGtCEOqw3r+innPf6VFcfLVbIkeRBtXrLU2dqQwSesaD6hIxs1g7g4mKGCwixhAzMMTlN1hpUXlR+BZvZ/+paubMj2WwMZVnNIgOXFZDcgCB401g74E2r9ps9l512KbIt52ly9ZROr9Wa8BVSxJpeLlGA2ts1Q3kV240/61B58hma/Rkt1R6G31geieUH5tVMqDwEtJtzZ8ZrxuMr2a9oR4yfePMNGwYthJjndHgMMyqmZMU6Wx6DVlH17pBOYYABCBQflJQbs425ez1NkVe/7XmNzvUBqvTnwG7Bvo8CGK/rm5KqecxGrgAOT62BLzB0MhqyGhmD16qkB1Sz+XiO95LKZoQ/z8ugZi9Bkz3JbTDTMfWbXrs6kp/Yl111UKocJWB/DqXWOZ33TVa+PeYPk0Vz+uismeGdOH7gh6Za8vHBa18Naqu7lobvJqNhLSq16sH74BLNS4O2oKAuazOz3neISqD/1vhiaKvzANFr7r6xzUxOaaezlFl3T5oHKSo4coJ47kUOzWq+aqRwFYQbCnbP66ctxI8ob55cdhkBr//Z33aYB8GJ37vsIEuiAbl/8ki8DZGAyvZH0YnPQOAGQFcV0WNSo3RoBGd1rrWBkYDZ3muOxBY9xzDM8XiO4bRgft9PcxdVF/ngEamF5W7s1vZB6Eu7vAJa5AFA/TmmmT4e3+TA7cDbMcRf5GhznLEaJCU38psjWClgb1cBtTzWcVabTON3O/wtw8qGW3IKVwW/kHg+BIoa+/+qi6cMX+N/qBTpOPj5t3qV7Wj49YBO+4cCtWVWr0Z0/KvfiwHz1WY91c6zC1pM8WeBrbyaWJ919tLoGQdoVcvtXdzTl0hQ4JU+nVVF/oH1HVuRgu5gp6GJvM30kMRo4Eaha2Uo85ocBhmLti6+1lp4OLhGAIQSCBwUNbTW5c0fHq0uhdUqB1Up1tq8STq81qQsNEgpZ6Pb2uF249uEhxD4IMTKNkAbf2Kyth8HGxpNmHWbGx4Tp4wAvsqmmEoukm228aNlMh0Z93+YBFdG9LDofutzTnqbxhbu2DhB5f9PmbtdLJ7Ia+PG4mntONNCBr+LKOx6SUVdvLVSXdOlF6ccWm5YaR3xCUcKf/agkDlfV/Y21buq6HaBt3extxDyt52Jpwe7GjlXEbZu6FOWx0l6wtGV6pbIKs39StsKvt1BONI8W0Su9vPpzeRrUEbxer27FZdnjhx8gmkdU9kJQ1cEpnhIDhOYzjAPdHJl5O0JWh9o0Hg7sOINGgkyRrOVd9v/p4GdX5ro0YDH/OBbZy35fnv7uq/0nwX+mqezDWJ6/+u5qokzrd5uJEWHgxMfmnsaiXjGg0SfE26EtOIkxuOYwicBALbV9R1brWyuiDS8XGz//TH0WSjQXC/e0PS8YFtirmmhYmMN/j/NDFcUfNnBmKNETY7ZeVx/Y3lvQcq2HLW7ozmo43QWD0U1hPVGGPDVq6+ldEgiVk1ochsXu88RgMXD8cQgEBjAuaaosP3uRtqBx1Gn7tJufdbuyeFno9vazXokLvpcQyB903A9uU4N5AwezsucesjOKsR44Jw7sQSsA2vY/eJie7355SwMBuzMaqrKyV5M6DjBho9I1TY1a68mf8zulFyEvEP3yqeyO2eu+GoG90Gabm3vzMubqQctwkB531ve2cEe3jYquy4NsTtuWr7JQmQ9T/DblwrIUPtHfdmpz6ai686I5+FffKdhquubf2Nz5+4kfhp/Biz12Z9MM6cQAJpNkK2YgVGgsAlkeuqqJnhgI2QT6BgHDLLLW80sEZFbWPRuE1qKuTKtjHYzFZ1iW58xzDBaODAf3jV/Os6J2IPzTgwpPnckgYjfuQqm6Kuavnz+kZ8+OURHgw01yhx1mjZigVnSZrxiHVj5OYTo4FLg+MTQiBx/wBrOAXLsM0/ZKyrIdMNSXsaVDZ2W997WxD72vyqvh4HsbgbIAfngt94/63BVUm/LqovW3BOhA9reiisJ8KhKv9qYSv/64wGh2LmpOQ0bitnMRo4dDiEAART10KQAAAgAElEQVQ8Avt6tOO4knOp3J6russItYPeqW5Kp+dj24Y2EcRpZ7lZ5xgCH4yAv5H38DfF9P6pq5OYPlguSegDEXhqmwxnruhezGC97ae1OdEbcYUpyVzmxm2YGm3Hme49HTEOmDHh5ow6Iv1a09mJM//fIh4Xm7dfh63Gj7gDbZiWH8E75eJmiuPWJfBiR4+q9cgxGsgxuibtE9LUaGD9tISJYjdn1DNfvxOB10cMXErfv6KuiGcKexA2+TRYjWD/w+NhwaOyvm+Mi6/gMr8nnsDpf/hH2ffNmzexZfmXf533XBIFBoMgkGs4+Ld//yE4Hfq1OIP4Qxf405IEWtdoUN5VcWFcHZGZ/94mNeeW9PCV8zyf5TVl/uEcC2xsxzC0r8C+bnyd0VTe7eSaf8TRqo9zJ4W6Q1P45jMs7Ltckme17o31NRnqLEfcE+nA/J5HlsWVHmj563GNfBasNJCtadNE57iWf3WXz5lf04wuBC5cMBrUPS9OHHcCL3VjOqO+r1fDdfvguTZnMhr5abdaAGs4hfce2NfD5XENf+4Y/CJ1YO/apDqiesPzK3nRnz31QMtno/VqVyuj/iZU1dSDg9qqouBM6Nc6bv7G6KXrF9U3kw9tVmgdpkGvwdhMD7lGg2ZhKzmwpezzkX1PDsOsWp5oZ9OWzMYabqp3cAABCLQbAVvanxnQ8PxWSNfp1baWneX94XZQpSNcr88vaszuCSZwRPR5FW1ENzXX875bgNmt2qCsuR84P6AOjAZVrBx8DAIJ7lacrJTvryrn+sb2XGcMhNpHTnAOTzAB6+v2nJlTsTrQGVMY2+PqzJwKQX/44LluzAzVbVbs3RnRlXaurl34wtwFRQYgU8z8TxVPkH3zKZ+7qJ4zM7rxIjjp/6ZI651ziWSBv61JYO/mjPr6LyrnjZ0ERoOynuZnvNUFlRXltsoro6nrzriQt8dBrU6Ut5c0m9uu7YNQ3lXh8qg3CSy2qtrYTn+kb2n1rLqngfE2A+CARn70XV3LXNouaaRzUpvuZDd//GflceAqqdL3NSOfG6w1n2D7luridNYbb7z2881YCHd/uacko4AZDuyahYn7WJw2lmlp8Gl9AiffaPDCNnfp9YTWBDf4dnRnNBbtfPrPc+/2FY10+779zU/42RnlnI32LFjxckYLga9yRw5K+Ysa+8l/IZQeKDedUc+nY5qYm9FYf0YjV1PO8Hm1oQv98ZsNP7w6FLu0OJS2nit3LuJq6FVRC+cG1PWpv1fB5zPafLKr3PlLCtmpX2xp3gnX82lGUxu1l41erGrsq41ap9gpP4cQOLYEvM7EjAZt88x+qwND6ujMaCr3ICzLBy9VvGp7D/j7FHya0YWNHdnso+xdv3SmVyLLTEN647Mh9Zyd0Xq18SXJq1dD6ukf19TcpAb7RzV1rWasCHHbW9NEk4bavfmMP3hv+xDMaPDTIQ1Pzmnqy4z6zi3WZo811EMvtfmVoycahq3ksHTnkrdPS8/XTkMyJbNYvXH3UmRp7r6nXzu6h3Rhw2lchwDxBwIQaDsC/r4wXadr7bOO7jHNOxsJhttBNtGios9tQ0xvrxlf70b1eTrdJDXV8we72vw6I2tjeul9bgMJeWUxGrSduB6rAm9fUYfTBwr6QvZbnW1qbZQvBtTh9xG6uiNt/2NVIDJzeAJFzXfW+sOuLHxiEzaciPeuz1XbzKZ3B+fytQFNJ5zq2nGme5/rxlxGHacH1Nc/4LW3Z90BU3+2c+IqgyD+FPF4QctFzfcP1E8O8uPx3PrG7JsQJCO9By61yDlqcQK2t9zU2QF1dNskAZP3AQ1Or+qhO9rv97FMt1oftKt7TAshQ63tfTeuHr9+dnSPaiq3rVJ1xYz12Xr1yZlFPQx4hvS2xTmplciYlUoPtDJheRpS36eWx5gwvjFhorvXewdYHromlsL5D9Lkt2UI3P7rL97Y6Bd/+Od3XiaL094vlgaf1idw8o0GR3hG5dJLlV4HFtcjRHRQVunVfqpNkI+QSvpby/vpymXhXvkbxKaPnZAQOPYEvLpdalK3D1lvm+qNg/dXr7y0k4r1NuV5m7Du0z7sfW4cHEMAAhBoSKCssm0M/zbtM183NYz2LS421fPWfgreMUm+jN8iPYJC4IMRcGX3gyVKQseXQEXflqsDl2+Z06Q2b7Bi1h1UbRR1UjzOPeVyQgP4bdNy4kw+PCKX5Ii5cpIJlPOaarp5fFlJotq86LZKPTLZ025Ko7fThLGobPwroSo1zx8hThqBfzo/7Q3ur/yw9s6ybnGZwcDi5tMeBNraaNAej5hSQgACEIAABCAAAQgcmUA5MkHEd/EyFbh3PHICRAABCEDg5BPY+2k8eS+Dd1y8D5nWO8460Z04AoF7oveR8V2tT45p/g4TOt8H3XaNM9gQ2Qb579z5jyNjsDiCFWwWN5/2IIDRoD2eM6WEAAQgAAEIQAACEDgCgdKtOc9928j0JWWnx9XTXXFvd4QouRUCEIAABCAAgRNBoKj5s477oBORZzLZ7gT+vPoXb6DfNi4+iuHA7rU4zGhgcfJpHwIYDdrnWVNSCEAAAhCAAAQgAIGjEPBcIb08Xm4pj1Ie7oUABCAAAQhAAAIQaFkCtqlxsELgMK6KApdEFkfS5sktC4+CCaMBQgABCEAAAhCAAAQgAAEIQAACEIAABCAAAQhAoMUIBCsObODfNjK+9vNNvXnzJrGUds3CBJses8IgEVXLX8Bo0PKPmAJCAAIQgAAEIAABCEAAAhCAAAQgAAEIQAAC7UjA9iEINkc2I4C5G5r444y++dO3stUE9rVjOxe4IrJwdg97GLSjxFTKjNGgfZ89JYcABCAAAQhAAAIQgAAEIAABCEAAAhCAAATagMDtv/6ii9PZkGHAjAPu14wGFsbC8mlvAhgN2vv5U3oIQAACEIAABCAAAQhAAAIQgAAEIAABCECgjQjYCoKfN296mxubCyM7ZlVBGwlAiqJiNEgBiSAQgAAEIAABCEAAAhCAAAQgAAEIQAACEIAABCAAgXYggNGgHZ4yZYQABCAAAQhAAAIQgAAEIAABCEAAAhCAAAQgAAEIpCCA0SAFJIJAAAIQgAAEIAABCEAAAhCAAAQgAAEIQAACEIAABNqBAEaDdnjKlBECEIAABCAAAQhAAAIQgAAEIAABCEAAAhCAAAQgkIIARoMUkAgCAQhAAAIQgAAEIAABCEAAAhCAAAQgAAEIQAACEGgHAhgN2uEpU0YIQAACEIAABCAAAQhAAAIQgAAEIAABCEAAAhCAQAoCGA1SQCIIBCAAAQhAAAIQgAAEIAABCEAAAhCAAAQgAAEIQKAdCGA0aIenTBkhAAEIQAACEIAABCAAAQhAAAIQgAAEIAABCEAAAikIYDRIAYkgEIAABCAAAQhAAAIQgAAEIAABCEAAAhCAAAQgAIF2IIDRoB2eMmWEAAQgAAEIQAACEIAABCAAAQhAAAIQgAAEIAABCKQggNEgBSSCQAACEIAABCAAAQhAAAIQgAAEIAABCEAAAhCAAATagQBGg3Z4ypQRAhCAAAQgAAEIQAACEIAABCAAAQhAAAIQgAAEIJCCAEaDFJAIAgEIQAACEIAABCAAAQhAAAIQgAAEIAABCEAAAhBoBwLvxWjw23+9UNz3//zXf8u+vyV+E+7b/W9ZRvnCABlABpABZAAZQAaQAWQAGUAGkAFkABlABpABZAAZQAaQAWQAGXi/MvD7/mv9/nvw/Zt+//1veu1+X/9N/2O/9LvsW/q/9vva+5ZKr1X5/q6Sf92MBX//+99jv2/+/kb2/XviN+G+N2/0hi8MkAFkABlABpABZAAZQAaQAWQAGUAGkAFkABlABpABZAAZQAaQgfcqA2aQwWiAkL1XIcPgg9ELGUAGkAFkABlABpABZAAZQAaQAWQAGUAGkAFkABlABpCBkyEDGA0wGGAwQAaQAWQAGUAGkAFkABlABpABZAAZQAaQAWQAGUAGkAFkABlABjwZwGiAIKAMkAFkABlABpABZAAZQAaQAWQAGUAGkAFkABlABpABZAAZQAaQAU8GMBogCCgDZAAZQAaQAWQAGUAGkAFkABlABpABZAAZQAaQAWQAGUAGkAFkwJMBjAYIAsoAGUAGkAFkABlABpABZAAZQAaQAWQAGUAGkAFkABlABpABZAAZ8GQAowGCgDJABpABZAAZQAaQAWQAGUAGkAFkABlABpABZAAZQAaQAWQAGUAGPBnAaIAgoAyQAWQAGUAGkAFkABlABpABZAAZQAaQAWQAGUAGkAFkABlABpABTwYwGiAIKANkABlABpABZAAZQAaQAWQAGUAGkAFkABlABpABZAAZQAaQAWTAkwGMBggCygAZQAaQAWQAGUAGkAFkABlABpABZAAZQAaQAWQAGUAGkAFkABnwZACjAYKAMkAGkAFkABlABpABZAAZQAaQAWQAGUAGkAFkABlABpABZAAZQAY8GcBogCCgDJABZAAZQAaQAWQAGUAGkAFkABlABpABZAAZQAaQAWQAGUAGkAFPBjAaIAgoA2QAGUAGkAFkABlABpABZAAZQAaQAWQAGUAGkAFkABlABpABZMCTAYwGCALKABlABpABZAAZQAaQAWQAGUAGkAFkABlABpABZAAZQAaQAWQAGfBkAKMBgoAyQAaQAWQAGUAGkAFkABlABpABZAAZQAaQAWQAGUAGkIE2kYH/7/97qJ9/vqk/r/7F+9qxnXvTJuWnnG+aPmuMBlSGpkJCRWpekWAEI2QAGUAGkAFkABlABpABZAAZQAaQAWQAGUAGkIHjKgOF23d1cSqr0//wj/rkVG/s165ZGAt7XMtBvj5MHcNogNEAJYAMIAPIADKADCADyAAygAwgA8gAMoAMIAPIADKADCADLSgDtoLgn85PV40EZhiY+OOMvvnT/6OVH9a8rx3bOdegYPew+uDDDNAfR0MIRoMWVAbHUdDIU/sqGZ49zx4ZQAaQAWQAGUAGkAFkABlABpABZAAZQAaQgQ8vA39e/X+rxoIv/vDPuvbzDf39739PNA7ZNQtjYYPVCBYHz+7DP7uPzRyjAUYDKj4ygAwgA8gAMoAMIAPIADKADCADyAAygAwgA8gAMoAMtJAMXP23lerAv60oeNtBaLsnMBxYXG97P+FPtqEBo0ELKQMq48mujDw/nh8ygAwgA8gAMoAMIAP/P3vv+hTVte/97v/rvDrvnjfnVKV8SqwNL6AsvJAgK/RZiTw8kh10hbi24FbjZWEMmkjc6pNEo5AoCYKsRfCCIhoviRIJ0YUxKgqigIvfqd/sOWePeeueXKW7P1R1dTMvY47xHZ/xm2OM37jAAAzAAAzAAAzAAAzAwFwZcGYY6HJDl/uuzbrDX+91lixixkF+cYnTAKfBrA3HXA0Y9+eXsSG/yW8YgAEYgAEYgAEYgAEYgAEYgAEYgAEYWFgGdB8CZ4bAXBwGTj5pGE547HGwsHnnaL4UvnEa4DTAaQADMAADMAADMAADMAADMAADMAAD88vAzf1S3tQ/v2EG8mhEOjfVSdvj/OnEWQodSfkXh0Fp2fqV/BrgD+7yj4XsyHNn0+PZLEkUlafOUkUadtQ1HM8OPuLmU245DaZG5E5/j7R9sVcavzglF28OysRULmTYmPx6c1BGZ/qCGh2UG0NjFOaZ6sb1OcHM44F+GR7PhfJPGuK+0LgOVmAgWxkYk1/7e+Ti+ejPnYdx0va7tFTXSkusa+OExzWUqexjYHSwSw5uPSJXjDrQxOiIjD4N+UxkX/pgMkaeTf0uN86elIMHT0rnzXsR7eEJGb7ZJS0Hm6Xl7HUZjmozP41oT0Yd97SjRqTt/QppuumN8+hgv9VeP/p9v/z61Dg3NRHOqbI7PhHdPrm+X0o2tctj89kPrktnS7McbOmSG/dD7h0PKQ9PaTdTvgweTZ4m7smN881Ss6xGms72y53HIUxNjXj7bGbC89NBufL9EasP68rgSDTr0xMyEWbL9dhoKk6hNt847+Zz7OdG6GJqxO80+bb4+vVeumrNCtCNjN38nqc8cjZH1mfMd9iEt/isZNI8R5wGE/Lr9/WyurBM1m/Vik+PXNSK0tYaKSpMyNGfl4rw96S747pM+ArrxM126X6QLo635eibVXJsKN01wXPDLTVS9Ol1mZ4elGOJMmm6HrwmPSDh8U1/z0yfwfXouQAMTPVLU3Gp1HyfrtK1AM/1le35ztvhnna5YXQCzHf409OU+fnXNPs4QwPybNEZmLon3Qf3SuPH9qeuSt5YV5f6/+O90nI9TmfOPWmpqpGWtHUq8nfR83eB342kx2F6TO4cq5WCVfVyrO93oyE/ITe+NcqXlrO/1cnqZWWy+R+5VU+ChWkZvb5fKotr5KOWLrl4/pQc3JSQguqTXqfA1D1peb9MSt7bKy1nu6SlqVZKCmul5b7Dkn5PyPD5/VJZWCpv/K3Xw1P4cfNe+3egM39MrnyckIJEvRz9Xgf61UtlYUIa+2z7/rRfjjnvAeO74Z0yu00b8oxpv2NiTG58WiVF7+xK9gl83ywb15bJ+pZ7Rhp0ZkKFrP/IVy4+PrnA9eyw+HNsqZfb0b69sro4IRsP7ZKaZXXS+MU2WV9cJpWH+lODOh/0SNM7ZfLGsl1yxXnnxeTZCr+wSjbroNfvj8jmRJms/rg3FbYTnvU9KJ1G2XDrTZsS8samdvue69JUXCUb/dcd7JFhI6yZPRdOlzqn/vjVNzRaToOOzh8M25fKx6tXb8r2HU2h5zQs3fBYr/GHq/9rmLpMkT4j7DzHUjrnghY54TQYbqmVguojcsccqeAYxImxiNEVryMje6Wx6qTHWCtE2rnf2Jc+Pr8eq5LyY4MzKJTacHZGdkzIcH+//Dqa/hlBoMPjG7xupuFyPRouLAMTPdukcnO9lL99JKemkF7520J3hlHmKZsLWzbRF31jMdC3y9dJFVc3nAax9HXqyHzPoF4dl8HXd53bHspY3x+TK39L+DpRX1+8YXYetX/aLpvX7pIrHgbGpHtrqWzsSDmIrIFlH/V4OiVHe3dJkdNOnbonnVsSUvROs1zpMOxx1PFQW+LvzJ+WiT59xldeB8b9r2R98S7PzBgvE4Ny7O00g+d8jonRs/Wy+m++DtfRLmlYUSedbl+BdqrukotRsytC0zOP+UT4WWR7lZUaOWY51Hql0XEKTA1KW9Mpq5053FEvq4tr5GB/u3zknI/MYx/P473S6IZvMzZ1T45VVUhjX2rmgLdM+FmckO5tZdLQY1//tF02Jr4K9Dl5wpiX5/rjwf8ejSMZWByddNNi/fzrX/8KLW/qFNCO/9Vr1wfOb6jZYp2LcipomE74SynNxGVh2Mp+p8HQESlf5a8cZRBLp47190jn2S656EzZNJ0LOpXMngI5cf+6XDzbJVfsqe4To/ZICGuKWpd09hsjeaZ0mqcvXMdYWFMgu6Qhoc4Ne/qYPWXtzhdV0nA2OUUycjklTeebIR2gj9tl8zsha+s9OCnrjes9S7WEpK/zvG9aalh8nbTot5P+sz3BKZ8h4Tv6aUHWKamqqfVMpkUHjDTGLkP5NTkM/a2NFG1c2I2VNDNsnPLdeb5HrgykGlNuHthLnlm2QstIgNcJ0bKVjmfXZnjiOiET5jTrcdu5aT2vSzrP9ohnaurUmDVdu3NblRz9WW2FzxmayaZNT4sbD7PsPjAqo5nKvCf+c80j7ncZQ1dsIAwEGUjjNEjZ7bDlASKcBlO/y7Bj78bvhdv7h9cluARSZhtPWcaeLwkGBuO2h5IOg+hRrOTnksjPWb8XfPVLO5yJf2wzHLFRM9i1MzMhRweVgRG5c9Nu43rscdTxEG58nfk6c0GdF27HpptG7fAslYZ/GHVS99y0TGs423oCM/WT+RR0TExP+erIVljJZ7uD9Ma7pMFxkJjP4nfwfZzvmmifitsBbzgNDF0eDzj9KOHnPTbFx7OWzYIQvnUAXMHWrgjufeXt8SmpMQfKDR6xHGee5xrx1ePz8lxfmOmexzlfni2wds4GyJs+2B5ZpocfPBTHOWA6Dpxj+p0u3zRsdTqwIfLi5m26PFmoc1nvNLjxacXMliB52CUfrS2Tyt0nRTsK2w7VSfn7R6TzkDHaX18O1Sflyrd1UtN0Si6ePSXdg1qR0cZorbT0nZSN7+2XtvNd0vaP20ljPtorjW64p+SoLo20dq870uPXDp3+WCflxbXykU4V0+lh9pS1j6orpLwuOT2y5WZEhUmXGHIrcikwdQbCG8sqAksP6fHVR27bBd3XiNb0VTVbU1E3NqkOXdKyu0YKDOdLaHxt45acomdPe/3+iOiUUU/jI1K/CbnSlJDyLUcs7S9+3yw1a6vkYGSaU+lcqAJAuDmosTrY3j9lrWtqVbhCKmLT7kgpe+qyPX276KNUo2T0erNUWlNRT1nrbHe27JLKYmOk02i/HHxHy26ztJ3vET2/fmVCNneY059tm+FfX9sqg6lZR1f+Vioffa12ZZs1XVvLhmcq9WC7tUzHxnXOVOrm1JJmcWyaZbtq5GDLfqmp06noyfhWFuoolqQjNF2Zp5zkYDlZ4MoqzMDMnBjwdFLZWtp2u6TaWHJiXYV3eQDb1nmWJxq9LUery2T9t7Zt9tlfJ5468tazfEUsG08+O/rx/TpZ0E5Xe1TqhA4yCOs0TcZPZyMUbWn3jvTmfZC2YyQX2P71iDGz5OFJWV+8X26E5Lu2q9d/awyI02vC7HG641a4IZ350/3S6Bntnyozox11UvBx2GbJGQYABRwTqTC9+aaOEmO2rnaqbjsld/pPydGP98rBlp7wNepDNPKGG/U8jueOTjrTwGkvZXIKZDof5PnKx95ZQK5uOltgxd7UUkdpWLzR5O0PU4dA5Re9yX1NPt4rR78PDnybj+e6cU0TN655Pbags7PH6tD/9LP/k/b95nccxHUYaL5q2Oo00GeRz68nnxdL9yx3GmiHXJU9XSxORun1jtFPXW+t/biiNLVEkDYoiytks2ftQ70+eX/JZt+6kNO6LqKxHqNtOEf7dslqz6ZM4Ut/xFmeSIHwOgKmZVrXbV+1TTo7/B5qv4NB421UlDR9y2rk2JDXQaEvHHPq6vR0SHwft8vGkGmvOs3ZvTdSv15pNGY/WJCPDsqv/g5VXjwY3jkwoBy7o5isvQ1qpe1xqrwrd9ooKvFPXdaNpZzR/8p5YG1XnWHjNMSTa6E2nPU1rEavS9PbzrJgjs0wyp6TLl+nlToN1GExak6T1lEjvkZdcHmimDbNsl2lst6/xNn1/VLkrn+p8Q0p806c+aZcwgAMLBYDIZ1UVmfWodue5TSmp36XtrqyVP3D7zR42CUNaxPy0T8MW+2zv06F2+s0iGvjve8WJyy+0WVRGdDOpVXb5GBTjaxem5DVbyakyFoqwzeDcrRLPnrTPr/Ctx73YpVtnrP475HRHvloVZ10OnVh7TCPGGVvLVtk7YdnlOEQe2zxHXVcRzH37QpuTKyj+6OWbtGwPPVR+/k6EMgcQe3hJ1kH9m+yHFb2dOklz0bJ+rxCXaPeGBhUWOEb+GNo4Hkux8M0zuVj1kCywjIpr6uV8mXplrXK4DQI8OybAePhTMMyl9SK4G68RxoKt0m3seedluMCd1+T5CDZ1YVV0uTuDTUPz/XENSJuXLP49t7W/GTL91aH/vGvT2eMg+k4UCdAphkGTlnXsPV6fZZzjO/cLAs54DQIdshN9O+XSrtSrBXnjaft0WVaSbJHIHuB9hlOq9N7v9wwO/CsAmhXTvzLnUSGe0+OJUxjH94hF9dpMO3EyzYGOoq6pKk/6TwoNl4WgRdSiNMgrLIYqPwF46sjVUI3l73/lVQ6lT0nngH9rkvTqtqAs8KbF7lZ0EjjIuWrVpxWectuYD+QqV5pLNwlVwJ8puLo7TxKHXfzMaLTSc9bsxvcDeN8Zc+pPPnuV6eBO2Xaucbf+TU9LQGnQaTt8dm0kLCSafFXboNl3k2zG68QPThHZQkGYGA+GfDXR9LZba3zuHWalM0d/fmIrC+ulWM/+zZQ9tlfx8Z57H7ENUEbjz109OP79bFgLT2zrEqa+g0nwdMeaVxbG70p+NSgHDNn4Mxn+SWsJfQ+GJOLH1V4Z1GpfXVtppdbtYPeTY9nM9PAbi/f9IZttWPTOQ1C4uQfQW3amVDHRBh7ltPEv8mzL256n9+5EhYWx5YQ2yF5uJD5o0vInt0l5ctKbYdTjzwOtCX97SpvHIM8a1kJawPqfRpWsJ/LLAP6+/H3tVKk/UGZ0q57h7ht5Lk/N+PzMsWH85nzbA4azcRpoHn5blWd5QBQJ4C5VFG6fMZp4C3f6bTK9nNZ7jRIjgQLjDCw1/8e1b0DzhprOPoboUZB9HTcRzYWU41RT8b37ZKC4uTIHXVSeD/bpNvddCm8Q87zbCNOnmdYx81KmE5FTi2Voh2jTmd+oJPU32EYlb6APsH4WiOi7VFM3nQmZPVHXckRgFHh634GP5+UzWvLpKh6mxxs6Q1ZIz5/Cl8wf0n7XDXR6c0ln/Zb6/9b5V9twIBusGY4EtLw6Tw/vBPfyJ9AWTHOecKPsBmea9QZEFZhDN4bcBqkiYfXrgTDSqbVX7kNlnlHE76NPE5rp7kOVmBgzgz4bZvPZnrDN+2Y2roqaTyyTUqWRUz5jwhLbaa7PJH/+WaZj7jfGycYQI/FY0DZDes0sjqT/KPGTZZ1wI+7VvfixRc2Fktr3b8iZGZtGhumLFV+bS6zOXOngdWZv9VuE5q8WZ2gu8KXW1Gb+5FviYuQEdQpdpK2Prn/Qho9dfngVcFVBlLheO/VGW2Reyt40uK9Lyo8jueaTsn6xsXH16Vlc4W158CohwuzPuJLewTP4W1Avdd+VsAxYYbr21TZExfzOv2dXBnDKTNze64/bP5famU97vJEGm9nSSJ1HDi/4zgOWJ4of7jPcqfBtERVlKhJU2MAACAASURBVN2Cazb8zN8+ozr8dVVqpG9kZSqi402dBqHrMPpBCu+Q0zQERxn7703+7zYAdOkSc9aEuwFO2MvDF++o9AX0CcbXesH0h8fN1TwqfEPzice35aK1RnxCmvq9yyS54RjXcyyD5mhlVYba3i+TkoDjLiGri8tSSxbF4DO6ImXnQ6CsGPmjjfDqk9aeCsklzUJGifjiEP48X7kNm2mQJh4em+Z3HLq8+Cu3wTJP2TPy1tWNY3ABAwvKgN+2+Wym59lTPfKRu+6v2s1SKXj/pPw6eFJqdKaBbylGa7RryIhWrYvFchp4bDwcePICG7mgIwejtPawa+aBvxyZ5/S3lp2okd/+a/n/teRtVJ7HOa77VxRU+5fUnZZpe5mgiyGdkRc/CtmQOIqj0ONqg6vszZT99tHegPm+//i0aJ01tRdf8nxwEFzqvmjHROoa3b+sRWfTBJYbNq7xca3xcJfb9Z2LoznXRGubG9oY7SZ7CdwWzzLLxnkfP1E86yoOAUed3qt1Df+yzr4wI/fu813naK+zjpzBtnN5rhMe30uX9zgbIWv+OU4CZ0kic6miTI4DNkJeuvk/32Uz650G0+P90riqSg7+HNHxbFZodM1Pc8Sxa1C1o90Y6RvZOA124lkZEhmuH6TwDrmZOA2m7XXOW474KzXJTdCaWsxp+s7zffGOSp+plaVNML46kjtsNJMHzKjwXb2deE3L9M/NstpdysU4HnYtx7KuweLhYqHzT5eoMB1p5vN07X73nG5oFdznwIxrRs5DlkFy7tfyXO7uHZBsPB3zN5B0WSFnOS/LGWDYHzfevnIb5jSItD0+m4bTgLLjcoWddcoq30uYhUB9RG1auN22Oo/cDe99dvP+SVnv358moo6iywa4nUuxbfwS1pAynzd2312u1Jfn7kAj33HX9gX2NYJnV5sozbLk+PC3tVKU2C83RsPyVEccl6YG0zhpUrsXtlFxwB7bYYYcz9SZryP5U3VkJ25q31OdmVYeROxJlsyfZN3aGTEdmmfqMHi/TCp19rGTvozfdp19yIkX36HaZtQxx3R7OCi/uuXIdAroMtT+gWHmeUOHdDzf3C9FIft2qJOhKN1Msengpspp82tcZ90Yy1nP+rlGuvKNhSxL74p/f0v0869//Su0PrR9R5O1JJHjMHD4MR0Hh/77eOi9GqYTvnMf37lbNrLfaaCF12oUJuSj7we9G4lOjciNQ961GZMboJobjo7JnSO1Uvm2bmRsZ3REgzJy1LCzseq2Lhk2R20MfSXr1x2RO66B6ZXGEKeFdjI6SwtlLmz6giiVN1YYRt8JXyv/y0pTjV7nuL/DMCp9gcpfSHyndF+CCvFuADshv35dK+VHbieNSkT4o/+ol9U+jXRjqvK0L8TcLXyZ85q0z0QjzwbILvuOhtogSS3n9bijTgqqj8gdd+mwaZl+2i8t316XCb03ivOzR6T7QTJMHcEV4FnX0PZtFK6VvpK/GTZn6nfp3OrddDz+TIMKafLtqRLLpvltgKuPv3IbUubdax0t+Z4Jl1wLLzAwCwYC9ZFpGe3bJav9dvuBbnRsrlXtcxpYyyKqXa6XTsd5azXea8R05mpdZPUKb/0pro0nf2eRv7xXQhvhs2ZJ6yxra+Xoz8aeBtYm4Kk9DYZ7jkinOetG9zzQZVuY7Tu/ebEE2FZbWbJql1xxOzpDyujN/dY1F5168NTv0r2tQkrC2mQh9thiNXA8Rmf+43bZWGjOAEu2wws2tdszdJNxTTeCOpNjYno6YlkmI28mrh+Rj1qup9akn7gnFz+usgayxXcyhOhqPGPW5ZkwllSZfNyzTVavrZcWy7467aYJGT67TVbrTB5PfjnnvWyk4zm5bFCZrP960E23tSdTobF5uecZdtiBPSxTz3z8/V5pOn9PJpx+KWs5pYSvj0idh7N4blhcOObm3VIq9/UNjZZToKPzh9D4Xb16U6KcAuo40HN6TViaNEzd/0CfEXaeY6nymAta5IbTQA3V0+vStrtGilbYy5OsLZOCwgqpaeqSX50KkV43NSJXDtVY56w1+VcmZPP3g6IjMhqdZXcenpSaze0hIxN+l5b366XTDM81kmNyp2WblBeXJfc0WFshJdXNcsVz7Zhc+TghBcUVsvn731MF7P5JqSksk6I3m+WGG140aKNn62V1WKVu+rYcXOX3eGs4I9K5uVbc6XNR6evf61tmKSK+o7elZWtCipx9HFZWyPpD/SmHTVT407ZGKyuksm6XNLyXkNXVzRGjYKLTnwsFjzTMd/72S9M6Y9+CkHKkI+5qTqfK3ePe/VJZmFrOqGRljRy8bmyYqZxv0fJq71OyskLKt7YbjkFfmV+pe3Xsl4ueaapqc36Xi001UlRcYdmGkuKyZHkx4qh24eDPfk1+l5Zqo9xq51ffXlmtcd5iNK7i2LTpKNvVL42Fe431ZSPKvBFX2PXnE//DBAzMOwM6CzFk2Ue12+uLU/W8onXbpMWz0XHQbmrcrE40d7bZtIxeb07Z/7UJWd/UI1e+NpYnsmxeTBuPfUzVZ9Hi9WnxsEea3imTgpVaZ6mQouI6zybg7p5i1r5ker5GDpobJ5N3ry/v5lX7fmkqLHU3tNROHfejA9eMZz3+xy4pLyyVorUJq/1cvrsr1YluXDcdaB/a7zzfcatjNHQvA+87UjtENxaXWqyW6PM3HZE7HgfHmHRu9s08cOOTHASUdpbB9f1SYKbb+O2O3Lbq5rWiz1d9CoqrpKHleqot6z7PG/d5f9fxnKwod2o/G9aVSUFxmRQs0z6mMinfetLHrbLib1fpsXQ823yN3pZjm5J9V6tX6nN89vtsvRQsq/C0Fe8cSkQvpfX0urRsrZKiFTbfK2ul6XyqDexynOG57nVwmhWc+vOr99JVy7698+5f5j3+GqbaTn2G/7n8n3vvjdxxGhjGbGJ0REZHI5Yrcq6bmpDRp2MpD6xzfM7fEzKhm69O5B4sAQNgbTg9Ow2tPMoHjebMUx5w9Jo1slgcT2MvMnIev8xPpHvOXHVYMJsGgwHbN9e84n4qmDAwJwYy2u1Y+iZtd3Ik3oR0by1NDR7x3B/fxmMreF+8dgYmxtK3gcZHZHQh6yKesgMPr52HjPlh2sG55FeMznxfXGbTFozrmFj6us9Fa+59bfk70SUNy3ZJ2H4g8xKnNPZ7+OuaiDrKPPCQ5rnzki5f2SfMecizmJr+R+1Wq3P/+Nen51TvNvNMw1KHgYZtHuf34uXrYmudk06DxRaR5+VuASFvyVsYgAEYgAEYyCUGJmTCN7BElycq0TWFnan8MRtjcJFLXJAWeIaBWTOgsw5izDKYdfiWTdaZZFGbLJN3c9MW/eLpF778ULx7Z6/x8Ok6qWzqDVkFY/ZhLnScCX9p5I2zIbJ28l/uuzbnTn4NQ8PSj4ZNPi+NfF7ofMBpQMOQwg4DMAADMAADMAADecLAoLToMi7r6uSjj3fJxrfLpOgd/3KS+dEIWOhGBuHDEQzAAAzAQO4woMvhNhv7VZK3uZO3uZuXJ1u+szr5dePiuTgO9F4NQx0GGiZ5n7vM+PMWpwGdBBR4GIABGIABGIABGMgvBnSZFl1OkqVa8ivfKefkNwzAAAzAAAzAQB4xoJsaOzMEZrNUkbMkkYYRtXmyv6OZ/3PHqYDTII+MBQU3dwoueUlewgAMwAAMwAAMwAAMwAAMwAAMwAAMwAAMpGPAmXGgHf+6kXFH5w/yr3/9K9J5pOf0GmfTY2YY5C9fOA1wGkQainRGh3P5azTIe/IeBmAABmAABmAABmAABmAABmAABmAABrKDAd2HwNkcWZ0AutzQpg+2y6ef/R/R2QT60d96zFmKSK/Te9jDIDvyeCHKIk4DnAY4DWAABmAABmAABmAABmAABmAABmAABmAABmAABnKYgd5LV6W+odHjGFDngPlRp4Feo9cuREc0YWaPEwKnQQ4bAwpi9hRE8oq8ggEYgAEYgAEYgAEYgAEYgAEYgAEYgAEYWAwGdAZBZ2ePnGz53vrob2YVwJ7JHk4DnAZ4DmEABmAABmAABmAABmAABmAABmAABmAABmAABmAABmDAYgCnASBgDGAABmAABmAABmAABmAABmAABmAABmAABmAABmAABmDAYgCnASBgDGAABmAABmAABmAABmAABmAABmAABmAABmAABmAABmDAYgCnASBgDGAABmAABmAABmAABmAABmAABmAABmAABmAABmAABmDAYgCnASBgDGAABmAABmAABmAABmAABmAABmAABmAABmAABmAABmDAYgCnASBgDGAABmAABmAABmAABmAABmAABmAABmAABmAABmAABmDAYgCnASBgDGAABmAABmAABmAABmAABmAABmAABmAABmAABmAABmDAYgCnASBgDGAABmAABmAABmAABmAABmAABmAABmAABmAABmAABmDAYgCnASBgDGAABmAABmAABmAABmAABmAABmAABmAABmAABmAABmDAYgCnASBgDGAABmAABmAABmAABmAABmAABmAABmAABmAABmAABmDAYgCnASBgDGAABmAABmAABmAABmAABmAABmAABmAABmAABmAABmDAYgCnASBgDGAABmAABmAABmAABmAABmAABmAABmAABmAABmAABmDAYgCnASBgDGAABmAABmAABmAABmAABmAABmAABmAABmAABmAABmDAYmBBnAa/3PtDwj537z0S/fwS+Ym47/4j0YjyQQMYgAEYgAEYgAEYgAEYgAEYgAEYgAEYgAEYgAEYgAEYWFgGxp+/kPFx5/NSxsdfygvz8+Kl/NvzsXHRz9iofr+wPmNjLyT5GZcx+3yYs8A5htNgYTOSgoK+MAADMAADMAADMAADMAADMAADMAADMAADMAADMAADc2Vg3p0Gk5OTEvaZmpwS/UxGfiLum5qSKT5oAAMwAAMwAAMwAAMwAAMwAAMwAAMwAAMwAAMwAAMwAAMLyoA6HHAaANmCQobDB6cXDMAADMAADMAADMAADMAADMAADMAADMAADMAADGQHAzgNcBjgMIABGIABGIABGIABGIABGIABGIABGIABGIABGIABGIABiwGcBoCAMYABGIABGIABGIABGIABGIABGIABGIABGIABGIABGIABiwGcBoCAMYABGIABGIABGIABGIABGIABGIABGIABGIABGIABGIABiwGcBoCAMYABGIABGIABGIABGIABGIABGIABGIABGIABGIABGIABiwGcBoCAMYABGIABGIABGIABGIABGIABGIABGIABGIABGIABGIABiwGcBoCAMYABGIABGIABGIABGIABGIABGIABGIABGIABGIABGIABiwGcBoCAMYABGIABGIABGIABGIABGIABGIABGIABGIABGIABGIABiwGcBoCAMYABGIABGIABGIABGIABGIABGIABGIABGIABGIABGIABiwGcBoCAMYABGIABGIABGIABGIABGIABGIABGIABGIABGIABGIABiwGcBoCAMYABGIABGIABGIABGIABGIABGIABGIABGIABGIABGIABiwGcBoCAMYABGIABGIABGIABGIABGIABGIABGIABGIABGIABGIABiwGcBoCAMYABGIABGIABGIABGIABGIABGIABGIABGIABGMgTBm7evC1nznTL1yfarI/+1mNTeZJ+0jmVMa9xGlAYMkJCQcpckNAIjWAABmAABmAABmAABmAABmAABmAABmAABpYqAxcuXpEt9X+TFf/+pryxrDT0o+f0Gr12qaaDeC1OGcNpgNMAIwADMAADMAADMAADMAADMAADMAADMAADMAADMJCDDOgMgvfeb3CdBOoY2PiXbbL/wFH56ti31kd/6zHToaD3MPtgcTrol6IjBKdBDhqDpQgaccpfI0Pek/cwAAMwAAMwAAMwAAMwAAMwAAMwAAMwsPgM6PJDzqyCP7/zF2k/8w+ZnJyMdA7pOb1Gr3Xu0zDIu8XPu9etOU4DnAYUfBiAARiAARiAARiAARiAARiAARiAARiAARiAgRxi4PNDx9yOf51RMNNOaL3HcRxoWDO9n+uz29GA0yCHjAGFMbsLI/lH/sEADMAADMAADMAADMAADMAADMAADMAADMyVAWeGgS431NvbP+sOf73XWbKIGQf5xSVOA5wGszYcczVg3J9fxob8Jr9hAAZgAAZgAAZgAAZgAAZgAAZgAAZgYGEZ0H0InBkCc3EYOPmkYTjhscfBwuado/lS+MZpgNMApwEMwAAMwAAMwAAMwAAMwAAMwAAMLCgDD9vrpPbb4YV5xstr8kl5k/xIHi6Mvnmv64CcbPhC7ua9DvnTWboUOmznEgdn0+PZLEkU9VxnqSINO+oajudWGcktp8HLR/JTX7ecOtooe45+I+evD8j4y+zLsIcDAzLCywgjBAMzZGBc7l3vlvM9vs9SsAN9jbJ8b98M05N9tosKAnkGAzAwawZePpK7fT77bdvzywOPMtjPPtlTfULuzeG9eXnvOvnk+hLJv75GKdl/LUOal0hc56D5rFnhmRnYeCZ3fw7plLXK2DdyeO9hOdV3Sx5mYRsJZmKW+5fD8mPHCfnssxNy5vpQRHtY682dcvKzg3Ky45rci+Lh8YD8OPgsyJznGSG8hZXTl33ySWmdnHlopCNW+FFpMMKZmpKHbbVe2xmH+TjXhKWFY0EmclmT8SH5seegbFi2QT7p6JOfHo4H069lou2w7LFs7ICMhJWpmfD2clxGHj8KfsYd7sdlPOy8HhtJxW98JCQM4zx21dEzt74vXLxizQrQjYznO4+dzZH1GfMdNuEtPQ5zxGkwLnfbtsjqwjJ5t0ErPt1yXitKDRukqDAhh2/Nt/AD8mWiTD65Ot/hanh9smfFBjl5fyHCJkyMUC4zcEH2LKuS2r2Nssf47PigyrIDH7YPvb6X2qWd8saeC6/v+blciSdtcAUDucHA/RPybnGt7DDst2vLW6/JeNp8viB71qecBnePV0nRvpk5ai/vKZU9l5bIO5J3Rm4wnZbZhWPt3olaWb5sp1w2nz/0nXy4JiG1zd/I+Z5OOblrgywv3SmXRxYuHtS5X4+2I1ebpLJ4g+w40Snne76RzzYmZLk6Vc0OzJdDcvL9MimpaZSTHZ1ycl+tlBTWyskhM87jcq+nSSoLS4N12KETsqFwnWzYd0LOdJyQT2rWyfL3fc8w+bN/ezv1o8OPlQZ/+H6HRBzm41zjfw7/5519HrnUKKuL1X7ulA3L6mTP0W3ybnGZVDb3pQZ6apkorrLLXdLGFq1p9NrYmfJ2vUmKyus87VqtF33W7bRpB+RMWJ1pY0Le2PidHbdr8klxsH2857PuOQ20wL6btnJp/t5S/zfLadB+5h+hZbbvyo+ybfsnoec0f3XDY70mLK81TF2mSJ8Rdp5jS5OJ2eZLTjgNrMpx9WH56XFI5ow/ixhdEXJt7ErAuNzr65O7C1LR1o5PnAazBZr75sJ1tt+rZcfXSHbK9ONu2VO6TvZcChkp5VyzkN90AFGhWEi+CBu+coEBdRoYHf8ze597nQbjQ31yOWxkbBqdcBpkex2A+FtlZuiEvJuokrc89aFb8tkaf4fwlNw9XCVFzGjJrffHY3UO+Z1Bz+TvDaVS256asXXvxAYp2tGd6vCcmpKRCzulyLHBL4fkzH8mpOjPB+Vyu3/gy5CcXL9Odlww69TP5PyOdfLuCaczM6Q8mp366cKPmQb/O8LrkIjDfJxrQtKR5j3ijxP/54J+2um+Qb60HGpGW/PlgJza9429VNGAfPmnKjk84E3vSNc2KXEHMMyct5H2Oqk8nqZMhbI4Ln//rzKp77ZnGjz+TmoTX+AgCNXKm1+5Vl5102L9TE5Ohr7n1CmgHf+r1qwPnP/fG/7TOhflVNAwnfBzTTfSEywX2e80GDwsb810pIw1LaxbznR0ynlnyqbrXHgmd3XKbphheXBNLg8lDfDDn/vk3qgtqE4dG00eHx+6Juc7OuVMT5ppnmFhu8cinAb20kueOLv3TMnU6JBc/jlVGXRhf3BNfnrgy3gzLI2nO8XNuW5cNH3Ws5i+HDCirram/vxeAjoZFbmw/Bg4LG/96XBwHcqHt+SyVWb9U03j2YIkDxnKTKjTIHmPay/85fDlsNx1Or1GB+THnm65/PNwtBM0Mh1TMhVioy777UKYZhxbAlw7dplvbG+OMzATp8F9p67VJ3etASNep8GU2kO7vqbcjI/YnVvW8gKdcqajW368n5q6r9e4TgOrjpS8Jqxe5YblsY/jMm7XAy1OR+0BK05YPb5lJzV+PXY8nHg692i4xjvDqlf2+N9POc6CR1vSGtv2jVyQPZZzoDswiMLDp6PvwGFZ7XQSO8f4zvL3vs8W2fk53rXNmC1wSw6/WSVfDvrLlnZ8JuyOz0fy03V7ySHDHlksKjdh9Wltk78ZUs+24+Dt1E8T/lScNPjibjoknDSbNtnh2sc85cKno6MT3yk7oHUTt9M9oq3pucbU9ILsWdHozvqaKW93DydmPgPy4TeywSyfyjyz3VP5mSdsOxsgb/zLtsi0378/LI5zwHQcOMf0O139Q8NWpwMbIptlPjd/Z73T4Mf962RDW0hneZRBeNApO9aUSeWuE3Kmp1tONdfJW+8fljPNG2yjrN7ZdSFLDyWP77mkjUwdYWHMBrAaugetqZ21Ok1zTtN+g06DkasHpXKld0pxSfkWOWNOIY1obOtIEnPUhxWWNb1Opyd3y5kTO6Wy2Kg42tNVV288KKc0HfvqZHVxcHRSOgPCudw0Fks/XyMqcq4tsBtJRrm511orRWvq5LM2LQuNUrumTDa0OiM64tgC7ZBPTvFOW2b8Da6RPvnsz+vkrQ+0nCXL4bsrE+JZQsm2K6eaN8jq6m3Jqam65NoaX9mfmpL06ZiSKQ2r+oRcbq2TDfu+kfMd38jfB7wdZks/fylX5BEM5DQDEfUYb5qfyU9fpuy2LkW5o7pK9lzq9CxP5K37JOtsn51okg0f6FIcdt2n0Dv7TJ0GO46fkNo/Jd8JGvYnGxOy+sPvjGU9NKxaOel3uvribjkgui7IJzXb5MuObjnVdsEdjOLY60+MpUMq938jn5n1Sn1n7PhCzjRskA0NuuTeTuv9ZNbnvLpQNtBDR5M7o78z1YeSvGhH8nI6k9J2iuQKV9r56NqPB7oUXPhmwdqufrfVtz+Brw77UOvOoTNUdER2iH3UenhIp76rrS9897hbf0/y6kmD75zXIRFtD+MwH+eaqDhyPFr77NVGuXbqCxG21VcHSKU14nqD32jexuXvDVVy+MI1OXPiYHKfBGewq3F/6llJ7X/c5+0b0/Arj15I7nGyt1EOt4UNGM3FfMvvNJ0502116O8/cDTtO87vOIjrMFDuNGx1Guiz/Bzyf27xl+VOA228VdnTxeJkjF7vGP3U9da6iSuMtWyvNknJf3V718/1eG2TDVB33wF9USzbIF8Oejvh1GibU0HjFR59uRgOiYffSW3pNjnja6BqnN8qbZIfnfUpI15WnoazhhVYr3JKptxZFlPy436jUum8kHSq8xrjWc5xvjGQS4qBzBUzdySpxvt6k6wOW+O1OpHaDDOjLYhZZjwNokdyZuM6qe/wNcpGrsknfzI24rTsSqm8e3zAw9nIrYPyrln246RDwypeJx+mmza+pPIyZZ/j2U2uRycYyHoG1E69udNypHo2tO8zRumH2rtHcua/ymS5MWLaU/exBnqUyrtfem3p1NUmKXLX/E3ONHjjTwflJ6deZdnEZ3J5j7nkhq/+59hNXx1M3zVFiSbvWsbue+cLuet5xpQk16A36n76zljhG7Ax0i07iuvkTNhSnE48+Pa8L7O+TMwgP5UhHU06Yt2TuT6kAx6+XG/UOWbwrHzSNSfSqrbD3HzYN9reTKPazoBDwFOH1WWtQtqKFj/JdnbYhvIabuTm7r7wzfi4v/1pMHkdvSB7zPSZ58zfcZiPc40ZJr/zwuZagy4Ly+StD2qtpd/O+97hllOsuFZOmRt86yzHSzulyLNUnK+umpY3LU+lUlS9M7lfp7M/SaJJfoxaInu0W+oLt8nfndUwdGDZiQ2y3N3jJDlgdnVhlXxy1VxezBcvuM56rr8+0WZ16H917NuMaTEdB+oEyDTDwLHLGrZer89yjvGdm2UpB5wGRiPLNnDjfU1S+WZCVtuf2m/tkcNaSXr/G3e0Vwpq9eQaToMpnZ7pNfx3v6wyZjT4Go2+xqIbbpxKUMAoe50G3oavCWFyvTp3076IOJj3m7/dOJrPH+2Ueh154n8RTk1Z61SGVQJDwzHD5DdGdNEYyNxITjkNtMyHzSiakild09UdQZXBFsQtM6YtiCirWpbGu41Rf3pdxDRvdUgm16qMmQ4NK6JsU4ZNu8pveICB18aAZadCNkJ2N+uLmv01JVO+TjBvfcdXZ3PfSd53hr4f6ru8gz8sLXTQiGuLI8Ly2XUNK2wWrDogPrkaxpjOhDPqs/rO2BEcuXV+R6ns6Qu7n2OvjVuXp9eXB+N9jVKy/gtjRoyX7TBt7h3fICWuk+H1xT0sbhybz/wI2WtA7YvhZDX1Vtv5hn/2iVmHtZdyc2ctePhPdnK6bVPnXKZOfV/4ZnySv0PS4IRtd4pGOiTM62IwT7mYT/ZyLCxdbrBjp7y1rFTeKNQVILrlodFnorMIlyca5czPwzLyeFh+6miUytJ1nsEJfrZnw5t1j9tO9WqsM26K3D0UvOc8zx76wjsAzSgnnus4nrX9ODNxGmiev7v+A8sBoE4Ac6midDzgNEhTxnKs7GS50yA5YjfQmf3ymYw8fpT8dBhrOKaplGglyazkeKY5WlMqTa+tr9Hoayy6hSvN89xrAkB5nQapTs4glJ5GcUQczGvShWXFR8MoXOc6WxynS/J7gxy+FYxDdDq4Fm0Wm4FMjWTTjKsBBgAAIABJREFUOahluExKDOeiyXvl0VtuJSGtLYhbZkxbYP72l3+zHOtvf8PNvl6nmiYbbDHTYYbrfyb/u3lNmV3sMsvzYM5gIKOd8tW9PLbLu6eBWfcJLCnp3ud9Z1zeY3Tau9do/LRDf6e9JnFEHHxxD69vRdxrP+v8DuP5Ee+J8HANDT3x5nhelC/dx6C0TGqPdlvLjiZn6RyUDcvq5LDuheTsmWGwYc1s8c+0NM7nhW55kd7kTKmAc8hnr8z8VtsZ2HjVZ4+89tW0M2rjgisA6PVvHU7Vq83nWb994XvPR6TByT/LIbFN/h418tq+Lg7zca7xxs1MO7/zQ5tkveH8w2ty8sN1sryh07OZ+MO+E7KjJiGr/1wnn7Rdk8uHzUGnXkZmzZtubOwOZDDDTG7GHNyrxLzG+a19aM7+Jc4xvnOJ4bjLE2manSWJ1HHg/I7jOGB5ovwpM1nuNEhOuUrrUTUrIuZvp7LhVCaO65q4RsYb07t09G9q53u9xtfwi6p8pXletFGagdPgeFVq3cmIOJgVu4yNTQ2j+kTITAxDF59u0engHrRZbAa8HUAB/dX55y7toGU4Yt1VP+PpbEHcMmPaAvO3/1lDX0ilUwY17IZO7zJp9vUj7XWG0yBGOiLsQ0Ajf3z4H4cCDMDAYjGQ0U756l5mvF52yw5j5KxZ9wnU2dz7vO+My3uiGtB9smfFQjsN1KmN04B30izqTSMDcrnHdBjob8NpMOhdgmLk0k4pKd0ZXDrLLReziAP3Lsn3RGSnpM6SXbZTAkusWDPLQ2Zc+eqtOnAlbCbUlNrhZeYguymZitOp7wvftAORabCZy+iQmJqSOMzHucaMF7/z1U4Y9QarXZmmDWYtMb1TLhtLBTnczIk3LWche5JYs9X9y2unsc3nd7A8nZMfufgdZyNkTbfjJHCWJDKXKsrkOGAj5Pyxg1nvNJga7ZM9pVXy2a2QKeVqKM2KiHpmQ5foUM+suTxREoDkRjK35NT7xkbBlvH1NVyjGrrms0OM9sMLJ+TvxqaslsHSityKRntEW3K5Eq/DwoFT42DEKyIOmgZnCql2NKZ1sEwlN7Dyr8eXi4aUNDkc5dK3UZELK2/tdbLcqEzNZBP1aFsQs8yYtkCdEOaeBEZcrcaPs+62lukVvsaXdW1ys0NnhlWsdETYB8pBLvFPWuA5yxmIYaei7J3VWJ6z06BU3nLsr2GXvXsf2HUvf91Nl0fy7Y/gGYhihxcV/6kRrfvhNKAMz1cZDq8PjVxqlNVrtsgZP78m7/xekg6AmZYNa8P1yLXPdZRxqb3MpcGc1k9XhOybYtZhlQ9tT4fUTy07bNhBjXOcTn1PW93gL30a4jkk4jAf55qZ6s/1BldGnmalLg8G5K47k8W0rUPyZcJ4b5vpfDkgX1aXSX2X12mr6Z8rb7pPQmDvzalHcur9qOUPQ/LCceaFODSyMo9M7fntvsNW/Pubop/JyUn3mJm/27Z/Yi1J5DgMnHOm4+DzQ8dC79UwnfCd+/gOKWs5wmP2Ow00I3Sj3sKE7GgbkBFjbbmpl4/kx2bv2ozaYCvZ021c90x+OlwrlX9KeGcaaLiDh+WtwjJZHtgHYX6cBroRa0l5k1x2NrV7+UjO71nn3Sjq5ZCcrE54N03VNfUOmxueTUlyA54Nnk2hRy7slNUrSl2nwdTLa/JJqX8D1nG523FY/n4/CflD7VitPiw/OXFSHR53y541WzJO/cRQ5K6hyI68NStyRl5oeWnbJiWFtXLK5txKj70x+OFbj1IvQ6sMJuRDfyUv0hZMSawy42tw6cip1f/Vaaw/PCUjtw7Lu2uM0X+W06DUd9243D1eK8s3fpeaERQnHTE647Ijj418zZGXMLqTpzBgMxDHTtn27stBY6DIg07Z8Z+18u48OA2WF9aK552g9Z9S72g83ePKU498OSxnGtZJbXvqXRI5s1OXklnje4Z2LryfkJJio/PB985wGIkMF3uYeo+jhUxNhdSHrLaSb3NttMpJbmKNYtY2aOlOOe+0914Oy9//y9cGdfgIsUeB9vSDTqn32cpYswz0GSHhx0lDRodEHObjXOPowHdOlhfn/Rr1/bB7m+VsPWm1Fx3bOi73OrbJal3mzc/F/W7ZkyiTdw/f8ixdZIU/I96G5dSeJjnvLjE3Lg+vn5AP14TYcW2n/umw3PXHZWpKHrY1yic9QzLu9JFZSytFbWZOnTyKg2w8vqX+b5ZToP3MP0LLbt+VHyXKKaCOAz2n14SlXcPU/Q/0GWHnOZZbZSk3nAZqIB9fk1O7NkjRCnud8jVlsrxwnWzY1yl3nQqRXvfykVxu3mCds9YwX5mQD9sGREczBDeX05EYZcGRGFOP5MyHxnS0Bydkw4ffBV8MfY2yfG9f2oL0sGun5ZjQtdVLCsukcp93Ux2rwI3ckpMNCSkqTm7uXFJcJu+GXDdy9aBUFjrpT1jXXD6+IeU00PRrWP+ZkOV2WKtXrpO3Gr7zdF4+vNAk7xY7672vk5LybXLKbKCHvJAwDLllGLIzP3UJiVJ3Ex99kVmfwnVS2XDC6whzGH7QLZ9Ul0nRSrtsrUxIfdtASJmNsgXJfM9YZgK24Jn8dGKbvFVcltxDZGWZFFU3yfkHBkd2B9pPt07Ih+X2XiPFZfJWwzdy16n4xU1HlI1y7uc7JM+NvEAf9IGBhWfgwQl517Hbvu/l/2msGzz4jdSXl0nRmqTdXl19UH4c6ZM976eWVxzp2CIbWoftOA/Lyfe3yBmzLmjlZ5/sKUzN7Ly8V0fpDcmZhipZbYW9TpYXbpDP+lLOAOvd+HJYzu/bIEXFSbts1cma+zx1wMt7E/JZ1D5Q+t75cyr+JeVb5OStW3JyveE06GuU1c3BNcAv7y0Lqatiq7KzzrKQ+eZle2pqWE69H1I/0nK2ok6YYbyQebHYYffJJ4URee1b0iTZBi21bKm2n9/a1enZ2NUtV4E6rLanh+XvuxKyfEWZrLba3AnZ0eXY3GSa1cGadi8D570aCD9GGpylQ90R4H6d4zAf5xp/uPzvcuHkXx58j9w6YdU7lheXyfJl2sek7bET8pOPv4dtdVa94ZMeb1lIahaDt1sHpWRZqXzYkax3WM/9kz5Ty3SZlNQ0yfn7xqAJW/ufmhOegQuePHp8TU42VEmR3UZevrJWwuMH2x7dcoDrCxevWH0hf37nL/Neh9cwtZ9Fn5FrupGeoC3IHaeBUbDHRx7JyEjQoHoAeDkuI4+fpbyuxv2e6xbl+LiMP36UOS7WBs+Z4myGZW/82hfM+KkYYVk6jmbQcVH0CYk/z8VAzycD47p5enAK6UxtwczLTLK8joyHMO4fdTseoyzOUzpmmm6uD8m/+eSTsLB3MBBkYPSRhNrO+dBK60iZ6pFTUzI+lzqSxt+5/+UF2VMYthwdtoX3CwzAwEIyYLYbZ/Ecuz0ZyKOMnfqzeJZh22M7JIx7AnHkXPC9iibpNRmP3g/E4uvleOb+nEwaX9iZ2rMy07WcT59f6CPvvd9gde5/dezbedNKw1KHgYaNXZ3buyxb9MtJp0G2iD+/8RyXcV8DV5cnKtGpav5RyRhQDBwMLH0G/E4D8mzp5xl5RB7BAAxkYGDk4bCvU+GZ/Livyrs0ZYYw5rf+mB8NHjQjn2Fg8Rh42Fobb5bBrGydzqTZxrK5s9Ju8RjIzfLmLE+0MDqOX2qStz444VkBIjd1XBj90Cqoq7Mhsnby9/b2z7mOrmFYKzksKxUNG82DmueiJjgNcuaFOyAn/1wmy8vrZMfenVL7pzIp+vPB1H4JOZPO/CiYuWhsSNMM2VWnQXVquQ30m6F+2DwqcjAAA0uQgXsdW2R18Tqp/GCn7NlVZy1TF7o05RKMO+8h3kMwAAMwAAP5y0CffFJ+UH7i/Uz9MosY+PpEm9XRrxsXz8VxoPdqGOo00DDz1w7k3zsAp0EWFfhYBVOnuz82prznWvpIDwY6bxgYn9vSF3mjU/69uGO9C8h/bCUMLF0GrCUyk/U1d3NC8mvp5hd5Q97AAAzAAAzAAAxkKQO6qbEzQ2A2SxU5SxJpGFGbJ9M+zd0+CZwGWVrwKZS5WyjJW/IWBmAABmAABmAABmAABmAABmAABmAABmBgrgw4Mw604183Mm4/8w+ZnJyMdATpOb3G2fSYGQb5yyBOA5wGkYZiroaJ+/PXsJD35D0MwAAMwAAMwAAMwAAMwAAMwAAMwAAMvH4GdB8CZ3NkdQLockMb/7JN9h84KjqbQD/6W485SxHpdXoPexi8/vx7XWUIpwFOA5wGMAADMAADMAADMAADMAADMAADMAADMAADMAADOczAhYtXZEv93zyOAXUOmB91Gug1eu3r6qzmuUvDUYHTIIeNAYVsaRQy8oF8gAEYgAEYgAEYgAEYgAEYgAEYgAEYgAEYWCoM6AyCM2e6rc2NdQkj/c2sAvg0+cRpgNMAzyEMwAAMwAAMwAAMwAAMwAAMwAAMwAAMwAAMwAAMwAAMWAzgNAAEjAEMwAAMwAAMwAAMwAAMwAAMwAAMwAAMwAAMwAAMwAAMWAzgNAAEjAEMwAAMwAAMwAAMwAAMwAAMwAAMwAAMwAAMwAAMwAAMWAzgNAAEjAEMwAAMwAAMwAAMwAAMwAAMwAAMwAAMwAAMwAAMwAAMWAzgNAAEjAEMwAAMwAAMwAAMwAAMwAAMwAAMwAAMwAAMwAAMwAAMWAzgNAAEjAEMwAAMwAAMwAAMwAAMwAAMwAAMwAAMwAAMwAAMwAAMWAzgNAAEjAEMwAAMwAAMwAAMwAAMwAAMwAAMwAAMwAAMwAAMwAAMWAzgNAAEjAEMwAAMwAAMwAAMwAAMwAAMwAAMwAAMwAAMwAAMwAAMWAzgNAAEjAEMwAAMwAAMwAAMwAAMwAAMwAAMwAAMwAAMwAAMwAAMWAzgNAAEjAEMwAAMwAAMwAAMwAAMwAAMwAAMwAAMwAAMwAAMwAAMWAzgNAAEjAEMwAAMwAAMwAAMwAAMwAAMwAAMwAAMwAAMwAAMwAAMWAzgNAAEjAEMwAAMwAAMwAAMwAAMwAAMwAAMwAAMwAAMwAAMwAAMWAzgNAAEjAEMwAAMwAAMwAAMwAAMwAAMwAAMwAAMwAAMwAAMwAAMWAzgNAAEjAEMwAAMwAAMwAAMwAAMwAAMwAAMwAAMwAAMwAAMwAAMWAwsiNPgl3t/SNjn7r1Hop9fIj8R991/JBpRPmgAAzAAAzAAAzAAAzAAAzAAAzAAAzAAAzAAAzAAAzAAAwvLwPjzFzI+7nxeyvj4S3lhfl68lH97PjYu+hkb1e8X1mds7IUkP+MyZp9XZ8H09HToR6ZF9DMd+Ym4T/hDARRAARRAARRAARRAARRAARRAARRAARRAARRAARRAARRYaAXUIYPTYKFVJnwUQAEUQAEUQAEUQAEUQAEUQAEUQAEUQAEUQAEUQAEUyAIFcBpkQSYRRRRAARRAARRAARRAARRAARRAARRAARRAARRAARRAARRYDAVwGiyGyjwDBVAABVAABVAABVAABVAABVAABVAABVAABVAABVAABbJAAZwGWZBJRBEFUAAFUAAFUAAFUAAFUAAFUAAFUAAFUAAFUAAFUAAFFkMBnAaLoTLPQAEUQAEUQAEUQAEUQAEUQAEUQAEUQAEUQAEUQAEUQIEsUACnQRZkElFEARRAARRAARRAARRAARRAARRAARRAARRAARRAARRAgcVQAKfBYqjMM1AABVAABVAABVAABVAABVAABVAABVAABVAABVAABVAgCxTAaZAFmUQUUQAFUAAFUAAFUAAFUAAFUAAFUAAFUAAFUAAFUAAFUGAxFMBpsBgq8wwUQAEUQAEUQAEUQAEUQAEUQAEUQAEUQAEUQAEUQAEUyAIFcBpkQSYRRRRAARRAARRAARRAARRAARRAARRAARRAARRAARRAARRYDAVwGiyGyjwDBVAABVAABVAABVAABVAABVAABVAABVAABVAABVAABbJAAZwGWZBJRBEFUAAFUAAFUAAFUAAFUAAFUAAFUAAFUAAFUAAFUAAFFkMBnAaLoTLPQAEUQAEUQAEUQAEUQAEUQAEUQAEUQAEUQAEUQIEloMDPP/8inWd75GTL99ZHf+sx/lDAUQCngaME3yiAAiiAAiiAAiiAAiiAAiiAAiiAAiiAAiiAAiiQgwpcunxN6rc2yop/f0veWFYa+tFzeo1ey19+K4DTIL/zn9SjAAqgAAqgAAqgAAqgAAqgAAqgAAqgAAqgAArkqAI6g+A/are6TgJ1DGz6YLt8+tkXcvzr09ZHf+sx06Gg9zD7IEehiJEsnAYxROISFEABFEABFEABFEABFEABFEABFEABFEABFEABFMgmBXT5IWdWwTvv/kU6Ontkeno6Mgl6Tq/Ra537NAz+8k8BnAb5l+ekGAVQAAVQAAVQAAVQAAVQAAVQAAVQAAVQAAVQIIcV+O/DX7sd/zqjYKZ/eo/jONCw+MsvBXAa5Fd+k1oUQAEUQAEUQAEUQAEUQAEUQAEUQAEUQAEUQIEcVsCZYaDLDfX1/TjrlOq9zpJFzDiYtYxZeSNOg6zMNiKNAiiAAiiAAiiAAiiAAiiAAiiAAiiAAiiAAiiAAl4FdB8CZ4bAXBwGTqgahhMeexw4quT+N06D3M9jUogCKIACKIACKIACKIACKIACKIACS0aBJx11sqnt4SLE56mc3VQnbU8W4VE8IocVGJTWrV/JUA6nkKTllgLOpsezWZIoSglnqSINm7/8UCC3nAavnsrA1XPS9sVeafzitPTeGpTJV0ZG/tEi66tbZMnVF54NytAfRjzn8Wf/vjJpvDqPARIUCixxBSb/eUN6249IY3OLnL16R56YNmCJx33BovfkjvT/c3KGwfdLY3WLDM/wLi5HARRAgVkp8OqhDNxO03n06qEM/fZ8VkHP9qYnt29Ev0PGBuXmfMTn6l4p2Nc/2yhyHwokFXjxVMae+T/B8jI2eE5am/dKc2uX3Hww03oBYmeNAq8eys2uFmnWuvCt+972sJuISRm+1SWtzZ9La9cNGY6qL3vCirDRr57K0IUWad6XISz32SLyql+aVtXJWU/DPGacnHD0vTD41Pkv+vvGASnZ1O7tA3gWYcPjpDf6SZzJVQUm78vNC59LzbIaaerql4EnIfbTw46v3L16HmKj1WYbdjrUjiev8fRpqcavJsPDC4nW2GC/1T92tL1fhp5FZJAn7hHlPOJWDi9NBS5dvmbNCtCNjOf7z9kcWZ/BX+4rkCNOg0kZaq+XNYVlsn6rVlbOSa9WlLbWSFFhQo7etjPyQYusr5q/TrChE1VS1DT3ht5wa42sb70fSdvkhd1SVHvaqOjclx86boj/nTB5q11+eOANpr+xVBr7vMf4DwVyU4Hn0r8vIUXr6qS5/Zz0XjgtR9UGFNdI8w2jQjYPiR/uaZebL+YhoEUK4mZThbzhsSFxHtwrjfNiLwfleKJMmm7EeaZ9zYtzsrN4o7TFdqaG28QZPDH00jCbGnohB1EABeaugNbRllXJ0cGIoPp2yxuNvREnF+LwpPTvq5CST0OM16v70lpdJps6YnRWZYraoqcrU4Q4n30K6CjqClm/c6807jM/LUZdJVlHWvPe59J24Zz0tn8um9aWSc230e2P7NOBGKsCYzcOSGVxjexs7bLqws2bElKgg0BMp4DasNoyKXlvr7R2dUlr00YpKdworf/0afjPFqkprJCaphY529UiTe9VSEGtL6yxXmlcm5CaQ6el98I5aTtUJ2uKQ8LyBf2kfaPXvsaNkxvOc+lvrJA3MtZVn0pbbYU03XJunJThCweksrA0+E6Jk14nGL7zRoGxvr2ypjghmw7tlpplddL4xXZZX1wmlYf6ZcxWIWO5e3BOmj32ea80vFMmBWuPyIAdxlCHab/t3411smZZnZz1d/bfOmC1eb02f68095g2PWn3CxL1crRdB9bWS2VhQhr7fO1iuM9Jluu3NlpOg47OntD0Xb12U3Z81BR6Tg/qhsd6TdifhqnLFOkz+Mt9BXLCaTDculEKqo/IgN+Yav5NPk+Nrphnp8HkP/ulfx5GmWVyGsiTO9LrGX0X3pmn4fgdBDgNcr8Qk0JbAa08VX3lbRTpqd9OS1NbVC/U7NTrb6yRVp+DbnYhLcJdL85JQ6JeNr9dJcd/m8nzwu3MTEJIXjspw1f7ZcipVccK4KkMXEgzwjcQxnzF1RtwmE31XsF/KIAC86aA1tGKK6Rk7W7pD7MXr6Nz/dUNaVpVEWhga71zTWOv21kwJw1eR7rmFGFuXnoK3JCm4t3Sa3YK+yI52bNdCrZ2eZl9dUeOvr2RJVt8WmX1v8/aZXPAhj6XH7aWepycWr8p2nnOw8PYpd1S5OmAvy+tVRWy85LZwfhcendWGIPdJuWH7WXS0G1eIyKDR6Q83WCVkFkG8eKUyp2xvt2y5u0qWeOJc+q8+8ucZfDqvpzdkpCidz6X/g6/IzpOet1Q+ZE3Cqh9rZHjlkOtVxqX7RZryOirQWlrOp1cqihmufNI9s8WWR8oq54rrH8s2739XGCw6FhHnVSeMB0EIff2aZn2tY3/+ZWsL94t/e7gN7gPKpcbR3TTYv1MT0+HJkidAtrxv3rt+sD5DTVbrHNRTgUN0wk/cDMHck6B7Hca/HZEyldFNDD92RXhNLCWM+nqkrMXIqaavbAdD9byR3rdYLKSFbbkh07PvHpOznZ1Sa8zHdR0XPjjJCJaSUo300Be3Jf+X+zRbNa0tS5pSKiT5KmMjU2609MGvqiShq7k1GRnCluo0+CVTv30xTEkXhxCgWxSQMtRpsqTiHZg3zFm7dgpDFkWQ6dy9lp24YYMO9N67KmlZ7dXydHbIdNFM5Ut15Yky2BgCbUXg3LzwrlUefdlQGicfNf4/9WRXOXHBkW/086MenDDTq8zddXXEa9pt3WwbOaFGzL0whFGp8k+l6Fb56Q3ZEmoJ7/0y7BTOdXptPZ9KdvrnxYfkk86bfZCl5zt8ukTZhNVhJDn9JszF54NSr8d3k176abJMbvRa0/5DbOpSX0nRdMU4MMQ3w3Lms7cJWevMtXXkIefKBBUwKqjfSW9rRulxNeZZV0c2rmeLItWnctve9SuX70faGgHH6y2y67XBU+KaMO+cLv84DgytDMsrN7plHW/jXLCdO2/LqVp1CVD0yUy9uC+jKXpBHaC5RsF5EWXNGToONX2wM5LQa2sNsi3vJ+CymTrkUmZNOtmdjImu7cbo+rvyNE3wwaSDMrxtxOp2V6DR2TN20eC67dr2/tN53iyEzXosNKOyI3Sata7DEkDswwkZpycMJwO19uZVhHwzzJ4KgO3bN79tjdWep0I8J03CmjdJPGVvVyr4TTwCBCn3Bk3KL8xZuOIKL9hZVVk6KjOGDDCDPyctJyFDT1GW826Rh19pdLQbR+H+4ByuXDA2QB50wfbI5Pz4MEf4jgHTMeBc0y/0/1p2Op0YEPkdCrlxrmsdxrc/LRCatpjTg/3Ow3s0QYl1buTSxrpVN11FZ6pZprNVsd7d680vbddjnedk7b2XqvTMdDZ/0eX7FxbJpW7W+SsPT2zvPaInD0UnAFg4hMIxzypv41KTXLaWp2UF2+UnTrFrfmcDD/rl+P79srO6gopr0tOZWu9lXwRBJwG1hRSJ4728i1r94aP6vPHg/9RYCkroDMNwjpyPHHWRkzILAGPbZiU/qaElG85YpVjncJfs7ZKmrVMDbZbU//VTiSXAfg8tSRYjLJllcfWFtm0tkYatPzq8klr6+Xsg+dy81CNlG/abYVvTVf1TP9OEydP+vz/aAPQHkWoMw6048vpvHcvfS4DxzZK0Vp7WaeuFtlZXSWNfV3e5Yn6dktBY4u0bkrI+q1qZ3RqbkI2d92XsRufy/q365I2aWuNFHimuPs0t7T+3JoKv0mnu1/oktbdNVLgyTtfpfzBaalZWSNN1rJTXdK6s0rW/LXdqsCH2kRNmz6nukX6v62TmqbT0tt1Wn4YTNrFJ927ZY1v6n7N0S5prrJHD6WxqTLWL83vqK1NLvFwtnW3rF+ZkM0d5mgfu7Hc1yKb3jsgbRe6pK37TozOSzdT+IEC+aeAa4d1yYlEcDCFUReyxLGXslizScuiLq/hXxJDRweG2TyftNoBlqHDdfhbndHaIsNj/dK4KriE0nBHvZSvNJYDqUtIyTufy03H0ZCmLmnW8ZyYPeneLiWr9hojAZ0zfKNAiALa6bP9tAxcPS1H9+l+BecC620H2gN2MBnbICGP41D2KaAdjO4ANd3jr/iAhC06oe3q9bYT6cm3G6UobHk2UdvqOAR89TVXGl/dzz0esZdBzDhZwVgzZOyR3+57w3yA8ducZWActn763inx0usPhP9zXwHl3ZlxGMV7uAqecudcou3FVdqu9M3Occ6b3zcO+Jaodk6qQ6BKjl66IWdbP5fGfUekzRms6lwi/dK4ImRZI13CrKPO3UsJ7l3BcupH59nk8kGffvZF2nT5HQdxHQYaqIatTgN9Fn+5rUCWOw20QlJlTxeLkVG+ioVVMTp0xzM1U149lLY67zq1WtEuShwIdKx7K9oaF+eFkoqLtb7divT7CnjDSd3r/vJVakR8I4DtCzUcv8fZ20jQNU+D69hZ0zv9m0O5D+cHCmSLAsmO94JCXXOyK9BgTqYiohHjsQ290uiOoLLTPubdrDy4PFG8sqXl0b+urDUDYJXOEjJH+ulU8jKjPGeOU2guaWPJmNKqexsEnKy3DsiawFq3T+Xs9jIpMDvS1A6t8K1R++S01BRXSOX2Ls9moWPd26XAXXvcp7lqvaxGjv9mj3CxI65xS60P7q2Uq21zR8TY1z8ZNEcGh9hEfU5xhWz27xejxz0OCg3wudz8tEoKVthOA/sZQZuaXDfam1fWAsLS9La5Xm7yfVDyV9+6v3a4fKEACoQoYNphq1HtLAdgX+urC93Fk8rcAAAgAElEQVT81OgEc4KzRp8ekJv2CH2t53lsx4tz0vhei2fk7NCxqlRnmhNO4Du5JMeatSHPvHVASqo+lwHDQaC3P2mvkwKjbhVVl/Q6DZ7LwNGNUlR7JBBeIEocQAFHAS0bVt0nuaa8OrMrCys8zuzw2Yb6riqNwb/zIL6zUoGxc7LT3HBYnUxm/c5IlNZ7HEdBaIendW2yjpPcI8Aeye/f+sWu64Ut5anPCOwVEzNOWl/zOJXN94aRjuRPM56Bk55BeXo2XnpDwuFQziugg6MqC8ukvG6jlC9LvxScK4a/3NknBo7VyJo3E7Jmpe5nUC9n/fuIuAHYS38FZgroBUnbXeQMfL1wWqy9SxIHUoMVdAaas5SSG6b9Q98Zm9qtPjC494uTG/+fbPne6tA//vXpjAkyHQfqBMg0w8AJUMPW6/VZ/OW2AjngNAiOGp68ekAq1Rjbn01t9ghQs2LxqlcaC3dLf9jUb9+oM23oBTra/MsKaWUndO3G5NQwf2e+iZVWntzRH+YJ57evoTxrp0FkHO/L8US4J9qJAt8okDUKPLkjZw/pbJxSKdBNkS+ZnfFayQraDGtUutuA0jWsNwY6tc30B5wGMcuW2pLA8gBql/xOCr990VFdGeJkxi/5WyubFd4NiNW2eaaah1zjBORvwKkd2nnOOWt/q57GVHbnrGlrrYqtobnnnHODd0aVZeOMiq6OiClpPJdmqY4op0Gq89B5klaOw+y5tbyD8Uy9PuA0iIq7bp+j60V7HCU+7Z0I8I0CKBCugL986bq7poPPrAtpY1hHyobU4XS9bXfDS7VjW7vcWT7acVqwwiybOhvLsE/hMUse/edXUhliq/sbTQevGYA37Ki6pOs0ePVQftiekDU7vU5YM0R+o0BsBfwdVi90lkyFbD7WK0O6vOlvvXL8r1VSVGyUl9iBc2H2KODfg8Cub7l1Xm9KtN7jbDivNiu8fZrssHTatpNX90rJqno53jcoY8+eylDfEdmcqJCisNkML3SUdZ2cfeJ9rmUHY8RJZ315lq/zvzeMYCf7dkuJ4bg1TiV/mu8UezZYnPQGwuFAfiigy1R37ZbyZaW2k/acZ8CUV4SQcue9wPpP9xGJnFVoDcwKr+eEBGUdGj5hOOS0bPjaNe59yr5d3uKWc/defmSFAjNxGmiC3q2qsxwA6gQwlypKl1icBunUya1zWe40SI76dBuHTt7Y645rxWWsy1jD0axYmL+d+9xv7yhXNaZOxci9xN+p56t4+K8Lu9+5ZtGcBrq8SHHKmeI4VZLf2+WHsI2knUjyjQJZp8CkPLnVIptX6bqNzhTQOE4DkbHbLbJ5bZkUVW+X5tbe1J4GtgYBp0HMshVqSyJskd8uZIpTIHuetcumVQekX+2g+7kjx6vMDrMIPazAfB3xoTYu4n5PmnzXeM4ZsfaE77XBOgOst0mXPUrIpt1H5Kyzx4t7uy+uejziOaF5YIWj8cww08ATR/fhyR+e5/nS7LuUf1EABUIU8JSh5HnPhsNm+dNrCyvcwSHe+kyNHL3thK/rZDtLFA3K8cR2+eGSMQMr5JnOnYHv0GvTl3XT3pi/PWFruv76uRytLpU3Vn0uAyGOEM/1/IMCMRUIzLQZG7QGVejAqpqtR6R3sEsaVs2sUyrmo7lsSSigo/IrpMS/aXuoLUtGWOuezv5g/npoKklq97wz/cd+65LmOh1BvVEavjgnQ13bpaTJ2i42dZvddi4/esdzzPonTpx0JtmKKmnsOCe9F+xP225Z8+ZuabugS3KZwSbjeHTQPOb7bb5T/O16z6XB9HpO808eKZBsn/Q+uSGtf60Ibi5vKRFR7iJU6t0ZMqBMZ74cq7L2pIu4Lfywtv3cwQ2+tpR5h7JvDwSbSTk3g+D30lYg7vJEmgpnSSJ1HDi/4zgOWJ5oaTMwn7HLcqdBciRo2s09zQqBWSExf/sVfXVOdq7YK05VJ6qh5zGy5nN84Q2f0PXBfQeNfz3hGMfdn4GwQzrIwkbFOmvoOs/Wjs19Tqrc0PmBArmtgK4HWd1ib34c0cETYQ8mn9yRXp3mX5yQpqup5XRCnQYxylaoLYl4dpRdiIqTPxOtEbUrQ5yEa8ukwF2yKEIPDUztoDnqK2CH9KKI+z1p8l3jOWfE2hN+REXX2mw5OQW3qPa0vSmZhhFiEyOeE5oHVjR0xtUcnAY6CjkTZ0Zy+YkCKOBTILTMJpdqW//tfe9SEnqtW9584fj+1dlF1hJFuoGxNRsotddLlJ31BZH8NzR+Pvvmu1E7AxqvJg9G2h61fSsS0njpvvTuS8iatLOqfA/gXxRIo4C2P1LL/gUvtJZp9S/hF7yMI1mqgDpd/UtiWkmxly0Jbl4sojbLWdLN2jw5MMPUrh8uc5yxIeK80tmxITO4rFkGxqby5q1x4vTHjZSzIMxpYGy6bM0y2NrlXYLYfJ7+9tQ7RWadXn+4/J/DChjtk1f9xt4eqSRHlrvUJZ5faqcDM1wi96Hz3Br8R9tu7gwfe3PxkOWP9JlrbOcd3AdlzIUjcTZC1nQ6TgJnSSJzqaJMjgM2Qs4FUuKlIeudBmJNt62S5tupDj1P0s0KgafBl2o0eq7XZSZ0OqPbqWZvhOx0vBsXexqb6tkNnSqvzwmfqeAE5QnHOWh+m2mwjod0kMVxGkTG0XwYv1EgOxXwrnFvpEE7c93O74gOHnUsuNcY9zo/b38ua9ylZ9Qm+BpDMctWaKeRxy45D0w6RAOVyNRpEV+czFMi0fZN7Epumz0iSzsNwpbrsZbbMTUJ2CF9YoSenjT5rvGcM2LtCd+olBuXpH4+l7N/NfMgxCZGPEeXOgp1NOvSTb5pvGqbPQ5frcRHjMrUa8uPOUPafGlORZxfKIACUQpElFmxNpnfKK0ndrvLZoi9Eadjx6KCtI5r2d7aJb1NVe5ybepULT92Tlqr7I3i0wZgn4yIn44GDLOh4nSQ2ZvPh9p/Ddpj+2Y2QjFOtLkmXxXQ91CVHP8tPP3Wshi6XCEzW8IFyvKjuoyP7sdnbsaeSpLO1C+VBv9a6VrHMTdO1brtiqBzwKof2uuhp8K0f716Kr2NFRI2m8CqJ4XNMrBujRkn/wND7XKS/bSzDDQcj+0Vkdmk1x8f/s89Bf4YlCF3zyKzfaKDjcy2iEj6chcmjb0nyC3vufA9aLzXhP3n78PSNl6qbeLcoW1EY1k6uHeEybnvFf/+luhneno6NG07PmqyliRyHAbORabj4L8Pf+0c9nxrmE74nhP8k5MKZL/TQLNFpysWJmRn+6B3zetXT+XmodTajP7lKqwNgKuPyIC5LM+DLmlY693sM6qh5+/sV8PsXXc7uaFd5du6+XA0P/5wAlf6KzU6qjbEQaHh+Buu/rhbcdzeJcNmI+G3r2T9uiMyEHgwB1AgWxR4Kj9sTciaLS3e8vzqoZzdnhBrlKqdFN1wd/0Je58TPfbsnDSuLXU3/R3rrpc1vjKijevyT1O7vOl076bUv1bIccqWvzxaN4Y2eLxOgzhxspOX/PJtgOw555/y+qRdNhX69nD4o0t2btko65eE0+COHF23UY7efppKxqv7crzK3IclxCZG6CrWCLgKabxkhDd2R47WVkn5m8GZBn6bai2X4ufj9hFZv3a39LuNCpwGqcziFwrEVCCqzOrtutmwriNsOG+fdNRJgb8OZ9nzevnBLYt6c3LwRoG5n4s1iq9UCkL3ooqIb1T8bKeG10bZ7x5jFHeo/ddH+et49t4GlZ/2px8lGxFNDuefApM3jsjO1hup9bUnddZKlTXYwVMUVBpdl7u1XkpWbZcfjJHZ+ada7qZY27cl5n4wYUlVm7pqt/Q6bWDL7lQENigOtG3/0CWtjA5HM+xnySVbSraH7MviOFEDQBoBxIyTcUfoUpSxZhloIH7bKyIzSq8nIvyTqwo86dkua9bWS6vVDnGcBpMy3LVd1lS3uLOeM5a7FzektbXf6KualKET9mwgj3haZ4l2+CYvfShtjQek95/OoFl7SV5fH5YE2njJvqkC314fcO/JgJz5p35ro+UU6OjsCU3T1Ws3JcopoI4DPafXhP1pmLr/gT6Dv9xXIDecBppPz25I2+4aKVpRJiW6AbIuwVFYITVNXTLkVIj+CE5nf3LpgKwvTt1TtG67tN521j9PAtC/LyHN7vq4KSjGuuql5ltjk9VXT6X/kK67ba+zuzIhm9sHLa+zMz09dXfq15NvN7obj2jhS30ScvQXSY4o9ix98lw0TgXFFbK53Xj+P1ukprBMit78XJzi3b+vzJ0an3zicxlo3S7lxWXJtYDXVkhJ9efS72iUiha/UCC7FLAawtulvLBUitbqsjwV1hr4Da13vB0vY/3S/E6ZFDhL91QfkN6rXxkd5HYZWVkhlXW7peG9hKyp/twzWmusb6+sKSyTki3t9rJHKlXmshVqS0LskobmtS+Z42Rm1s2mRGojUPOE81s31zI7y347LQ3rymzdnPT2S2Ots6yTiFzdK2sO+dehfSit1Rul1d/x8KxdNrv3PpWzfzWu+aNFav7a7s0TjdfVvcbyaXekeW1qiTj545w0VVdIydqN0rC7TsrXVklDh+H4kRCbGPUcfdYzLwMl6+ql7bf70lprPFOvC7GpgXxeqXtfHJBejwYPpbW2Xs5iVx3i+EaBzAqoLYwavWrNptxo2IhkcJ463JsVUrJuu7T95jSiU48MWxtYG8l+p2DqjpBfHrvmO2/ZqDIpst8rRcUJ8b97Qu2/BuOxfXa4r+5La3VZwDnteyr/okBSAWvfn41SUphsQxQUV0lD6w2jc8oWarJfmtaWBQdYoGMOKdAvTTYHqfak3bZ0ly1JJvdJ9263zqzt5/LdIZ396kzYnZCCFWV22zohO7uNtqeD1o0DsqYwIZvDuHMGq0TOMkjJHytOqctFAnXoZIdrxlkGGkao7Y2XXjMK/M59BXRfOW0nFRSXScEy7WMqk/KtLTLgOsFilDt3fza7n6hYwzgdnO2lM8l9nfqWwrc/twZPbO5KDnqy4vS2xkfLd5mUvHdAeh8E6z9jt4/IpuJSq92r74iiTUeMeNt5F7Oc535O51YKL12+ZvUrvvPuX+Y9YRqmvmP0GfzlvgK54zQw8mpy7KmMjQWNpnFJ4Kd1z4uZ3RMIxDnwalLGnj2XSXM0v3NuyXxPyqRujjpPSV4yySIiKKBLjMWxAS+eyphd5nU9x7D9PqxwZlxGFrZszS5OMbFQTWac3phhz8dl1ib3XqfunIKdfD7jd0XqeQubz6nn8AsFUCCTAvNah8v0sHTn1aY8m0cble5ZnEOBWSgwObmUX/KzSBC3zFGBZF0mY5s1U/3r1WR0u9dZn93tYM0U5ZhxCgnGWjop014GIfcFDmVKb+AGDuSFApNd0rBst4TtBxI7/XPpJ7q0W9abA1ZjP9RuG2cy/3A/A0Wz49L/qN1qde4f//r0vEVYw1KHgYbNX34okJNOg/zIOlKJAigwKwVe+Bx6upzFqiqJNSppVg/kJhRAARRAARRAARRAARTIPwV0Rn3YHgfzr4TOfqU+P/+6EmJKAWd5otSRxfo12XdAyutavEtML9bDeU7WKuBsiKyd/H19P845HRqGM4tNw+YvPxTAaZAf+UwqUQAFbAWGWnUJsYRs2r1XdtZVSVFxjTRfNda3RykUQAEUQAEUQAEUQAEUQAEUQAEUcBXol6Z1n7MPpKsHP7JBgZMt31sd/bpx8VwcB3qvhqFOAw2Tv/xRAKdB/uQ1KUUBFHAUsKZfPmUZCUcPvlEABVAABVAABVAABVAABVAABVAABXJKAd3U2JkhMJulipwliTSMqM2Tc0owEuNRAKeBRw7+QQEUQAEUQAEUQAEUQAEUQAEUQAEUQAEUQAEUQIHsV8CZcaAd/7qRcUdnj0xPT0cmTM/pNc6mx8wwiJQq50/gNMj5LCaBKIACKIACKIACKIACKIACKIACKIACKIACKIAC+aiA7kPgbI6sTgBdbmjTB9vl08++EJ1NoB/9rcecpYj0Or2HPQzykZhkmnEa5G/ek3IUQAEUQAEUQAEUQAEUQAEUQAEUQAEUQAEUQIE8UODS5WtSv7XR4xhQ54D5UaeBXqPX8pffCuA0yO/8J/UogAIogAIogAIogAIogAIogAIogAIogAIogAJ5pIDOIOg822NtbqxLGOlvZhXkEQAxkorTIIZIXIICKIACKIACKIACKIACKIACKIACKIACKIACKIACKIAC+aAAToN8yGXSiAIogAIogAIogAIogAIogAIogAIogAIogAIogAIogAIxFMBpEEMkLkEBFEABFEABFEABFEABFEABFEABFEABFEABFEABFECBfFAAp0E+5DJpRAEUQAEUQAEUQAEUQAEUQAEUQAEUQAEUQAEUQAEUQIEYCuA0iCESl6AACqAACqAACqAACqAACqAACqAACqAACqAACqAACqBAPiiA0yAfcpk0ogAKoAAKoAAKoAAKoAAKoAAKoAAKoAAKoAAKoAAKoEAMBXAaxBCJS1AABVAABVAABVAABVAABVAABVAABVAABVAABVAABVAgHxTAaZAPuUwaUQAFUAAFUAAFUAAFUAAFUAAFUAAFUAAFUAAFUAAFUCCGAjgNYojEJSiAAiiAAiiAAiiAAiiAAiiAAiiAAiiAAiiAAiiAAiiQDwrgNMiHXCaNKIACKIACKIACKIACKIACKIACKIACKIACKIACKIACKBBDAZwGMUTiEhRAARRAARRAARRAARRAARRAARRAARRAARRAARRAARTIBwVwGuRDLpNGFEABFEABFEABFEABFEABFEABFEABFEABFEABFEABFIihAE6DGCJxCQqgAAqgAAqgAAqgAAqgAAqgAAqgAAqgAAqgAAqgAArkgwI4DfIhl0kjCqAACqAACqAACqAACqAACqAACqAACqAACqAACqAACsRQYEGcBr/c+0PCPnfvPRL9/BL5ibjv/iPRiPJBAxiAARiAARiAARiAARiAARiAARiAARiAARiAARiAARhYWAbGn7+Q8XHn81LGx1/KC/Pz4qX82/OxcdHP2Kh+v7A+Y2MvJPkZlzH7vDoLpqenQz8yLaKf6chPxH0xvB9cggIogAIogAIogAIogAIogAIogAIogAIogAIogAIogAIoMDcF1CGD02BuGnI3CqAACqAACqAACqAACqAACqAACqAACqAACqAACqAACuSEAjgNciIbSQQKoAAKoAAKoAAKoAAKoAAKoAAKoAAKoAAKoAAKoAAKzF0BnAZz15AQUAAFUAAFUAAFUAAFUAAFUAAFUAAFUAAFUAAFUAAFUCAnFMBpkBPZSCJQAAVQAAVQAAVQAAVQAAVQAAVQAAVQAAVQAAVQAAVQYO4K4DSYu4aEgAIogAIogAIogAIogAIogAIogAIogAIogAIogAIogAI5oQBOg5zIRhKBAiiAAiiAAiiAAiiAAiiAAiiAAiiAAiiAAiiAAiiAAnNXAKfB3DUkBBRAARRAARRAARRAARRAARRAARRAARRAARRAARRAARTICQVwGuRENpIIFEABFEABFEABFEABFEABFEABFEABFEABFEABFEABFJi7AjgN5q4hIaAACqAACqAACqAACqAACqAACqAACqAACqAACqAACqBATiiA0yAnspFEoAAKoAAKoAAKoAAKoAAKoAAKoAAKoAAKoAAKoAAKoMDcFcBpMHcNCQEFUAAFUAAFUAAFUAAFUAAFUAAFUAAFUAAFUAAFUAAFckIBnAY5kY0kAgVQAAVQAAVQAAVQAAVQAAVQAAVQAAVQAAVQAAVQAAXmrgBOg7lrSAgogAIogAIogAIogAIogAIogAIogAIogAIogAIogAIokBMK4DTIiWwkESiAAiiAAiiAAiiAAiiAAiiAAiiAAiiAAiiAAiiAAigwdwVwGsxdQ0JAARRAARRAARRAARRAARRAARRAARRAARRAARRAARRAgZxQAKdBTmQjiUABFEABFEABFEABFEABFEABFEABFEABFEABFEABFECBuSuA02DuGhICCqAACqAACqAACqAACqAACqAACqAACqAACqAACqAACuSEAjgNciIbSQQKoAAKoAAKoAAKoAAKoAAKoAAKoAAKoAAKoAAKoAAKzF0BnAZz15AQUAAFUAAFUAAFUAAFUAAFUAAFUAAFUAAFUAAFUAAFUCAnFMgJp8HE6HOZeJUmP8afy+hEmvOcQgEUyA0FtKyP+D6jk4uQtufyy3dHpfFYnzxKZ4vMmLwakYvH9suh7+4K5skUht8ogAIoIDLx289y8UKfXLzwo/zye2Y7PjHQITv+99vy//yPIvm//+d/yKGfffeM35XTuz+Qkv9ZIv/X/1gl/9+Rn5O291GffLHvqJweeI7sKJAbCozek1/+6eM/N1JGKmagwMSju3LVsqF9cuu3DG3lGYS7ZC79vUP+1/9bIv/ru9+XTJT+//bu9UeK6074eP4vXiDklQwvQt7Y8gvsF722IA7CMg7xyjiKyUoQRzY8NtiYBWFhJ2u8g/HOQiDhlkzMMss+YEwg8yyEBJgswxjM9PT9Mrffo19VnerT1VV9q+qZ6Z5vSa3prq7Lqc85VVN9fnXOISGDLZD4OUUZHuwCw9EhMCAC/R80uPOZPLP6eVnzxjl5GFpZNyYH1z4vq944J1MDkmkcBgIIhAjkR2XH6udlVcjr6bdOyb1SyDqJzRqTfc5+d8jJwG+X/PiY3A7Mc3b7+Jxsc9Y5IjcTSwcbQgABBPpboHr3nPzixVTDtXzNi+/JyaiKfb2e6r2ef/1PyS++soMAj+XsG/XbXPP2qORFZOr0Dne9j8b6G47UI6ACc3fkyHN6LuySsxlIVqRAfkyO/rj+eudcG9e/LrvPTzSQRN6nNiyZwIy5oty7caf9B2ya7HLqTELX7sd35Oa4/f+iyU75amUKdHhOtY104wj3H21jsSACCCyVQP8HDczFdvXzsuGjsZAndr3KvNcJGixVIWO/CCyKgKmEX7tRUhu3+q8N692KpDX/7FYQ9SYtM/JwbFRGL92v/yFkAhnPfSa3G3ackXuXRmX0xkTIdathYWYggAACAy9QvXFENpiK//Wb5ZWdh2Tfzted1gNuQGCz7LvRWLljKo/W7LkSfj2d8oK0a/fLaDCAnLkvo5dG5eaDxu0OPDgHOHAC1Sv7ZY13Dm063lhBPHAHzAEFBB7Lyde9+95nXpcdHxyRg4f3yzZtYeWUi41y5I61StP7VGu5hN7m//COk45nfm0noruNJxPwNUG2d2REo8hMCDQIdHhONazfZIapx+KhhSZIfIUAAkstMFBBg1WrU7LtdPCR3uZBg6lb1+Xs8BE5fn5M7ukTOdplyOlzctNulqBPRdyakLy2ZHCekBiR44eH5ewNb57m4txjuX3pnBw9ek5GbwXTYGVz5r7cPD8sB4dH5OY4jwBZMrxFIJ6ACRoEA4RTI7LDeQL1dTn+ILCLuRmZGh9zrgFHT482PyfNueuc4xONXaIFn1Sam5H8nWF5xfmRtl9GtdukQGVV5NNd7aYrPyG3zdNR+QmuLYHs5SMCCPSRQGbUu1Y/LxveH60PwM5NyNm3N7uVXs8dkZtWn27VTFFuH3/T+e6V4/fdLuqs70W7rTPX4leH5bZei+1u65o9+TqXkXs39J5P7xOvR/+PMP8fuLfrowI3iEnNyNm3rBY3a/fLVftcCB5ytf63i9PVq3bXFdHVYnXyjoyePiZ6v3Sb7o+Cmsvj8/iwpPS+U6+TgRb4+VvnZN9H5+SeKRNt3Keag+r897JXtoZH5aG59y3VrtWr3h91rtVNuxc2O/f+BtPQNGigv8uvmN/r993f8FPX5eTpsdr/Fj3+zKjsdu7T35TjdwL/G6z9U/YtjJX2tpNzyrIJltfQOqYWQYO2tlFXTxVy3mmLylshrXua3ftYx8FbBBBAYGCCBs+8sNl7smaHnJy0MzYiaFC6L8ffMk9dmBvslGx/q7Gpo3mCbdvxc3Iw0GT+6bdHZWpyVH7xgtmG+3fD4WCrh6LcPvqmPO3cmNSWffrHx+S2uZmyk817BBDoTCAqaCC1J0T23bA2OXVF9gXOZ30KK+ycfHhmV8O5u2r9LjnrX2uCTypl5OwbtfPcfbpLP++QsyYgGfV0V9vpMvvYIcfPHJFUoGuO1NH4T3FZWrxFAAEEeirwcPh1Nyjw8rDcC1R2OTuujsk+p9uV5/0HRPJfvec/VV27zj4vq9a+5z41mh+VX9RdG811udZ9UdSTr/mxz2RTyLr193fc2/W0ULDxzgQenJJN+jvj5SOyzwsebD8f/oDS1OVDgfuG52XNi0dk39vuOVJ3vzT3WEbe2Ro411KSemc0omvYzpLN0gkKeN32rto4LPeabtbcQ5provlr3afq+t38Xj78mWz3WvnqdXnT8ISIae0V+B3cVvfBEWlIvbjR/Z8ReEq7evdU3f6d/w3rd8l2rwWGKds3DwfrAdQgJQftnuoo+01L0Yr4su1zytOIKK9hdUwSFTToYBt+PVXYeadJGjviXLvXHLYLtkjUvc+KyFMOEgEEOhIYmKDBttP35eZH3lNoLxyRm35FfFjQoCije7wbhRd2ydHz1+XqpXOyz+7/0boB8Z9kWK03yKdk9Mp1OfuJCQBslGeeS8mmD8658w+/6d1U1zdz1Au6Nhde8+I7DfvT8RhMPWJHucfCCCBQE4gKGszdl6Mb9YeA1SS7OiYHvUDf0z8+JCcvXZer54/JDhNEeP1U7YewX7m/X0Ye6CDLE3Jz+D2nC40NR+97+/euM6trYxo8/MN+eeXFjd71ICUbNm6VV/ZYP7BNeldbYxp0ki4rGLJq7VbZcXRErl4ZleP+D/v9MmqeJqsp8Q4BBBBYhgK1CqzGFqO15N47vtWtJDLdzU2Oyu4fb3UHN9Z7rGfcrun0WuvcV2mFz543RSuXnC5bTPd1P609xsoAACAASURBVN4vI16jUP8ez7rvk8lT3pgzKUn98zE5q4OJnj8m2/X/xsun5KGXJO7tannDu6UXuP2JW4mqgQK/myKrvPopHB92gwvW75rR04fkFaui11SsiszIzcPu76uw+6X6IJq/B94slUD1iuz2gp0bfnpMzmpLef83cX2iWt6nSve/lzcdHpGbN67LyaPDclUvxuZabLpJWr9ZUhvflN1/aNI630luZ2mQUuD4r1yXqLJdvXVMtm/c7D0UlJLvv7hVUj+1H+aj7NeXmBX6qYNzSjo8Z8KDBp2Vef8eZnVKGs47zbKIwIS/nn3vs0KzmMNGAIHmAgMUNHjs3JCc9Aa6qw2MHBI0ME/iBPu2nas9kbzKuoD6F9W3RpxB81zSWhPgZ+rGUpiQ404FpfWkwtyY7NMbuMj9paR2c948w/gWAQQiBEwl/MZDbgWPVvJcuS4n3zfBxM/ktvf0av78LrfiyQ4O6GY1wPCy+6TR7isz7o787R6re/q1mi9aXRQ1Bg2clc26dmDAJD/ku47SZQUN6p4k9AdB3CrHx83O+IsAAggsZwFzDX2++f2Q+fEb6IbO3KdFBhzM9TawnoqYde37vpsfuQ+WPPPB9foxEuZmatd97u2Wc4FaeWkzFVumSyL/XmCjHLlVz2HKd8OYB36wzDoPzbkTbAFUuu61/Kk9LFG/Fz4tlYCODVPf+lQDqq/LjqOjci/Yb7/J37D71ER+L9crhF1v65cIfOowDabFWsP4NmFl29mV+d8TUo6NDWU/kCkr72Pb51SH5TW0Qr/DbfjnVF09lZVH5r7JqtvSb/31AvOtNXmLAAIIOAKDFTTQQ5o8J9vMExbOIEuNQYPq5f1OheGakIuk+c7+8Wguqq+crH8a4uZHblPO+h+ptcCDHwgwfeGZJ9xCBmlNYkAoyjQCK1rA3NwHmz7r57VvypFbZpDLGRnd4567uy97gQELzpzvtWvAhBx3AgnPy6r1OqjcsIyOZ2oVR866ET86/DRZrQnMvhq+6zRd5lrzZqBLNjPf+tFv9slfBBBAYFkKjMlB797Nv3cKSad/jxao/DfX7fr7MWsD5nobWE+XMOvWXfOdhz9aBF65t7OAebvUAuahg2c+qXVN6Fegvm8PEG4ebgqpJJXafYg5D/1zznky3G3Jk/J+x3zfO2d3/MHcXy21Avv3BfITcvX0Mdn901pLLKebnrrW+CJiro0hQQOT953+Xk41GYC78Xrrpzj0TWdpMOU37GE8813w3jji/l1EzL5XUfZD82bFzWzjnDJlpt1zJixo0Ok2zDkVed4RNFhxRZUDRiBpgcELGug/+RtHnK5DVq3eLPtujMo+rTS0fiiai2swCODghlxYzfLBH6NtBw3MNsMqM515Kdl2pj4gkXRGsz0EBl7A/PB5bofsPnxEDprXcPDJqhaV6tcONfaRWrovZz/aIeYHsv7wWvPiIbnqdxUc8aPDpCnkx1jjD7VO02WWD/7wN/ODP4wGvgRwgAgg0LcCRRn5ZzeYG/nDV0RM9yur9tiVoLWK/+B9ms9hrsXWvaD5ztzj1YIGEddzs4L5y72dkeDvkgvUHm54+gWrYv8F02f7LjnbcL9ySK6GjB1iftuYoIF/fkT+htksB8caH8BYchISUCdQHR/xx9/bdsYvDE2DBibv4/5ethNitlm73trfNr43y7eXBnP/G3yYxt1usGy7c6Ov92bfTrAltPxT9htzbOXMCTunTJlpr7yGdx3U6TbM8pH3P+ZeJfCwrFmv3XNx5eQsR4oAAkGBgQwa6EE+PO2OIbBqbcrtx9b+oWgqBQM/Op31zEB81oXVXFSDF2Nz81E/39ywWBV2k6fkFb3Z2FjfvUkwM/iMAAIxBJpUCgW3agY/qz933aXuDbl9Zoe2/pmbkanxUTn6U7fLozX+03sRPzpMmtoKGoh0li5zrSFoEMxfPiOAQP8JmCelG7pyNIfityRNid99nPdd1H2aWdUP0tr3goF1az+cH8vJV91u6kzFqb8d+w33drYG75dS4NZn8kxopaYbiNNKT2cwWieNpnxvlaN3g4muBR/8sm9+M709Wt9VV3BVPi8bgWopPIjz8OSbzkMxtbLQvKWBmLyP+XvZhjHX6tr11v425H2Habj6QVRL4pCy7ewu4v5dvzP7puyHZMzKmtX2OWXKTJvnTFhLA7/ctbkNc06F/aZ1cskEDQLbM+u1fS6urCznaBFAwBIY2KBB3UA0eiNt/1A0/X5qS4RrVpPaB6f8ro3sC6i5qAYvxm0HDcTcqKRk2/H7kree7MmPj8rZa9YTH1bm8BYBBDoQMBX09rkesbq2RnJ+YK/dIScf1Baq3h32rgGb5YjXwr869plsevGduuVk7rrsrruuRPzoMGlaHfJEn/9dreuiTtIl/pgGBA1qOcg7BBDoWwHtg90boF5bco1O1iq+8nfO+U/JrgqORWN1MRS8T/MtzPU25P+Ducez7/tMty6rXjgiV+0+wB/fkat3zD0b93a+L2+WUGBGrr6vLQpSsvurx5LPFOtft465gx4/VxvXyZTvNW+ckofWb5KHJ70HrlZbDz5Zv5l2X6pvFT11Y0RG71q/o5ZQgV27Au4A2ClJfTAqD6uWSv667POur3XdSZlrY9h9qpX3cX4vW6modQf3wXV7dvT7DtPgDwAeuHaHlm1nr+b+PaR1grVvyn50Fg36Nx2dU1aZaeecCQ0adLgNcw8Tef8zdsR9gPa5Q3LVDIoeMY7noOclx4cAAt0JDHDQQERKY/4NUl3QwG6JsDol339Rm/Julqftp3SSbGmgXSaNmS6TdDAqr+mwaTa8tlZp2F02shYCCDR7krRRpyg3P/IGSF6dkg3aP++LG92bqtXPywZrcPP8V+9581Pyyh6326N9XkuD2tNa5kdHoALfDJS5+nl5+oXN8rQZoFAT5P9Qs8//9tNF0KAxV5mDAAJ9LjA5WgsO2Pdk5v0L+2V0qvEYW/5oNtfbNoMGUh2Tg14F2yp/PCpzn1i7ZnNv15gXzFlkgcyIbNfz4+VT8jB01xk5+5bbcsZvoRNWvp3fJClZEzK2yNSZWjDB7/7oGa/rozfOScgpGZoSZi6CwJ1jdYMgO/llfm86XWsek9tWoEia3acm9Hu57qhveBWYeu/9QkpqLXbrlqr74Pce0MZvdtHK0De8smmu3dbxa6sbvxWNsxfTald/n2+W7699XY5bDxNR9uuyYmV+6PCc6qi8mlYAVr2TIneyjZb3P9Uxb9B6HZtvszhj0pjrt/7vCOx7ZWYyR40AAs0E+j9o8OCUvLI2Jb+4FPGky+Q52b7+edlweKyhWe3D8/tl03rTdDcl33/jmNy8pjdb9WMMuD8KG/cxdX6XPL12qxytjTnmWN8+ulXWrN0hZ+sfyJHq3RHZ90atYlKfCvr+G4dk1Lo5aZZZfIcAAk0EvB/BYed66FpzRbl92r4GuAMd7z59v+FaMXXtM9lm32Ct3Sjbjo5ZrYYey9m3UrLmxcCPMRHJXzkkm5x1U5J6Z7T2VF91TI68mJKn3x4V+0FWaTtdM3Lz8GZZtf49Ga3bwIzc/GSrrFn/noyYB2JDAZiJAAIILEOBkDFktOJ+2yfXZcqu7LKS7t6nNelfusn/B21Npvd9v/gqcMHM35eT72z1g8nOWDbP7JAjgdah3NtZGcHbxRe4e0w2rE7Jjj8Eyq+VEv93zFfWb6Vg+V7/uuw+PyGjXvcu9RWrIlPXjsmOl80YCW4QYtPOYblZd/9h7ZS3Syfw+Loc3fl6/cNweg39aETumSeNrdRF3qd6y8T9vWztSkQycvWj190xwtZulV/8IfBjuX5h/1O7aXBWmJuQs3us4/fu2a9G/T4fPyU7vMDC0z8+JrcDRpR9PxtW7psOz6m2y6s+0LA2Jamh+w227W7Dv75H1YXpw6t3Tzn1YWZ8jqdfPiTHD7vdlRE0aKBnBgIIBAT6P2gQOKBuPla1Ka/dhLObjXSyTtVtOlyN+PHbyaZYFgEE4gs414B8rSuMyC0u8rnbdroiE8wXCCCAQP8KONfATBvX5l4e4tyM291Lq/vERf7/0MtDZtsrQEB/gzgvt3w7v0m0i7DnNCCwVY6PRxiU+A0TIbMsZyd5DXW21eo62GOFjtLgXbsT+71N2e9x7vbH5js5pzoqrxGHn8Q2zKadbTlBMdOt3fNSNzC6WZC/CCCAgCVA0MDC4C0CCCCAAAIIIIAAAgggMLgCRRl5OyVOC549w3L2ynW5ev6Y7HjRa0kQ0o3X4FpwZAgggMAgC7gt0L//8jty8PSoXL0yIsffedNtRbn2HVqlD3LWc2wIJCRA0CAhSDaDAAIIIIAAAggggAACCCxvAa8bQzNWiPVXu2ehy6HlnXukDgEEEGhf4LGcNeN8WNf6VWu3ysEbVpd17W+QJRFAYIUJEDRYYRnO4SKAAAIIIIAAAggggMAKFyg9lns3rsvVS6MyeuW63H6wxF2BrfDs4PARQACBngjMzcjDW9fl6pVRGb10Xa7euG+Ny9eTPbJRBBAYIAGCBgOUmRwKAggggAACCCCAAAIIIIAAAggggAACCCCAAAJxBAgaxNFjXQQQQAABBBBAAAEEEEAAAQQQQAABBBBAAAEEBkiAoMEAZSaHggACCCCAAAIIIIAAAggggAACCCCAAAIIIIBAHAGCBnH0WBcBBBBAAAEEEEAAAQQQQAABBBBAAAEEEEAAgQESIGgwQJnJoSCAAAIIIIAAAggggAACCCCAAAIIIIAAAgggEEeAoEEcPdZFAAEEEEAAAQQQQAABBBBAAAEEEEAAAQQQQGCABAgaDFBmcigIIIAAAggggAACCCCAAAIIIIAAAggggAACCMQRIGgQR491EUAAAQQQQAABBBBAAAEEEEAAAQQQQAABBBAYIAGCBgOUmRwKAggggAACCCCAAAIIIIAAAggggAACCCCAAAJxBAgaxNFjXQQQQAABBBBAAAEEEEAAAQQQQAABBBBAAAEEBkiAoMEAZSaHggACCCCAAAIIIIAAAggggAACCCCAAAIIIIBAHAGCBnH0WBcBBBBAAAEEEEAAAQQQQAABBBBAAAEEEEAAgQESIGgwQJnJoSCAAAIIIIAAAggggAACCCCAAAIIIIAAAgggEEeAoEEcPdZFAAEEEEAAAQQQQAABBBBAAAEEEEAAAQQQQGCABAgaDFBmcigIIIAAAggggAACCCCAAAIIIIAAAggggAACCMQRIGgQR491EUAAAQQQQAABBBBAAAEEEEAAAQQQQAABBBAYIAGCBgOUmRwKAggggAACCCCAAAIIIIAAAggggAACCCCAAAJxBAgaxNFjXQQQQAABBBBAAAEEEEAAAQQQQAABBBBAAAEEBkiAoMEAZSaHggACCCCAAAIIIIAAAggggAACCCCAAAIIIIBAHAGCBnH0WBcBBBBAAAEEEEAAAQQQQAABBBBAAAEEEEAAgQESIGgwQJnJoSCAAAIIIIAAAggggAACCCCAAAIIIIAAAgggEEeAoEEcPdZFAAEEEEAAAQQQQAABBBBAAAEEEEAAAQQQQGCABAgaDFBmcigIIIAAAggggAACCCCAAAIIIIAAAggggAACCMQRIGgQR491EUAAAQQQQAABBBBAAAEEEEAAAQQQQAABBBAYIAGCBgOUmRwKAggggAACCCCAAAIIIIAAAggggAACCCCAAAJxBAgaxNFjXQQQQAABBBBAAAEEEEAAAQQQQAABBBBAAAEEBkiAoMEAZSaHggACCCCAAAIIIIAAAggggAACCCCAAAIIIIBAHAGCBnH0WBcBBBBAAAEEEEAAAQQQQAABBBBAAAEEEEAAgQESIGgwQJnJoSCAAAIIIIAAAggggAACCCCAAAIIIIAAAgggEEeAoEEcPdZFAAEEEEAAAQQQQAABBBBAAAEEEEAAAQQQQGCABAgaDFBmcigIIIAAAggggAACCCCAAAIIIIAAAggggAACCMQRIGgQR491EUAAAQQQQAABBBBAAAEEEEAAAQQQQAABBBAYIAGCBgOUmRwKAggggAACCCCAAAIIIIAAAggggAACCCCAAAJxBPouaJAvVuTRVE7+/m1aNPG8MKAM1JcBPTf0HNFzhQkBBBBAAAEEEEAAAQQQQAABBBBAAAEEEOhEoG+CBtWZOZn8LutUhhbLVZmbX+jkOFkWgRUjoOeGniMaONBzRs8dJgQQQAABBBBAAAEEEEAAAQQQQAABBBBAoB2BvggaaKWnPj2d48npdvKUZRDwBfSc0XOHwIFPwhsEEEAAAQQQQAABBBBAAAEEEEAAAQQQaCLQF0EDfVqagEGTXOQrBJoI6Lmj5xATAggggAACCCCAAAIIIIAAAggggAACCCDQSmDZBw1yhbLTzUqrA+F7BBCIFmCMg2gbvkEAAQQQQAABBBBAAAEEEECgHwVmZmalWCpLNleQdCYrT9IZ+W5quu6l8/Q7XUaX1XWWepqdm5NypSr5Qkky2bxMTWf9NGt69bPOzxeKznJzc0vb7fKN27PyqxNl+dnevKS2Z2X9j6blH/4x7bz0vc7T73QZXXapp/n5BanOzDj5ncsXZDqbk6l0xikfjm8648zT77RM6LK6zlJOCwuBNGdydeVCy8R0Jid2mnWd5TD163nYym7ZBw2+fZJ1+mdvdSB8jwAC0QJmjIPoJfgGAQQQQAABBBBAAAEEEEAAAQSWu8DM7KxTmR4WIAgGDKI+67paIa/bWsxJK6d1v3aQICqN9nyt8Nb1qosY8Jh4NC8Hh0ry3GsZeSqV7uil6+i6uo3FnGZn3SCSVq7bfu2813U0gKDbWMxpdnbO2W+8NC9+UKmfz8N283fZBw3GJ6cY9Ljd3GQ5BCIEdHBkHduACQEEEEAAAQQQQAABBBBAAAEE+k9AKym1tUA7FcCdLKPb7HXwQCuG88VSaEuITtLqBDuKJdHt9WpKZ+fl/U+LHQUJmgUVdFu6zV5O2nKjUCx1HIwJs9eAjm6rl8Zq0ZM0L0KLlH4+Dzstg8s+aHBv4kmnx8TyCCAQIqAnOxMCCCCAAAIIIIAAAggggAACCPSXgFbihlXwJjlP99GLqVKtOl3hJJlW7W5Ht5v0dPqritP1ULMgQDffaRdGuu1eTNrNk3ok6avb0m3qtnsx9WOa1aGfz8Nu8pGgQTdqrINAHwoQNOjDTCPJCCCAAAIIIIAAAggggAACK1ZAn8buRYVwVAWz7kv3mdRUKldkarpxnIWo/XcyX5+I1+0nNSXZuiAqsKD7SGrS/vy1O6En6foxLDoxbLXsk6lpZx9JjR0w76e5N2VCj0dbo6iL7iupqd/Pw24dCBp0K8d6CPSZAEGDPsswkosAAggggAACCCCAAAIIILBiBXRw1TjjFrSqEI76XveZxGDJWqG/GOlPInCggxhHVfQnPV/3FXean593BpGOysOk5+uA1brPOJNW4msXVUmnLWp7uq8kAgf9fh7GyTOCBnH0WBeBPhIgaNBHmUVSEUAAAQQQQAABBBBAAAEEVqyAVlRGVYYu1vw4gQPtfmYxAgZqoS0Z4nSjs5gBAxOAiBM40Kf+F6ObnGA503122+KgH9OsF59+Pw/jXkAJGsQVZH0E+kSAoEGfZBTJRAABBBBAAAEEEEAAAQQQWLEC2hXKYlW4ByuG7c+ahm66KtKBYqczyfexb6ct+D6dyXU1mPNidElkAgXBv912VaRd7wSPf7E+6767mfoxzf1+HnaTT8F1CBoERfiMwIAKEDQY0IzlsBBAAAEEEEAAAQQQQAABBAZGYDHHMGhV2axp6WTSJ8pz+eKSVGrnCkXppBd7HZg4WJG/2J87HRxZB39eyoCS7rvTAah1+al078YwaFWGdd+dplnLfD+fh52cs82WJWjQTIfvEBggAYIGA5SZHAoCCCCAAAIIIIAAAggggMDACSxFtzOtKl01Te1O2k1Qq+318vt2uylKZ+dl/Y+mlzxooGnQtLQz6ZgCmVx+SX017zQN7Y5vMKdpzi6DNGfzomlpd+r387Dd42y1HEGDVkJ8j8CACBA0GJCM5DAQQAABBBBAAAEEEEAAAQQGTkC79ellhXqcbWvaWk3ayiC7xJXaWqHdTr/7S9ktUbA1Q7vdFC1lFz/BstNuN0X9mOZ+Pw9bnaedfJ9Q0KAshUJJioWS3Jt44pygepIGX047oQWRhchX4zq6PSYEEIgvQNAgviFbQAABBBBAAAEEEEAAAQQQQKAXAtlcYdkGDTRtrSbtAiZYubwUn1t1RTPxaH7JWxgEAweapmbT3Ny8pDPZZeGreapp0TQ1m9w0L+7YFs3Km4570SrNejz9fh42y5NOv6sPGlSkVHJf5VJF/Fe5It/TgIC+Cnn9W3ZehYIGC8yLoEGn+CyPwGIKEDRYTG32hQACCCCAAAIIIIAAAggggEB7Asv56WZTEduqtYGOKWCWXcq/mo5m08Gh0rILGmiamk2lcmVZ2Nr5qmlqNvVjmgfhPGyWJ51+R9CgUzGWR6BPBQga9GnGkWwEEEAAAQQQQAABBBBAAIGBFsgvkwp3u1I4+F7TGDXpE9xLOditndap6WzTPvefey2z7IIGmqZm03IYy8A21veapmZTP6a538/DZvnRzXcEDbpRYx0E+lCAoEEfZhpJRgABBBBAAAEEEEAAAQQQGHiBJ+lMYk+S3xt/KJ98dlY+PPgfiW1TK4k1jVFTYl0TTT6Qvz+ajp3uqC6KbtyeTSRgsOlwWU5fqsqFkbK8+8tkghCatrBpdnZWnkzFMJl8IHfHxxtf//ttbGdNW9jUiyf2v33wQCaexHDwDJu1mEnyPNRzxpyHek4Ggy7dfm52HoblRZx5BA3i6LEuAn0kQNCgjzKLpCKAAAIIIIAAAggggAACCKwIgZmZ5AZA1srJt/d87rzOXLiSWEWlqeDUtIZNhWIp5r6+k1v/+Tt5/73P5cPf/i3mtqZF0xM2/epEOV7Q4J+KcvHRgkhlXsYfzMn4dwsisiDjF/PxtptKi6YtbCrH6ppoXH7/2Rey58PA6/3P5e33TssfYwZoNG1hU7w0hwQG7o7Kgfc+l0//K+S7DgMqUWlO8jw054ueg3o+agAvycBB1HkYlhdx5nUeNHDGNhiQMQ1mZmT8z3kZ/jQrH5/Iy7W/Nhb2/O8zsm5jRi43fhXHvbN15yty53JB7nzXfJCRzja6gpaeUb+cfPxpTi58U5J8TxjnZfJ8RlI/TDv/KDbsL0jzhloB/+9KMvZoLjAz2Y8EDZL1ZGsIIIAAAggggAACCCCAAAIIxBUolsqxK8m1ktIOGBw/cTGRbZrKT/NX0xo2ZfMxBnEevyknPhmStw+elU8/TiZooOkJm362N07lfl5OP1yQ/F/Lsj3l1v3ogMabvpyVvMzLxUO1ecGBjtv5rGkLmxLvMufWqBz68Av5/Gr8p9+juqxKNM1P/iInDn0hez5IJmgQleakzkNzrpi/vQgcRJ2HYeUnzryWQYNyRTQIUxsIeVCCBg9ysm1j4wm97tWMXLQq5ydPTMtTqWkZfhiHOea6D3OyJZWW1FD4xTnm1gd69fyNrGwK5PO6V7NyLborvu48/pKVZ1NpefaXOblwJicfj3SQV8Wi7N2Slqe252Syu723tRZBg7aYWAgBBBBAAAEEEEAAAQQQQACBRRPI5mJUuHtPWdsBg160MDAVoJrWsGk6k+s6SHH3j7+Tj397U+4+mZZLnycTNEhncmHJlNT2bIwWAXkZvjEjB/4pWJdYkMsZkfGLwfmdfda0hU2ZbL5rW5Nv/t8HX8unHwzJp/8VP2Cg29S0hU3JpflbuXxsSPYc+0Z+/3kyQYOoNCdxHvrOgdYPSQcOos7DsLyIMy9W0KBYKEvBf5WkWCjJvYknsrCwEPoSt9WOLCxIxKtxPd1e8lNZhn6Slqe2ZOTC+Iy7+UpF7oy4FcybvqxV+C6LoIHMydR4WaYqPXlEPnne5bLFdF62v5SWdW/l5E5G7eZkciTjVO7/4Eh4U7Vukz71Gze4NPSgwy3Ml2X4Le8fCUGDDvFYHAEEEEAAAQQQQAABBBBAAIH+FkhnsrEqhW+M/c3vkmj0v/8ca1tRlZ5mvqY1bNLBh80ycf4mFTSI6vd9/Y+07qazyvzWyycTNNC0hU1J2X734E/y+YEv5NCFvySSV5rPmrawKW6ZNmXo7//1O9lz6I8y5gWUkuieKKoMJ5Vmk/bg3yQDB1HHEJYXceaFBQ3KpYr4r2YtDfo2aPDIfXLfDg74iJUZqVp187WgwZxMXsrJ3kNZ2XsoJ5dDu5KZk8mvc/LxnmnZ8Nq07Pw0J9cCy+Vv5GTvb0pS9XcY9mZWxs9nnQim+21Frg1l5eIDK2HfFWT4TEnyWhF+KSc7fz4tm3Zl5deh/Si56Tqwa1o2bM/IgRNFmZyZkbET9j7C0iEixZKcHsrL5Lx3bM7xZ2X464j+muarcudMtpaeSxWRYlGGD+VkLPh0f6YkF4Yysu21adm2JycX7lVFHuTl4091f3Z65iX/P3nXdXtG3h0qyKQX67GXanhfKcmFT4P7LcuQRoXbraB30piV7ds935Fg90YzMv5NQU7vc4MG7/62IJcvF2U8eKwNidMZM3Jt/7Q89dK0PLu5gzSFbqv1TFoatDZiCQQQQAABBBBAAAEEEEAAAQQWUyDO4KuLGTDQStCoyvhgBWm3n5MKGuj+w6Z/+MekAwZpeerwjEwl0D2Rpi1s6tayfr2/yalDOo7BkLx/5Kyc+O+/ybeBp+Hrl29/7ICwNMcp0346bv1RPnzvP+R3d920aNlIImgQVYYTSXMLUztwoOeuf6wt1gsuF3UMYXkRZ16yQYNin7Q0mC/K3pfcSlrT0CAK0QQNtrw1Let+6AYD1mlU8qWMXKg7n2fk2qFp0e/Mcj/QfaSmZefFWgX72BGdl5HT9rozM5K3WxFU8rJTt3PIq3n2uifaYg2KYtK17ee1dJn9ys/TEQAAHChJREFU7f3GHpimMV3PbkzLulennSfun9rfonb7a7fp1rOvusf27GvTssHrt//Z/cX6fvutp+bXbalZPbvFjeTu/dpStrqHcrb5atqx2/Cqa1brDmpGxo54rtY2tZWI3Y2UteUWb0vy69fS8tSufH3aw9YKplG7ENJ80ZYLhs0LQAUjz1t+U8vzsE2LzIvm4brUtOz9uiTD2wkahDsxFwEEEEAAAQQQQAABBBBAAIHBFQhWCLb7+f9+/T9+C4P/8+Fx2fcvw229dGBWXbfd/QSXC8uJ4DLdfu510CBYdxP/c14uPBKp/rUsGxJowdA724cy9t9/krHxW3Ll3AU58OHnsufY1/L3Diurw/K1J2nWcQwO1nejlFTQQI8hbAo7tnbmmfOw3fNv974v/PM2TldiYceQ9DwnaFAqS8l5VaRktzLQ9x21NOiXoIFfYauV/2nZsicrwyNFmbQr7j1pt3I+Lc/qwLbe0+/5yxn5QSotdsXw1PmMU+m9xeraSGbKMqRdz9gBhr/mnAvJtjOmUrkip3+elqd+kpNxb5/58xmncvrADW+HkUEDTZdVcf/AbUHhBxt0ezeyTlrt9Mt8RS6+7zXJajNo8NSWrFx2uvjRjc7J+JduRf7Oi7VH/o3VzhFzbCLyXV52epXttaCBd8wvTcvQeG3w3/xfcrLFC7T4QYM/u2MF1LlmCs4YAOt25WXKM2v3j8m7mn/EmvMlOaDprjvueclf9sYuCHRvZII4frojNuvP9vIqdVS7SSoTNPBheIMAAggggAACCCCAAAIIIIDAyhFop2IybJmvLv3Jr3zUish2Ky17ETRI6intXgcNkm1pkJED/7Mgkp8NGefAfei0k6BEWEsD7d49Kdu6MqRjG+wdkmPX229RULe+F2yIeuI9XpofyqXPh2TPl3+qC2wlFTSISnPY8bUzr9OggQb49BzUl57D7ewjbJnFuEKu0KCB0s7L1Dc5eVef1Leigan9eZmyusYJrwwuyl5dx69wr7j90lsV/37mjeckpQEGv5WAN56C6R7HCwhoi4Rf/1XX8irUN2dlzKQjMmgQHKC5sfL5mo7ebm/LJKyYlx11x2C+CPz1WhrsvGi3XtBlgk/sewY/b6zInzrjBkH8oIH3dH5jxf283PlXt5sfU/nupH9LVq5lqpK3XmNmuUeB9Db7aAIYWyzbqOW/yTrlYuel4HHPysX3NRCUlWsmf0ScVgNtD5jtDXysLRbcbpga8y0qWXHm0z1RHD3WRQABBBBAAAEEEEAAAQQQQCB5gTgVrIs1ALKptIyqcJ1KZ7qu/DTb1r9JBQ2i0pncmAYZOfDNvFRn5uS01hFZ9Yrdvu/5mAaBVgVXvhySD3/bfRc5ml+RYxrEGOPi29HTToX6Ox98IXs+rL3eee9zeXvvF7LnwB/kWuBY7DLU6n06YhyGOOdhq32a73XMERMw6JvuiVZeS4PgRX5OquNFGfql+/R9aqjVQMjBoEHws739xu/Gh9yK8aFxEef9TzKy4ydp+cHhokg6L9tSaakbqLfroEGzymivb38/8GGn2XrvBA2CwQn3+2v77S51Go/T34oXePCDBsHP/oIiOuR8rfLdS3/kxdcEWuwNRLz3Kup1/IBhe2yIiMXDg0XuwmHfhc0L33Rt4GPThZOOf+F0LfVS2hkL410dB6IHE0GDHqCySQQQQAABBBBAAAEEEEAAAQRiCMQdgFUDBx8e/A+nMjJOdyemYrPZ36gBWKczuWUVNEhncqE5ktrudsHdbcW+WW/7xTmpyoJc+zf3IVkzP85fTVvYlMnmE7EN5uufTnwRO2igaQubMrkYaX7yrfx9fFzuBl7nfv25fDwyLnf/99tYHpq2sCnueRj0DX42AQM9V+MEDHS7Uedh2HHFmZdgS4OyFPume6IIsvmSfKz93ZtWAJFPkAcryL2n7vfkGwc49sYnqAsCeIGB1FBODmx2WyE4lc4vZWToqBtQcFsdeOnsOmgwKxf3pOWpf8rJZMMhe+M6tBU0SMuBPwc3UJULu2wrz2BfIbigFwhIix808Lpoevey9ai+t9bUb+yWBt4+fpKTMauVgd/iIB9sBdC4a2dOseg1FdPxA2rdKUUs7cyuXnSDF3X54K0w7uRRRi5kaltoP2hQkYv73fEeNFhgXgQNapa8QwABBBBAAAEEEEAAAQQQQGClCGRzhViVoFqJuFiBA01r2JTNxz8GPY6kWhpEpfNne/OxWwVs+nJW8nMLcu3LZAIQJtCgaQub8oVi7PIRrMD+7sn/k3//aEg+vzoVa9uatrCpF2lOqnuiqDQncR42OHstIpIaANlsP6p8h+VFnHm1oIE7nkGMMQ36KGjwMC87d2mXN4FK6/miU4lvD5IbXhkcDBrMy9hhdwDfobqn2M1gt2mp7+bG64LIeYLee4rfCySs0z79g90cdR00qHWbc+DP9ceav+iOwVDrYimiGHmtAn6wr1A/cLDXJ38tGDIvTssDe/wGZ5MzbuAiZQUNvIGoG8YkmC/Jr3/iOpruiYx/Q2V/cPDoiOSLPzjztOy9XI1aqnG+afERPG7TYiGQRyadJt2NG2w2p1mLkGbrdfYdLQ0682JpBBBAAAEEEEAAAQQQQAABBHotUCyVY1XcmorExQgcaFrDpkIxmWNIKmhQKOr4kY3Tr06UYwUNNvzbrORlQcYvxg8+mGCB+atpC5t0sFmTx938vXXutHx87pZ8a7r0efQ3OffZF/L2of+UW2Zel381bWFTKWaaw44zqaCBpi1sSuo8DKb9+ImLTiugJFoYmG1HnYdhxxVn3soMGvwlJxu0cv6ladl+KCcXLhfk8pmsbH/VrbDe+03tCfbwyuBg0EBETGXyxmk5cKYgly8X5PRhd7wEp+/6QC6ZwY6f8scA8J6qT6XF7h7JWS1G0EAqRWfQYD3Wd0/k3XR9mpENG9PuWA5ttjTQi9iGd2tWmzYGBnjWhGo61XVLRoZG1CAvQ+/WxozwWxpoC47fuPOf/XlWTqv/SE7e3Z4WJ2iSsrpDstK/Y8hNv+bVNh2k+Jf5+kBGwFgHGHYGmdbgzKsZ2Xso678+PlNqsW4t4OMf90hOdoSUEd1teDlpSFDEDIIGETDMRgABBBBAAAEEEEAAAQQQQGCgBWZmZmNVCpuKRP3b68CBpjVsqlSriRzDtX8fkg/PxutnXx0q1fBeJm7cno0RNChqj9rRU2ZG3o3sXrv1uAeatrBpdnYunu3fvpZ/Pfi5vP3ekOz5cMj5++Gxr+XOk3iDIKuzpi1smp1Nrkyb8n352JD869Uk0hzunOR5aNKcdAsDs92o8zAsL+LMW5lBAxV7VJADgUGQ1/1wWg5cro845X+fkXUbM1I/uyQfb0nLpi8DUcDvCnLgp15lvF4oXkrLlsOFuoGV/cyqFOTdjWnZfr62v+rljKxreFJfx0Z2l93x+9qT8uHpqsqFX6Zl3b5CfTdJmaJ8bKVLj/PjG/nAYM5+yurfeC0N3v1tQQ5sr13k1r2WkQt1rSrc1fJ/MRXr7rLrtmfl2uWsPPvStOgYDrVpTsbPZCSlwQfvoprak5fLX9rdE3lLZ0oyvKcWfNDlU3tycifYUqS2cfddpSA7NYgRdtFuyNPgyvp5Ru6cqE+jHvfwXxr/+fh51+wfSNgunHmzcnlfWta1DIJEbqCtL2hp0BYTCyGAAAIIIIAAAggggAACCCCwqAJJDsJqAgf6hLOpZEzib9Tgwgo1NzfvDIqbxH7ibkMH552br+9tw87M515LbhyC0PqmsDqoFvM0Tc2mbJwxAkwrgskHcnf8gUwkECzQPNI0NZtijWtg0pzw36jxDMxxJHkeqtEnn511xhuJW6bt9Zudh+Y4kvrbXdCgWJZiofYqFMqir74c02B+Vpw+8ovh0bGuoLXrnMyMVKOvUV1tNvZKlRnJm3EAvO53NhwNb7Ll7ys4aLFuo9LGgRWrkm/LdE6qmaq4QWDTzVNGLtZiKX5SxMuriIBxbbnE381LNd/u8SS+88Q2SNAgMUo2hAACCCCAAAIIIIAAAggggEBiAr3oA96uaEzifVRf8AYhl+9B3/tdVBrnIvrZN+k8OFQKf7i0RcV+UgGCsO1omppNvejuJ26ZiOrmxxxHP6Z5EM5D45/E32DQoFyqiP8qV0S7p9LX94qFkuiroH8HKWiQhOKy3sa8jB2dlk27sjJ8uSSTmYrcuey1Bghr1RA8lmDQIPh9t5/Tedn52rTsHMrL2HhV8uNFvzunZ480v1h2u8uVvh5Bg5VeAjh+BBBAAAEEEEAAAQQQQACB5Sgw04PuXOJWCgfX1zQ2m5Lqoii4304/azqaTROP5pdd0EDT1Gyam5uTdCaXaMuRTl3t5TUtmqZmk7Y+mV5Gada0aJqaTYNwHjY7vk6/I2jQqVgfLj/1dVa2/LC+m56obnYaDu+brDP2wYE/N3wTb0alscuhpt05xdsba4sIQQOKAQIIIIAAAggggAACCCCAAALLUyCbKyybSmG7gljfa9paTQsLC7LUXdLo/jUdrab3Py0um8CBpqWdqVcD9Qbzup3P7Q7E249p7vfzsJ2y1O4yCQcNynJv4olzgupJGnyJnrcLInr+hr8a19HtMSUh4HWxk+m0mx3tPqixD/8kUuRsw+nKqbo8u3NK7CCXx4YIGiyPfCAVCCCAAAIIIIAAAggggAACCAQFlvNTzq1aGZhjKVeSGRC5nYrrsGV0/+1M6ey8rP+RjqlZ/4DtYn/WNGha2pl0nIalDsqouaah2ZgR9rHok/3LJs0tWhmYdA/CeWiOJe5fN2hQkVLJffldE2k3RZ13T0TQIG6GsD4CvRIgaNArWbaLAAIIIIAAAggggAACCCCAQHyBQrG07FobaJranfQB4aUa20D328l0+qvKkgcNNA2dTNr1UtKD9YYFX6Lm6b5bdf8UPJ5KdWYZpLmzh6H7/TwM5kG3nxMJGuigyO5AyAQNus0I1kOg1wIEDXotzPYRQAABBBBAAAEEEEAAAQQQiCcwnV0+fddrWjqd9Entxe7LXvfXbmsI+3iWspuidrslstOr75eyy592uyUahDT3+3kYzINuPttBg7pWBi1bGoQMhqwDJNM9UTfZwDoI9F6AoEHvjdkDAggggAACCCCAAAIIIIAAAnEEZufmlvTJbPOUuT5VrmnpZtJughbriXjdT7vdEoUdy8/25he9xYHus9tJu4LPL0GLFN1nO+NFhB2XrrcUT+/rPrtN8yCch2F50cm8yKCB1TWRdlP0vWKhJPoq6F8NGBA06MSZZRFYcgGCBkueBSQAAQQQQAABBBBAAAEEEEAAgZYCMzOzS95NkaYhzlQqV3oeONCAge4n7rSYgYM4AQNznPPz85IvLF5XVrov3WecaX5+cYMdGuTQfcaZBuE8jHP8BA3i6LEuAn0kQNCgjzKLpCKAAAIIIIAAAggggAACCKxoAa2wXKyn9U3rAv2r+4wbMDAZ18vAwdR0MgEDk9bF6Kqo2y6JTBrtv/oE/WJ0VaT76PZpfTu9+t6kuZflWredZJoH4TwM5kO7nxMLGui4BnRP1C47yyGw+AIEDRbfnD0igAACCCCAAAIIIIAAAggg0K2AdpGymH2r67667ZIo6hh14NzpbD7RlhOazkqlGrXLrufrwMTrfzSdeHdFus1OBz1u9yC0a6ZelBHdZpxun5qlv9/SPAjnYbP8iPrOBA2ajWcQ3T1RoIsiggZRzMxHYOkFCBosfR6QAgQQQAABBBBAAAEEEEAAAQQ6FViM/uB1H72aZmfnnO504j5h/mRq2unPP+nAhn3c6ey8JNnqQLel2+zlpB6af1PT2djBGd2GbquXxmox56c5k0CaM06adZu9nPr9POzUJjRoEBjPgKBBp6osj8AyFCBosAwzhSQhgAACCCCAAAIIIIAAAggg0IbAzOysZHOF2BWsdldE+l63qdtejKk6MyP5QrHjym2tyNb1dP3FmiYezcvBoZI891qm45YHuo6uq9tYzEnzUbvm6ablga6j6y5WWTAuGlCKm2bdxmJNg3AetmuVaNCgVCzLvYknTh9V2k9V8CU6/sSC9mEV9WpcZ3xySuZiDlzRLgbLITCoAnoO/f3b9KAeHseFAAIIIIAAAggggAACCCCAwIoQ0EpLrUCP89S+rqvbWOwKYpNB+kS4dlGjadCui4JPyE+lM5LJ5p3vdbm5ucWtfDfpNH9v3J6VX50oiw5inNqedbow+od/TIu+tOshnaff6TK67FJPWh+rARatjM/mCzKdydWVF81/naff6TK6rK6zlJOd5pyXZi0HJsil7zXN+t1ySPMgnIet8luDBq26JnJaGpQKJSkWSlLQv9otkf3S8QwKZelF0ODbJ1kplpPvp6wVDN8jMEgCeg49msoN0iFxLAgggAACCCCAAAIIIIAAAgisaAEdpNWpGM4VJJ3J1lUMm8pWrSDW77RFgS6b1CDHKxqeg0fAEhjU87AhaBDSNdGSBg1yhTKVnVZB5C0C3QhowCBfrHSzKusggAACCCCAAAIIIIAAAggggAACCCCAwAoSWPZBA22eMvldVnJUeK6gYsmhJimg546eQ0wIIIAAAggggAACCCCAAAIIIIAAAggggEArgY6CBtpFUWj3RNpVUY+6J3L7tJpz+mMncNAqO/kegXoBPWd0LIPqzOINClOfAj4hgAACCCCAAAIIIIAAAggggAACCCCAQD8J1AUNIromqpQr8j0NGCxV0EBBtdJTn5bWbla0f3YGR+6nYkZaF1NAzw0zhoGeMwQMFlOffSGAAAIIIIAAAggggAACCCCAAAIIINDfAskFDYq9GQg5OHq39suugQN9eloTzwsDykB9GdBzgzEM+vvCTOoRQAABBBBAAAEEEEAAAQQQQAABBBBYKgE/aBDRykAHQfZaGpSdlgbFQkmK2h1RyKtULMu9iSeiFf1hL1kQ0ddC5CtivaXSYb8IIIAAAggggAACCCCAAAIIIIAAAggggAACCKwggVZBAw0YuEEDbUmgAQOCBiuoeHCoCCCAAAIIIIAAAggggAACCCCAAAIIIIAAAitJoMOggQ54XBJtURDa0qBES4OVVHg4VgQQQAABBBBAAAEEEEAAAQQQQAABBBBAAIHBEnCCBhFdE5lWBpVyVb6ngQInWEDQYLBKAEeDAAIIIIAAAggggAACCCCAAAIIIIAAAggggIAn0FbQoELQgAKDAAIIIIAAAggggAACCCCAAAIIIIAAAggggMDAC3QRNHBbHIR1UVSie6KBLzAcIAIIIIAAAggggAACCCCAAAIIIIAAAggggMDgCkQFDeyuiSp1LQ28bor87oqs8Q0IGgxuQeHIEEAAAQQQQAABBBBAAAEEEEAAAQQQQAABBAZfICxoUAsYVEQDBiFBg4ozvkGwtQFBg8EvMBwhAggggAACCCCAAAIIIIAAAggggAACCCCAwOAKNA8auAGDxqBBqRY0sAMHBA0Gt6BwZAgggAACCCCAAAIIIIAAAggggAACCCCAAAKDLxAMGoS1MggPGliBg6LXRRFBg8EvMBwhAggggAACCCCAAAIIIIAAAggggAACCCCAwOAKRAYNvG6Jwrsn0oCBEzSotTjQwAFBg8EtKBwZAggggAACCCCAAAIIIIAAAggggAACCCCAwOAL2EGDWiuDWrdEzYMGVmsDZ2DkUlnuTTyRhYWF0JcsiOhrIfIVsd7g5wNHiAACCCCAAAIIIIAAAggggAACCCCAAAIIIIDAkguYoEEtYFAb/NgEDKK7J/JbHJSdgZHLBA2WPENJAAIIIIAAAggggAACCCCAAAIIIIAAAggggAAC3Qpo0KBVwKCNoIHbTZEGDcYfTsns3DwtDbrNEdZDAAEEEEAAAQQQQAABBBBAAAEEEEAAAQQQQGAJBObmF+Tvk2kraNDYLZFpbfA9p/shf8Bjb0wD09LAG99AgwYPH09LoVQhaLAEGcouEUAAAQQQQAABBBBAAAEEEEAAAQQQQAABBBDoVqBYrsrkdxkvaBAdMGjd0sALHmjQID2dl2+/yxI06DZXWA8BBBBAAAEEEEAAAQQQQAABBBBAAAEEEEAAgSUQePQkJ9OZghs0qCQRNChXRAMHDx5NS7ZQbggcMBDyEuQyu0QAAQQQQAABBBBAAAEEEEAAAQQQQAABBBBAoIVArliRicdeK4MWAYP2Wxpo0KBckVy+6IxtEAwcEDRokSt8jQACCCCAAAIIIIAAAggggAACCCCAAAIIIIDAIgtowEDHMsgXSmLGLGj193vlYll0XIOi/rXHMrDea8DAvDRwoC0OtKsiHeNAB0cmaLDIOc3uEEAAAQQQQAABBBBAAAEEEEAAAQQQQAABBBAIEdBBj3UMA+2SSFsYdBIwcFoadBo0cIIH3hgHOjjy+MMpuT/hvu5NTEn464ncm2h83dd1eWFAGaAMUAYoA5QBygBlgDJAGaAMUAYoA5QBygBlgDJAGaAMUAYoA5SBRMqAtizQQY/bHcMg2PLAaWmggYN2WxqYFgc6xoF5VUo65kElsqVCqaStGLyX17JBWzfoOmGvqBYP9fOtbZptR/219qn75YUBZYAyQBmgDFAGKAOUAcoAZYAyQBmgDFAGKAOUAcoAZYAyQBmgDHRVBqLqoUPnN6s3d78LqyNvmGf1BuTX0YfMq5Qr7mDH5m8bYxjYQYNqpSp+0MDBiaj4j0yEU+lfFg0a6Ku+Ut/+HF7B33DggSBC9Pbsbdvvw/fjByxCM4118KEMUAYoA5QBygBlgDJAGaAMUAYoA5QBygBlgDJAGaAMUAYoA5SBuGXArqtu/b5V/XhkvXxIsECXrQ8YVNsew8AEDTRg4AYNtMWA9/S9JjKsor5p4ryAQfPWBuHY/nYDwYIorLC0JTcvPI2cKLhQBigDlAHKAGWAMkAZoAxQBigDlAHKAGWAMkAZoAxQBigDlIGVUgbC68iTqIeOqvdumB8RFPDr00O+TypgUAsa6BP4VndBQYBmidHvKuWq09LAPrj6bYQXqNDtthlAiN5X7zK1/pjYDx6UAcoAZYAyQBmgDFAGKAOUAcoAZYAyQBmgDFAGKAOUAcoAZYAyUF8G7Lrrtt+HBAJC688Dy9UHCyodty7QVgamhYHzt6rdE3ljE2ikzD4AO6NbJc4JGpSrUi7pq36cAnc7HQQN7IMObCu47U4/28fE+/qCjAcelAHKAGWAMkAZoAxQBigDlAHKAGWAMkAZoAxQBigDlAHKAGUgugx0Wh/dcnm7LrzD9w3BAn2wv8PxC8ICBtWGoIEmzKqoNwWk7aCBBg6c4EFwO10GDYJQVtrsdPK+3hsPPCgDlAHKAGWAMkAZoAxQBigDlAHKAGWAMkAZoAxQBigDlAHKwDIrA8H67i4/NwQMuggWRAUMwoMGIYGDjoMGDa0OtBWD+7L7/mq13ba/J5hQF+zhYrDMLgaUT8onZYAyQBmgDFAGKAOUAcoAZYAyQBmgDFAGKAOUAcoAZWDllIEugwHN6sMbAgVm2ICEAwbRQYNA4KBZYvU7v3si09LA/ut0WVQLGtjBg1bb7dn3nKAr5wQlr8lrygBlgDJAGaAMUAYoA5QBygBlgDJAGaAMUAYoA5QBygBlIE4Z6EEQoN2676SDBc1aGGjAQF//H7s1zPSSLmi0AAAAAElFTkSuQmCC;" vertex="1" parent="2">
                    <mxGeometry x="214.7" y="266" width="1130.59" height="508" as="geometry"/>
                </mxCell>
                <mxCell id="17" value="admin" style="text;html=1;strokeColor=none;fillColor=none;align=center;verticalAlign=middle;whiteSpace=wrap;rounded=0;fontSize=32;" parent="1" vertex="1">
                    <mxGeometry x="1169" y="130" width="100" height="30" as="geometry"/>
                </mxCell>
            </root>
        </mxGraphModel>
    </diagram>
</mxfile>